<svg width="24" height="24" viewBox="0 0 24 24" fill="none" xmlns="http://www.w3.org/2000/svg">
<path d="M12 0C9.62663 0 7.30655 0.703788 5.33316 2.02236C3.35977 3.34094 1.8217 5.21509 0.913451 7.4078C0.00519943 9.60051 -0.232441 12.0133 0.230582 14.3411C0.693605 16.6689 1.83649 18.8071 3.51472 20.4853C5.19295 22.1635 7.33115 23.3064 9.65892 23.7694C11.9867 24.2324 14.3995 23.9948 16.5922 23.0866C18.7849 22.1783 20.6591 20.6402 21.9776 18.6668C23.2962 16.6935 24 14.3734 24 12C24 8.8174 22.7357 5.76515 20.4853 3.51472C18.2348 1.26428 15.1826 0 12 0ZM12 22C10.0222 22 8.08879 21.4135 6.4443 20.3147C4.79981 19.2159 3.51809 17.6541 2.76121 15.8268C2.00433 13.9996 1.8063 11.9889 2.19215 10.0491C2.578 8.10929 3.53041 6.32746 4.92894 4.92893C6.32746 3.53041 8.10929 2.578 10.0491 2.19215C11.9889 1.8063 13.9996 2.00433 15.8268 2.7612C17.6541 3.51808 19.2159 4.79981 20.3147 6.4443C21.4135 8.08879 22 10.0222 22 12C22 14.6522 20.9464 17.1957 19.0711 19.0711C17.1957 20.9464 14.6522 22 12 22Z" fill="white"/>
<path d="M17.13 15.81L12.5 11.56V6.5C12.5 6.23478 12.3947 5.98043 12.2071 5.79289C12.0196 5.60536 11.7652 5.5 11.5 5.5C11.2348 5.5 10.9805 5.60536 10.7929 5.79289C10.6054 5.98043 10.5 6.23478 10.5 6.5V12C10.4991 12.1388 10.5271 12.2763 10.5821 12.4037C10.6372 12.5311 10.7182 12.6456 10.82 12.74L15.82 17.28C15.9169 17.3699 16.0306 17.4397 16.1546 17.4854C16.2786 17.5311 16.4105 17.5518 16.5425 17.5462C16.6746 17.5406 16.8042 17.5089 16.9239 17.4529C17.0437 17.3969 17.1511 17.3178 17.24 17.22C17.3254 17.1202 17.3903 17.0046 17.4309 16.8797C17.4716 16.7548 17.4873 16.6231 17.4771 16.4922C17.4668 16.3613 17.4309 16.2336 17.3714 16.1166C17.3119 15.9995 17.2298 15.8954 17.13 15.81Z" fill="white"/>
</svg>
