<svg width="24" height="24" viewBox="0 0 24 24" fill="none" xmlns="http://www.w3.org/2000/svg">
<path d="M6.5 6.25C6.5 7.70869 7.07946 9.10764 8.11091 10.1391C9.14236 11.1705 10.5413 11.75 12 11.75C13.4587 11.75 14.8576 11.1705 15.8891 10.1391C16.9205 9.10764 17.5 7.70869 17.5 6.25C17.5 4.79131 16.9205 3.39236 15.8891 2.36091C14.8576 1.32946 13.4587 0.75 12 0.75C10.5413 0.75 9.14236 1.32946 8.11091 2.36091C7.07946 3.39236 6.5 4.79131 6.5 6.25Z" fill="white"/>
<path d="M12 13.25C9.48126 13.2526 7.06643 14.2544 5.28541 16.0354C3.50439 17.8164 2.50265 20.2313 2.5 22.75C2.5 22.8826 2.55268 23.0098 2.64645 23.1036C2.74021 23.1973 2.86739 23.25 3 23.25H21C21.1326 23.25 21.2598 23.1973 21.3536 23.1036C21.4473 23.0098 21.5 22.8826 21.5 22.75C21.4974 20.2313 20.4956 17.8164 18.7146 16.0354C16.9336 14.2544 14.5187 13.2526 12 13.25Z" fill="white"/>
</svg>
