<svg width="33" height="26" viewBox="0 0 33 26" fill="none" xmlns="http://www.w3.org/2000/svg">
<g clip-path="url(#clip0_2_5550)">
<path d="M16.5122 21.125C17.4675 21.125 18.2864 20.8 18.8322 20.2583L32.0698 8.34167C33.025 7.58333 32.8886 6.28333 31.9333 5.525C30.978 4.76667 29.3404 4.875 28.3851 5.63333L28.2486 5.74166L16.6487 16.1417C16.5122 16.25 16.3758 16.25 16.1028 16.1417L4.50294 5.74166C3.54766 4.875 2.04649 4.76667 0.954738 5.525C-0.137017 6.28333 -0.273487 7.475 0.681799 8.34167L0.818268 8.45L14.0558 20.3667C14.7381 20.8 15.557 21.125 16.5122 21.125Z" fill="white"/>
</g>
<defs>
<clipPath id="clip0_2_5550">
<rect width="32.7527" height="26" fill="white" transform="matrix(1 0 0 -1 0 26)"/>
</clipPath>
</defs>
</svg>
