<svg width="33" height="33" viewBox="0 0 33 33" fill="none" xmlns="http://www.w3.org/2000/svg">
<path d="M32.0581 11.9437C32.1378 11.9442 32.1378 11.9442 32.2191 11.9447C32.3738 11.9529 32.4996 11.9697 32.6213 12.0474C32.6659 12.0759 32.7035 12.114 32.7361 12.1556C32.9776 12.4638 32.9868 12.7444 32.9874 13.1396C32.9877 13.1947 32.9881 13.2498 32.9884 13.3066C32.9894 13.4895 32.9898 13.6723 32.9902 13.8552C32.9905 13.9831 32.9909 14.1109 32.9913 14.2387C32.992 14.5076 32.9924 14.7764 32.9926 15.0452C32.993 15.3865 32.9945 15.7278 32.9964 16.0691C32.9976 16.3338 32.998 16.5985 32.9981 16.8632C32.9983 16.9888 32.9988 17.1144 32.9996 17.2399C33.0063 18.2765 32.9169 19.2782 32.6077 20.2739C32.583 20.3544 32.583 20.3544 32.5578 20.4365C31.955 22.3152 30.7306 23.7172 29.3526 25.0829C29.2621 25.1727 29.2621 25.1727 29.1697 25.2643C28.9169 25.5146 28.664 25.7648 28.4104 26.0144C28.2838 26.139 28.1574 26.2639 28.0314 26.389C27.9135 26.506 27.7953 26.6226 27.6767 26.7387C27.6238 26.7914 27.571 26.844 27.5165 26.8982C27.4699 26.9442 27.4232 26.9902 27.3752 27.0376C27.2175 27.2061 27.4128 27.431 27.6436 27.431C27.8163 27.431 27.9894 27.431 28.1634 27.431C28.6109 27.431 28.9737 27.7938 28.9737 28.2414C28.9737 29.4228 28.9737 30.6078 28.9737 31.8122C28.9737 32.3645 28.526 32.8122 27.9737 32.8122C24.8408 32.8122 21.7011 32.8122 18.4895 32.8122C17.9372 32.8122 17.4895 32.3645 17.4895 31.8122C17.4895 30.6233 17.4895 29.4298 17.4895 28.2158C17.4895 27.7824 17.8408 27.431 18.2742 27.431C18.3887 27.431 18.5037 27.431 18.6191 27.431C18.8646 27.431 19.0631 27.2311 19.0613 26.9857C19.0581 26.4974 19.0559 26.0092 19.0543 25.521C19.0532 25.2252 19.0518 24.9295 19.0496 24.6338C19.0474 24.3479 19.0463 24.062 19.0458 23.776C19.0454 23.6675 19.0447 23.559 19.0436 23.4505C19.0363 22.6777 19.0811 21.9611 19.4336 21.2541C19.4615 21.1957 19.4894 21.1374 19.5182 21.0772C20.0996 20.191 20.9913 19.4451 21.7366 18.6948C21.8969 18.5334 22.0566 18.3714 22.2158 18.2089C22.41 18.0107 22.6053 17.8135 22.8012 17.6169C22.8749 17.5426 22.9483 17.468 23.0214 17.393C23.4895 16.9131 23.9385 16.519 24.6028 16.3818C24.6632 16.3694 24.7252 16.3652 24.7868 16.3674C25.3984 16.3893 25.917 16.5095 26.3795 16.948C26.7758 17.3989 26.9226 17.9105 26.9394 18.5061C26.8242 19.5611 26.1262 20.2079 25.4054 20.9096C25.3186 20.9951 25.2319 21.0806 25.1452 21.1662C25.0019 21.3075 24.8582 21.4485 24.7143 21.5892C24.6323 21.6693 24.679 21.8085 24.7928 21.8223C24.845 21.8288 24.8973 21.8353 24.9511 21.842C25.4913 21.8812 26.0405 21.5827 26.4577 21.2649C27.5716 20.2942 28.206 18.9079 28.3831 17.4561C28.3929 17.2686 28.3952 17.0812 28.397 16.8934C28.3988 16.7849 28.4007 16.6763 28.4026 16.5677C28.4053 16.3992 28.4077 16.2306 28.4095 16.062C28.4243 14.7306 28.6624 13.7677 29.63 12.7968C29.6663 12.759 29.7026 12.7211 29.74 12.6822C30.3974 12.0541 31.1927 11.923 32.0581 11.9437ZM30.6692 13.907C30.1267 14.481 29.9508 15.0995 29.9466 15.8755C29.9453 15.9787 29.9439 16.0818 29.9425 16.185C29.9417 16.2386 29.941 16.2922 29.9402 16.3473C29.9065 18.4606 29.4381 20.2005 28.055 21.8529C28.0063 21.9193 27.9575 21.9856 27.9073 22.0539C27.2471 22.8338 26.2152 23.2857 25.2144 23.3833C24.6821 23.401 24.1739 23.3311 23.65 23.2434C23.5846 23.2325 23.5192 23.2217 23.4519 23.2105C23.1027 23.1472 22.8281 23.0873 22.5738 22.8594C22.5169 22.8083 22.4697 22.7465 22.4388 22.6766C22.3902 22.5666 22.3778 22.4722 22.3744 22.3287C22.3742 22.3248 22.374 22.321 22.3738 22.3171C22.3686 22.2194 22.375 22.1204 22.4105 22.0292C22.5785 21.5978 23.0011 21.2456 23.32 20.9314C23.3682 20.8834 23.4164 20.8354 23.4661 20.7859C23.6187 20.6341 23.7717 20.4827 23.9248 20.3313C24.0277 20.229 24.1306 20.1267 24.2335 20.0243C24.4223 19.8366 24.6113 19.649 24.8005 19.4617C24.841 19.4215 24.8815 19.3812 24.9233 19.3398C24.9947 19.2691 25.0663 19.1987 25.1383 19.1286C25.2921 18.9778 25.3839 18.8837 25.4308 18.7072C25.4523 18.6267 25.4532 18.5413 25.4325 18.4605C25.3849 18.2738 25.2834 18.1911 25.1019 18.0467C25.0757 18.0311 25.0549 18.0187 25.0372 18.0089C24.9192 17.9439 24.7758 18.0101 24.6631 18.0837C24.4713 18.2089 24.3089 18.3605 24.1419 18.5273C24.1065 18.5621 24.0712 18.5969 24.0347 18.6328C23.9184 18.7475 23.8026 18.8627 23.6869 18.978C23.6057 19.0586 23.5246 19.1391 23.4435 19.2196C23.2735 19.3885 23.1039 19.5576 22.9344 19.7269C22.7183 19.9427 22.5012 20.1573 22.2837 20.3718C22.1157 20.5378 21.9485 20.7046 21.7814 20.8716C21.7017 20.951 21.6218 21.0301 21.5416 21.109C20.9662 21.6753 20.4652 22.2087 20.4347 23.0561C20.4348 23.1393 20.435 23.2226 20.4351 23.3083C20.4351 23.3552 20.4351 23.402 20.4351 23.4503C20.4351 23.6012 20.4356 23.7521 20.4362 23.9029C20.4363 23.9964 20.4363 24.0899 20.4364 24.1834C20.4367 24.529 20.4376 24.8747 20.4385 25.2203C20.4392 25.6667 20.44 26.1131 20.4408 26.564C20.4418 27.1156 20.8892 27.5623 21.4408 27.5623C22.5832 27.5623 23.7301 27.5623 24.8969 27.5623C25.3242 27.5623 25.6945 27.2695 25.7905 26.8532C25.8122 26.7592 25.8482 26.6664 25.902 26.5864C26.1726 26.1838 26.5335 25.8559 26.8812 25.5166C26.994 25.4064 27.1063 25.2957 27.2185 25.1848C27.5372 24.8699 27.8565 24.5557 28.1768 24.2424C29.4219 23.0519 29.4219 23.0519 30.4175 21.6561C30.4514 21.5975 30.4853 21.5389 30.5203 21.4785C30.5989 21.3346 30.6699 21.1903 30.7374 21.0408C30.7611 20.9893 30.7849 20.9377 30.8093 20.8846C30.966 20.5326 31.0949 20.1767 31.2009 19.8063C31.2132 19.7636 31.2255 19.7209 31.2381 19.6769C31.4614 18.8179 31.4866 17.9376 31.4803 17.0562C31.48 16.9532 31.4799 16.8503 31.4797 16.7473C31.4792 16.4802 31.4779 16.2131 31.4765 15.946C31.4751 15.6719 31.4745 15.3977 31.4739 15.1236C31.4733 14.8912 31.4725 14.6588 31.4716 14.4264C31.4697 13.9243 31.045 13.574 30.6692 13.907ZM19.9333 29.006C19.381 29.006 18.9332 29.4537 18.9332 30.006C18.9332 30.1701 18.9332 30.3346 18.9332 30.4997C18.9332 31.052 19.3809 31.4997 19.9332 31.4997C22.1132 31.4997 24.2991 31.4997 26.53 31.4997C27.0822 31.4997 27.53 31.052 27.53 30.4997C27.53 30.3356 27.53 30.1711 27.53 30.006C27.53 29.4537 27.0823 29.006 26.53 29.006C24.35 29.006 22.1641 29.006 19.9333 29.006Z" fill="#90F101"/>
<path d="M2.71579 12.4287C2.87797 12.5226 3.03099 12.6221 3.18336 12.7311C3.22498 12.7608 3.2666 12.7904 3.30948 12.8209C3.91029 13.2914 4.24148 13.9645 4.41375 14.6934C4.42506 14.7413 4.43217 14.7901 4.43473 14.8393C4.43808 14.9034 4.43997 14.9675 4.44057 15.0317C4.44125 15.0834 4.44192 15.1352 4.44261 15.1885C4.44309 15.2442 4.44357 15.2998 4.44407 15.3571C4.44591 15.4771 4.44779 15.5971 4.44971 15.7171C4.45239 15.9045 4.45481 16.0919 4.45656 16.2793C4.47566 18.1611 4.87862 19.7827 6.20208 21.1967C6.70091 21.6609 7.26123 21.9687 7.94933 21.9924C8.04436 21.9933 8.09853 21.9939 8.1451 21.9881C8.25324 21.9748 8.27773 21.8319 8.19924 21.7564C7.99053 21.5549 7.7832 21.352 7.57622 21.1487C7.48697 21.0614 7.39736 20.9745 7.30738 20.888C6.57093 20.1789 5.98485 19.5181 5.93958 18.4405C5.97503 17.844 6.22001 17.4104 6.65325 17.009C7.13887 16.6075 7.68085 16.4841 8.30206 16.5374C9.16706 16.6954 9.71015 17.3335 10.308 17.9306C10.387 18.0092 10.4661 18.0879 10.5452 18.1665C10.7103 18.3308 10.8751 18.4954 11.0398 18.6601C11.2493 18.8696 11.4597 19.0782 11.6703 19.2866C11.8338 19.4486 11.9966 19.6112 12.1593 19.774C12.2365 19.8511 12.314 19.9279 12.3917 20.0046C13.1879 20.7913 13.8491 21.6434 13.888 22.8115C13.8882 22.9001 13.888 22.9887 13.8876 23.0773C13.8876 23.126 13.8876 23.1747 13.8876 23.2249C13.8876 23.3847 13.8871 23.5445 13.8865 23.7043C13.8864 23.8155 13.8863 23.9268 13.8863 24.038C13.886 24.33 13.8854 24.6219 13.8846 24.9138C13.884 25.2121 13.8837 25.5103 13.8833 25.8086C13.883 26.1194 13.8825 26.4302 13.8819 26.741C13.881 27.1943 14.242 27.5623 14.6952 27.5623C15.1478 27.5623 15.5207 27.9291 15.5207 28.3816C15.5207 29.56 15.5207 30.7421 15.5207 31.9434C15.5207 32.4957 15.073 32.9435 14.5208 32.9435C11.3662 32.9435 8.20473 32.9435 4.97092 32.9435C4.41863 32.9435 3.97085 32.4957 3.97085 31.9435C3.97085 30.7075 3.97085 29.4666 3.97085 28.2028C3.97085 27.8491 4.25763 27.5623 4.61139 27.5623C4.7355 27.5623 4.8599 27.5623 4.98476 27.5623C5.31833 27.5623 5.52325 27.195 5.28667 26.9598C5.23638 26.9097 5.18609 26.8595 5.13428 26.8078C5.05579 26.7306 5.05579 26.7306 4.97573 26.6517C4.92467 26.6007 4.87362 26.5497 4.82102 26.4971C4.58907 26.2669 4.35542 26.0416 4.10774 25.8283C1.92118 23.9417 0.323984 21.6385 0.033389 18.703C0.0240283 18.5111 0.022442 18.3196 0.0217733 18.1276C0.0213421 18.0727 0.0209109 18.0178 0.0204666 17.9612C0.0191833 17.7812 0.0184092 17.6012 0.0177519 17.4212C0.0174845 17.3594 0.0172171 17.2975 0.0169416 17.2338C0.015578 16.9068 0.0146368 16.5799 0.0140189 16.2529C0.0132912 15.9162 0.0110303 15.5795 0.0084296 15.2428C0.00671147 14.9828 0.00616424 14.7228 0.00592874 14.4628C0.00561003 14.3387 0.00484937 14.2146 0.00362914 14.0904C0.0020253 13.9166 0.00209243 13.7429 0.00254743 13.569C0.00170678 13.5183 0.000866127 13.4677 0 13.4155C0.00304241 13.095 0.0749238 12.8433 0.227843 12.5791C0.270976 12.5045 0.326888 12.4378 0.392951 12.3826C0.443501 12.3403 0.472691 12.3245 0.562486 12.2759C0.606559 12.2509 0.650633 12.226 0.696042 12.2003C1.33961 11.8923 2.10769 12.1345 2.71579 12.4287ZM1.46933 13.4787C1.40547 13.4654 1.3454 13.5139 1.3449 13.5791C1.34078 14.123 1.33764 14.667 1.33568 15.2109C1.33466 15.4832 1.33328 15.7554 1.33102 16.0276C1.30785 18.8993 1.78899 21.1774 3.8396 23.2967C4.07399 23.5336 4.31022 23.7687 4.54686 24.0034C4.57887 24.0352 4.61088 24.0669 4.64386 24.0997C4.94574 24.3991 5.2479 24.6983 5.55085 24.9967C5.71806 25.1614 5.88477 25.3266 6.05119 25.4921C6.14418 25.5843 6.2377 25.676 6.33123 25.7677C6.66323 26.0984 6.84766 26.3261 6.97396 26.6256C7.16176 27.0709 7.53773 27.431 8.02102 27.431C9.13173 27.431 10.246 27.431 11.378 27.431C11.9274 27.431 12.374 26.9877 12.3779 26.4382C12.381 26.0148 12.3841 25.5883 12.3872 25.1547C12.3896 24.9192 12.392 24.6837 12.3944 24.4411C12.3953 24.2264 12.3953 24.2264 12.3958 24.0117C12.3962 23.9175 12.3971 23.8233 12.3985 23.7291C12.4091 22.9487 12.3852 22.2017 11.8451 21.5867C11.7371 21.4774 11.6279 21.3693 11.5177 21.2623C11.4268 21.1685 11.336 21.0747 11.2454 20.9807C11.0789 20.8085 10.9103 20.6385 10.7417 20.4684C10.6879 20.4141 10.6879 20.4141 10.6329 20.3586C10.4438 20.1677 10.2544 19.977 10.0648 19.7865C9.90874 19.6295 9.75317 19.4721 9.598 19.3143C9.40912 19.1222 9.21946 18.9309 9.02919 18.7402C8.95725 18.6678 8.88558 18.5951 8.81421 18.5222C8.71469 18.4206 8.61418 18.3201 8.51337 18.2197C8.45657 18.1624 8.39977 18.1051 8.34125 18.046C8.24609 17.9731 8.16815 17.9267 8.08505 17.8973C7.89299 17.8294 7.67143 17.8935 7.528 18.0382C7.49606 18.0704 7.46678 18.1057 7.43943 18.1465C7.39791 18.2084 7.37203 18.2797 7.35815 18.353C7.35296 18.3804 7.35033 18.4032 7.35026 18.4269C7.34987 18.5676 7.42442 18.6975 7.51312 18.8066C7.77869 19.1335 8.09898 19.424 8.39742 19.7166C8.50271 19.8207 8.60799 19.9249 8.71324 20.029C8.87735 20.1911 9.0416 20.353 9.20619 20.5146C9.36634 20.672 9.52586 20.8299 9.6853 20.988C9.75913 21.06 9.75913 21.06 9.83445 21.1335C10.096 21.3937 10.3209 21.631 10.4115 21.9872C10.4261 22.0449 10.4309 22.1047 10.43 22.1642C10.4277 22.3212 10.4146 22.4367 10.3552 22.5718C10.3159 22.6609 10.2524 22.7379 10.1732 22.7945C9.8522 23.0238 9.48204 23.0454 9.08135 23.108C8.974 23.1259 8.974 23.1259 8.86448 23.1441C7.66691 23.3347 6.57658 23.1531 5.56455 22.4512C5.20687 22.1769 4.90678 21.8772 4.6271 21.5248C4.58057 21.4683 4.53404 21.4118 4.48611 21.3536C3.26299 19.809 2.96058 18.0444 2.95294 16.1268C2.9519 15.9466 2.94974 15.7663 2.94752 15.5861C2.94772 15.5321 2.94792 15.4782 2.94812 15.4226C2.94126 14.8871 2.80607 14.3971 2.46149 13.978C2.20131 13.7314 1.98339 13.5879 1.63098 13.5133C1.57764 13.5019 1.52429 13.4905 1.46933 13.4787ZM6.41464 29.006C5.86235 29.006 5.41459 29.4537 5.41459 30.006C5.41459 30.1701 5.41459 30.3346 5.41459 30.4997C5.41459 31.052 5.8623 31.4997 6.41458 31.4997C8.5729 31.4997 10.7371 31.4997 12.9457 31.4997C13.498 31.4997 13.9458 31.052 13.9458 30.4997C13.9458 30.3356 13.9458 30.1711 13.9458 30.006C13.9458 29.4537 13.498 29.006 12.9458 29.006C10.7874 29.006 8.6232 29.006 6.41464 29.006Z" fill="#90F101"/>
<path d="M16.4202 0.0635723C16.4317 0.0258333 16.466 1.52588e-05 16.5054 1.52588e-05C16.5441 1.52588e-05 16.5794 0.0263935 16.5915 0.0631419C17.6274 3.21652 17.6307 3.22678 18.1269 4.78387C18.164 4.90024 18.2012 5.01658 18.2385 5.13289C18.29 5.29359 18.3411 5.4544 18.3921 5.61526C18.4072 5.66227 18.4223 5.70928 18.4379 5.75771C18.5298 6.04964 18.7876 6.29996 19.0936 6.29996C20.8049 6.29996 22.5195 6.29996 24.2686 6.29996C24.6245 6.29996 24.7909 6.71971 24.499 6.92339C24.4169 6.98111 24.3349 7.03888 24.2529 7.09668C24.2096 7.12709 24.1663 7.1575 24.1216 7.18883C23.8852 7.35563 23.6507 7.52503 23.4162 7.69448C23.3667 7.73022 23.3172 7.76596 23.2662 7.80278C22.8509 8.10311 22.4385 8.40706 22.0263 8.71157C21.5137 9.08993 20.9977 9.4637 20.48 9.83511C20.1419 10.0777 19.9864 10.5042 20.1029 10.9036C20.1776 11.1597 20.2559 11.4146 20.338 11.6691C20.3591 11.735 20.3802 11.8008 20.4019 11.8687C20.4469 12.0088 20.4919 12.1489 20.537 12.289C20.6074 12.5078 20.6775 12.7267 20.7476 12.9456C20.9618 13.6137 21.1772 14.2813 21.3964 14.9478C21.4307 15.0523 21.465 15.1568 21.4992 15.2613C21.5618 15.4521 21.6251 15.6428 21.6887 15.8333C21.7164 15.9176 21.7441 16.0019 21.7717 16.0862C21.7956 16.1581 21.8195 16.23 21.8442 16.3041C21.8842 16.4634 21.6998 16.5169 21.5661 16.4215C20.6865 15.7937 19.8104 15.1613 18.9412 14.5189C18.5807 14.2528 18.2182 13.9895 17.8545 13.7278C17.575 13.5267 17.2971 13.3236 17.0208 13.1184C16.7057 12.8842 16.2804 12.8474 15.9547 13.0668C15.7902 13.1777 15.6293 13.2946 15.4674 13.4161C15.3564 13.4987 15.2453 13.5812 15.1342 13.6637C15.0782 13.7053 15.0223 13.7469 14.9646 13.7898C14.7126 13.9762 14.4585 14.1598 14.2042 14.343C14.1557 14.378 14.1072 14.4129 14.0573 14.4489C13.862 14.5896 13.6667 14.7302 13.4713 14.8708C13.3246 14.9765 13.1778 15.0822 13.0311 15.188C12.9593 15.2396 12.9593 15.2396 12.8861 15.2924C12.62 15.4845 12.3553 15.6783 12.0919 15.8742C12.035 15.9164 11.9782 15.9586 11.9196 16.0021C11.8096 16.084 11.6997 16.166 11.5901 16.2483C11.5406 16.2852 11.491 16.322 11.44 16.36C11.3963 16.3927 11.3526 16.4254 11.3076 16.4591C11.1849 16.5404 11.0493 16.4102 11.0924 16.2695C11.2078 15.8927 11.3312 15.519 11.4584 15.1457C11.4841 15.0701 11.5098 14.9945 11.5362 14.9166C11.5907 14.756 11.6453 14.5954 11.7 14.4349C11.7706 14.2275 11.841 14.02 11.9114 13.8125C12.1603 13.0785 12.4093 12.3445 12.6669 11.6135C12.6829 11.5677 12.699 11.5219 12.7156 11.4747C12.7857 11.2749 12.8565 11.0753 12.9283 10.8762C12.9518 10.8098 12.9752 10.7434 12.9993 10.675C13.0192 10.6197 13.0391 10.5644 13.0596 10.5074C13.0738 10.4637 13.0838 10.4328 13.0889 10.4063C13.1195 10.2471 12.9618 10.1176 12.8312 10.0216C12.7679 9.9751 12.7036 9.92979 12.6374 9.88469C12.5529 9.82578 12.4685 9.76681 12.3841 9.70781C12.3167 9.66096 12.3167 9.66096 12.2479 9.61316C12.0095 9.44645 11.7739 9.2759 11.5382 9.1054C11.4639 9.0518 11.4639 9.0518 11.3882 8.99713C10.9728 8.69667 10.5601 8.39255 10.1477 8.08787C9.78559 7.8206 9.4218 7.55577 9.05674 7.29253C8.98354 7.23971 8.98354 7.23971 8.90887 7.18582C8.69438 7.03116 8.47972 6.87676 8.26464 6.72293C8.19849 6.67538 8.13233 6.62784 8.06418 6.57886C8.00784 6.53859 7.9515 6.49833 7.89345 6.45684C7.86054 6.43103 7.82762 6.40522 7.79397 6.37884C7.7833 6.37047 7.77707 6.35785 7.77707 6.34429C7.77707 6.31991 7.79683 6.29996 7.82121 6.29996C9.81917 6.29996 11.8175 6.29996 13.8657 6.29996C14.2192 6.29996 14.5253 6.05443 14.602 5.70934C14.6516 5.54165 14.7026 5.37595 14.7573 5.21004C14.7723 5.16396 14.7872 5.11788 14.8027 5.0704C14.8516 4.91997 14.9008 4.76966 14.9501 4.61936C14.9846 4.51338 15.0191 4.40739 15.0536 4.30139C15.1441 4.0233 15.2349 3.74532 15.3258 3.46736C15.4709 3.02359 15.6154 2.57964 15.76 2.13572C15.8101 1.98214 15.8603 1.82859 15.9105 1.67504C16.0854 1.13934 16.2562 0.602723 16.4202 0.0635723ZM16.4399 4.59372C16.4008 4.59372 16.3657 4.61893 16.3538 4.65612C16.2293 5.04282 16.1052 5.42965 15.9813 5.81657C15.9369 5.95531 15.8923 6.09401 15.8477 6.23268C15.7835 6.43182 15.7198 6.63106 15.6561 6.83034C15.636 6.89248 15.6159 6.95462 15.5952 7.01865C15.5676 7.10534 15.5676 7.10534 15.5395 7.19379C15.5231 7.24464 15.5068 7.2955 15.49 7.3479C15.4369 7.52262 15.3027 7.67807 15.1201 7.67807C14.3246 7.67807 13.5274 7.67807 12.7165 7.67807C12.4678 7.67807 12.3452 7.9785 12.5477 8.12283C12.5941 8.15614 12.6406 8.18946 12.6884 8.22378C12.7626 8.27646 12.7626 8.27646 12.8384 8.33021C12.9436 8.40557 13.0489 8.48094 13.1542 8.55631C13.2356 8.61446 13.2356 8.61446 13.3187 8.67378C13.5968 8.87268 13.8738 9.07319 14.1508 9.27356C14.2508 9.34577 14.3508 9.41798 14.4508 9.49017C14.5816 9.58465 14.6415 9.7497 14.599 9.90535C14.4329 10.5137 14.2382 11.113 14.0465 11.714C13.9975 11.8678 13.9487 12.0217 13.8999 12.1756C13.8847 12.2229 13.8695 12.2702 13.8539 12.319C13.7862 12.522 13.9981 12.6744 14.1758 12.5551C14.1963 12.5413 14.2168 12.5272 14.2372 12.5127C14.3019 12.4671 14.3019 12.4671 14.3679 12.4205C14.414 12.3877 14.4601 12.3548 14.5077 12.321C14.5559 12.2871 14.6042 12.2531 14.6539 12.2182C14.9292 12.0233 15.1995 11.8236 15.4661 11.6171C15.5496 11.5532 15.5496 11.5531 15.6348 11.4879C15.7434 11.4045 15.8512 11.32 15.9582 11.2345C16.1373 11.0976 16.2292 11.0273 16.3023 10.9945C16.4534 10.9267 16.6211 11.0318 16.7546 11.1298C16.8642 11.2103 16.9725 11.2921 17.0793 11.3776C17.4724 11.6881 17.8774 11.9784 18.2884 12.2644C18.4842 12.401 18.6744 12.5373 18.8594 12.6886C18.9782 12.8021 19.0981 12.6546 19.0582 12.4952C18.97 12.1433 18.8682 11.7968 18.7538 11.4512C18.7378 11.4029 18.7218 11.3545 18.7053 11.3047C18.6386 11.1039 18.5716 10.9033 18.504 10.7029C18.4541 10.5547 18.405 10.4062 18.3559 10.2577C18.3404 10.2124 18.3249 10.167 18.3089 10.1203C18.2721 10.0082 18.2482 9.9353 18.2358 9.87854C18.1934 9.68413 18.3603 9.51509 18.5219 9.39902C18.6005 9.3426 18.6799 9.28739 18.761 9.23255C18.8622 9.1626 18.9634 9.09252 19.0645 9.02234C19.1178 8.98542 19.1711 8.94849 19.226 8.91045C19.5115 8.71032 19.7926 8.50413 20.0734 8.2974C20.1269 8.25833 20.1803 8.21927 20.2353 8.17902C20.2853 8.1422 20.3352 8.10539 20.3867 8.06746C20.4529 8.01879 20.4529 8.01879 20.5203 7.96913C20.6489 7.871 20.5676 7.67807 20.4059 7.67807C19.6196 7.67807 18.8311 7.67807 18.0289 7.67807C17.6754 7.67807 17.3693 7.43254 17.2926 7.08745C17.2653 6.9883 17.2366 6.88948 17.2054 6.79148C17.1897 6.7416 17.1739 6.69172 17.1577 6.64033C17.1411 6.58883 17.1246 6.53733 17.1075 6.48427C17.0902 6.42975 17.0729 6.37524 17.0551 6.31907C17.0005 6.1472 16.9456 5.97543 16.8907 5.80367C16.8533 5.68623 16.816 5.56878 16.7786 5.45133C16.6944 5.18624 16.6098 4.92125 16.5251 4.6563C16.5132 4.61902 16.479 4.59372 16.4399 4.59372Z" fill="#90F101"/>
</svg>
