<svg width="337" height="33" viewBox="0 0 337 33" fill="none" xmlns="http://www.w3.org/2000/svg">
<path d="M32.2631 9.22357C32.5419 9.42794 32.6968 9.65739 32.7656 9.99091C32.7748 10.1094 32.7723 10.2195 32.7656 10.3385C32.793 10.3461 32.8204 10.3536 32.8486 10.3614C33.1206 10.4381 33.3841 10.5266 33.6467 10.6291C33.6855 10.6442 33.7243 10.6593 33.7642 10.6748C34.13 10.8197 34.4825 10.9837 34.831 11.1641C34.8577 11.1777 34.8844 11.1914 34.9119 11.2054C36.7067 12.1296 38.155 13.7155 38.782 15.596C39.2734 17.1889 39.6267 19.5871 38.8859 21.1604C38.6649 21.5193 38.3684 21.7559 37.9512 21.8693C37.4145 21.9616 36.8692 21.8931 36.3315 21.8401C36.1233 21.8197 35.9149 21.8001 35.7066 21.7807C35.6106 21.7717 35.5147 21.7624 35.4188 21.7528C35.0213 21.7094 35.0213 21.7094 34.6619 21.851C34.5557 21.9618 34.4691 22.0752 34.382 22.2005C34.3325 22.2583 34.282 22.3154 34.2304 22.3715C34.2053 22.3993 34.1802 22.4271 34.1543 22.4557C33.8228 22.809 33.4677 23.1226 33.0799 23.4171C33.0372 23.4509 32.9946 23.4847 32.9506 23.5196C31.5202 24.6298 29.6496 25.3639 27.8048 25.3827C27.7699 25.3831 27.735 25.3835 27.6991 25.384C26.2736 25.3977 25.2519 25.1831 24.0497 24.4028C23.0585 23.7717 22.0878 23.3852 20.9124 23.1998C20.8821 23.1947 20.8519 23.1896 20.8208 23.1844C19.7701 23.0118 18.6296 23.0094 17.6422 23.4169C17.3867 23.5199 17.1829 23.5623 16.9183 23.4749C16.7461 23.3946 16.629 23.287 16.5418 23.1185C16.4702 22.8938 16.4726 22.6513 16.5572 22.4313C16.5868 22.3981 16.6165 22.365 16.647 22.3308C16.668 22.3072 16.689 22.2835 16.7106 22.2592C17.3832 21.5551 18.3313 21.0447 19.1444 20.508C19.5612 20.2327 19.977 19.9556 20.3885 19.6729C20.4691 19.6194 20.5515 19.5686 20.6356 19.5204C20.858 19.3929 20.858 19.3929 21.0018 19.1931C21.0259 19.08 21.0374 18.9699 21.0471 18.8548C21.0614 18.7671 21.0765 18.6795 21.0923 18.592C21.1003 18.5453 21.1083 18.4985 21.1165 18.4503C21.4562 16.497 22.1062 14.4257 23.4716 12.9021C23.5061 12.8629 23.5406 12.8238 23.5761 12.7834C23.8324 12.5007 24.1049 12.26 24.4145 12.0331C24.4381 12.0157 24.4617 11.9982 24.486 11.9803C24.8902 11.6844 25.3128 11.435 25.7614 11.2075C25.7893 11.1931 25.8172 11.1787 25.8459 11.1638C27.0181 10.5639 28.3652 10.2609 29.6676 10.0778C29.6786 10.0447 29.6896 10.0116 29.7009 9.97743C29.8309 9.59392 29.9988 9.28403 30.3709 9.07981C31.0116 8.80609 31.6745 8.85142 32.2631 9.22357ZM30.7452 9.8171C30.6985 9.87369 30.6532 9.93146 30.6105 9.99091C30.6356 9.99199 30.6606 9.99308 30.6865 9.99421C30.8024 9.99931 30.9183 10.0046 31.0342 10.0099C31.0934 10.0125 31.0934 10.0125 31.1537 10.0151C31.4083 10.0269 31.6595 10.0482 31.9125 10.0778C31.8262 9.89414 31.7428 9.82347 31.5533 9.7302C31.2513 9.66505 31.0125 9.6608 30.7452 9.8171ZM28.2757 12.2503C28.2463 12.2756 28.2169 12.3008 28.1866 12.3269C26.3694 13.9892 25.5647 16.7486 25.2675 19.072C25.2675 19.1294 25.2675 19.1867 25.2675 19.2458C25.364 19.2683 25.4606 19.2907 25.5571 19.3131C25.6447 19.3335 25.7323 19.3539 25.82 19.3742C26.0693 19.4322 26.3187 19.4901 26.5682 19.5479C27.0215 19.653 27.4749 19.7582 27.9278 19.8649C29.425 20.2178 30.9248 20.5548 32.4513 20.7666C32.7209 19.7741 32.963 18.7832 33.1248 17.7685C33.1368 17.6941 33.1368 17.6941 33.149 17.6182C33.2522 16.9459 33.2728 16.2771 33.2763 15.5987C33.2767 15.56 33.2771 15.5212 33.2774 15.4812C33.288 13.9844 32.9829 12.3923 31.8671 11.2847C30.7478 10.2373 29.2236 11.4345 28.2757 12.2503ZM24.5492 12.989C24.4908 13.0441 24.4908 13.0441 24.4313 13.1003C24.3961 13.1353 24.3609 13.1702 24.3247 13.2062C24.3002 13.227 24.2757 13.2477 24.2505 13.269C22.7942 14.5544 22.1306 16.9981 21.9001 18.8113C21.8988 18.8982 21.8984 18.9851 21.9001 19.072C21.9442 19.0718 21.9882 19.0716 22.0335 19.0713C22.2388 19.0704 22.4441 19.0698 22.6494 19.0693C22.6861 19.0692 22.7229 19.0691 22.7608 19.0691C23.2421 19.0683 23.7216 19.0733 24.2021 19.1038C24.2878 19.1091 24.3736 19.1125 24.4594 19.1155C24.5388 19.0386 24.5319 18.9252 24.5483 18.8208C24.5612 18.7412 24.5612 18.7412 24.5743 18.6599C24.5789 18.6315 24.5834 18.6031 24.5882 18.5738C24.7403 17.6354 24.9622 16.7165 25.2675 15.8133C25.2796 15.777 25.2918 15.7407 25.3042 15.7034C25.8594 14.066 26.7409 12.652 28.0197 11.4532C28.1211 11.3579 28.221 11.2611 28.3206 11.1641C27.0646 11.1641 25.4046 12.1663 24.5492 12.989ZM32.9003 11.2075C32.9579 11.3567 33.0253 11.4861 33.1136 11.6203C33.4802 12.2047 33.7107 12.8377 33.8516 13.505C33.8586 13.5377 33.8655 13.5704 33.8727 13.6041C34.0036 14.2637 34.0412 14.9176 34.0396 15.5879C34.0396 15.6293 34.0395 15.6707 34.0395 15.7134C34.0343 17.4029 33.7337 19.0572 33.2792 20.6858C33.2561 20.7669 33.2561 20.7669 33.2595 20.8535C33.8943 20.9177 34.5285 20.956 35.1657 20.9862C35.7118 21.0126 36.2532 21.0546 36.7965 21.1157C37.4037 21.1976 37.4037 21.1976 37.9739 21.0273C38.4853 20.5434 38.4217 19.4207 38.4335 18.7741C38.4429 16.989 38.0549 15.2385 36.8963 13.8145C36.877 13.7907 36.8578 13.7669 36.8379 13.7423C35.8708 12.5587 34.4053 11.6116 32.9003 11.2075ZM22.1127 19.7669C21.5717 19.7671 21.2574 20.0244 20.8512 20.3321C20.6293 20.4949 20.397 20.6434 20.1659 20.7937C20.0694 20.8569 19.973 20.9201 19.8765 20.9833C19.808 21.0282 19.808 21.0282 19.7381 21.0739C19.3186 21.3488 18.9021 21.6276 18.4878 21.9099C18.4419 21.9412 18.4419 21.9412 18.395 21.9731C18.1836 22.1176 17.9758 22.2664 17.7695 22.4177C17.95 22.4691 18.0622 22.4409 18.2465 22.3987C20.0692 22.0425 22.4124 22.4278 23.9706 23.4086C24.1505 23.5248 24.3288 23.6431 24.5067 23.762C25.1216 24.1712 25.731 24.4828 26.4798 24.5902C26.5225 24.5964 26.5652 24.6025 26.6092 24.6089C28.7552 24.8359 30.9584 24.0602 32.6275 22.7863C32.9238 22.5535 33.2039 22.3049 33.4756 22.0457C33.4985 22.0239 33.5214 22.0021 33.545 21.9797C33.6475 21.8796 33.7066 21.8148 33.7534 21.679C33.7099 21.6738 33.6664 21.6686 33.6216 21.6633C32.0301 21.4723 30.4764 21.2093 28.9178 20.8416C28.8822 20.8332 28.8466 20.8248 28.8098 20.8161C28.4478 20.7307 28.0859 20.6447 27.7243 20.5574C26.9976 20.3821 26.2706 20.2156 25.536 20.0739C25.5036 20.0677 25.4712 20.0614 25.4378 20.0549C24.9047 19.9523 24.371 19.8689 23.8308 19.8107C23.7607 19.8022 23.7607 19.8022 23.6892 19.7935C23.2425 19.747 22.7885 19.7559 22.3398 19.7649C22.2641 19.7663 22.1884 19.7671 22.1127 19.7669Z" fill="#8F9EA2"/>
<path d="M18.7368 5.29492L41.7249 28.2831" stroke="#DE1121" stroke-linecap="round"/>
<path d="M69.9508 6.35932C69.9933 6.35916 70.0357 6.35899 70.0795 6.35882C70.1692 6.3587 70.2589 6.35902 70.3486 6.35975C70.4859 6.36068 70.6231 6.35976 70.7604 6.35865C70.8476 6.35876 70.9348 6.35898 71.022 6.35932C71.0631 6.35897 71.1041 6.35862 71.1464 6.35826C71.4306 6.36232 71.4306 6.36232 71.5715 6.46482C71.6382 6.5609 71.6683 6.63635 71.6957 6.74902C71.7591 6.94866 71.8467 7.06123 72.0325 7.16451C72.6028 7.44584 73.2208 7.5593 73.8547 7.56592C73.8886 7.56634 73.9225 7.56677 73.9575 7.5672C75.7518 7.61408 75.7518 7.61408 77.3335 6.90381C77.396 6.79162 77.438 6.68646 77.4741 6.56368C77.5102 6.46931 77.5102 6.46931 77.6427 6.38241C77.7312 6.37079 77.7312 6.37079 77.8333 6.36978C77.8717 6.36923 77.91 6.36867 77.9495 6.3681C78.0114 6.36796 78.0114 6.36796 78.0746 6.36781C78.1171 6.36752 78.1597 6.36723 78.2035 6.36693C78.2934 6.36649 78.3834 6.36629 78.4734 6.3663C78.6111 6.36611 78.7487 6.36454 78.8864 6.36289C78.9738 6.36263 79.0612 6.36246 79.1486 6.36238C79.1898 6.36175 79.231 6.36113 79.2734 6.36049C79.558 6.36247 79.558 6.36247 79.7009 6.46302C79.7837 6.5872 79.7822 6.66643 79.7769 6.8142C79.7758 6.8585 79.7747 6.9028 79.7736 6.94845C79.7679 7.0421 79.7616 7.13576 79.7526 7.22916C79.706 7.73182 79.7081 8.23519 79.7078 8.73959C79.7078 8.78817 79.7078 8.83675 79.7077 8.8868C79.7084 9.58015 79.7152 10.2619 79.8514 10.9447C79.8592 10.9844 79.867 11.0241 79.8751 11.0649C80.0766 12.0504 80.4043 13.0584 81.265 13.6766C81.4355 13.7881 81.6081 13.8739 81.799 13.9462C81.8967 13.9925 81.9478 14.0334 82.016 14.1166C82.0326 14.2118 82.0326 14.2118 82.0328 14.3252C82.0331 14.3684 82.0335 14.4116 82.0339 14.4561C82.0336 14.5037 82.0333 14.5513 82.0331 14.6003C82.0334 14.676 82.0334 14.676 82.0338 14.7532C82.0343 14.8936 82.0342 15.0339 82.0339 15.1742C82.0337 15.3254 82.0343 15.4766 82.0347 15.6279C82.0355 15.9243 82.0355 16.2207 82.0353 16.5171C82.0351 16.7581 82.0352 16.999 82.0354 17.2399C82.0354 17.2742 82.0355 17.3085 82.0355 17.3438C82.0356 17.4134 82.0356 17.483 82.0357 17.5526C82.0363 18.2058 82.0361 18.859 82.0356 19.5122C82.0351 20.1097 82.0357 20.7073 82.0368 21.3049C82.0378 21.9183 82.0383 22.5317 82.038 23.1451C82.0378 23.4895 82.0379 23.834 82.0387 24.1784C82.0393 24.4717 82.0394 24.765 82.0386 25.0583C82.0382 25.208 82.0381 25.3576 82.0388 25.5072C82.0394 25.6695 82.0389 25.8318 82.0381 25.9941C82.0385 26.0413 82.0389 26.0885 82.0394 26.1372C82.0363 26.4503 81.989 26.6479 81.7649 26.8816C80.2026 28.0008 77.5995 27.9387 75.7446 27.9426C75.7037 27.9427 75.6629 27.9429 75.6209 27.943C75.4039 27.9436 75.1869 27.944 74.97 27.9442C74.7953 27.9444 74.6206 27.945 74.4458 27.946C68.7257 27.978 68.7257 27.978 67.3058 26.8475C67.1399 26.6629 67.0796 26.536 67.079 26.291C67.0788 26.2477 67.0786 26.2044 67.0784 26.1598C67.0785 26.0883 67.0785 26.0883 67.0785 26.0153C67.0783 25.9647 67.0781 25.9142 67.078 25.8621C67.0776 25.7215 67.0774 25.581 67.0772 25.4404C67.0771 25.2889 67.0767 25.1374 67.0763 24.9859C67.0754 24.62 67.0749 24.2541 67.0746 23.8882C67.0744 23.7159 67.0741 23.5437 67.0739 23.3715C67.0731 22.7991 67.0725 22.2268 67.0722 21.6545C67.0721 21.5059 67.072 21.3574 67.0719 21.2089C67.0719 21.1535 67.0719 21.1535 67.0719 21.097C67.0715 20.4985 67.0704 19.9001 67.0689 19.3016C67.0675 18.6874 67.0667 18.0733 67.0665 17.4591C67.0664 17.1142 67.0661 16.7693 67.0649 16.4243C67.064 16.1307 67.0636 15.837 67.064 15.5434C67.0642 15.3935 67.0642 15.2436 67.0633 15.0937C67.0625 14.9314 67.0628 14.7691 67.0634 14.6067C67.0629 14.5591 67.0624 14.5115 67.062 14.4625C67.0647 14.1444 67.0647 14.1444 67.1684 14.0018C67.2673 13.9392 67.357 13.8999 67.4687 13.864C68.0904 13.6318 68.5008 13.1003 68.7703 12.5232C68.9715 12.0701 69.1147 11.6051 69.2164 11.1212C69.2231 11.0897 69.2297 11.0582 69.2366 11.0258C69.3733 10.3209 69.3953 9.61466 69.3911 8.89898C69.3903 8.75516 69.3902 8.61134 69.3902 8.46751C69.3895 8.01627 69.3818 7.57043 69.3379 7.12106C69.3316 7.01886 69.3266 6.91655 69.3241 6.8142C69.3216 6.74623 69.3216 6.74623 69.3191 6.67689C69.3379 6.55621 69.3379 6.55621 69.4001 6.46321C69.5751 6.33966 69.7404 6.35752 69.9508 6.35932ZM70.133 7.07761C70.1337 7.15725 70.1344 7.23689 70.1351 7.31894C70.1373 7.58723 70.1388 7.85551 70.1399 8.1238C70.1406 8.28587 70.1415 8.44793 70.143 8.61C70.1522 9.61553 70.1362 10.6221 69.8762 11.6019C69.8649 11.6464 69.8535 11.691 69.8417 11.7369C69.5855 12.7095 69.1565 13.7129 68.2777 14.2904C68.2424 14.3063 68.2072 14.3222 68.1709 14.3386C67.936 14.4486 67.936 14.4486 67.7947 14.6521C67.779 14.7791 67.7775 14.9001 67.7804 15.028C67.7798 15.0761 67.7792 15.1243 67.7785 15.1739C67.777 15.3354 67.7786 15.4967 67.7802 15.6581C67.7797 15.7738 67.7791 15.8895 67.7783 16.0052C67.7766 16.2869 67.7774 16.5685 67.779 16.8501C67.7802 17.079 67.7806 17.3079 67.7803 17.5368C67.7802 17.5694 67.7802 17.602 67.7801 17.6355C67.78 17.7017 67.7799 17.7679 67.7799 17.8341C67.7791 18.4193 67.7806 19.0045 67.7832 19.5896C67.7857 20.1575 67.7864 20.7253 67.785 21.2932C67.7835 21.9116 67.7832 22.53 67.7847 23.1484C67.7849 23.2143 67.785 23.2803 67.7852 23.3462C67.7853 23.3786 67.7854 23.4111 67.7854 23.4445C67.7859 23.6731 67.7856 23.9018 67.7851 24.1304C67.7844 24.409 67.785 24.6876 67.7872 24.9662C67.7883 25.1084 67.7887 25.2505 67.7879 25.3926C67.7871 25.5467 67.7885 25.7006 67.7905 25.8547C67.7897 25.8997 67.789 25.9447 67.7883 25.9911C67.7899 26.2185 67.7899 26.2185 67.9118 26.4011C68.1025 26.5221 68.3109 26.5962 68.5289 26.6547C68.5775 26.6681 68.5775 26.6681 68.627 26.6817C70.193 27.0983 71.8661 27.1745 73.4792 27.2223C73.5095 27.2232 73.5399 27.2241 73.5711 27.225C77.5477 27.4388 77.5477 27.4388 81.2208 26.3696C81.2903 26.3012 81.2713 26.233 81.2721 26.138C81.2726 26.0971 81.2731 26.0562 81.2736 26.0141C81.2739 25.9687 81.2742 25.9233 81.2745 25.8765C81.2749 25.8287 81.2754 25.7808 81.2759 25.7315C81.2774 25.5698 81.2786 25.4082 81.2798 25.2465C81.2806 25.1605 81.2813 25.0745 81.2821 24.9885C81.2916 23.9047 81.2966 22.8208 81.3007 21.737C81.3012 21.5958 81.3017 21.4546 81.3023 21.3135C81.3025 21.2608 81.3025 21.2608 81.3027 21.2072C81.305 20.6391 81.3096 20.0711 81.3151 19.5032C81.3207 18.9201 81.3239 18.3371 81.325 17.754C81.3256 17.4265 81.3273 17.0992 81.3317 16.7718C81.3355 16.4928 81.3371 16.2139 81.336 15.935C81.3356 15.7926 81.3364 15.6505 81.3393 15.5082C81.3768 14.9646 81.3768 14.9646 81.2039 14.4682C81.0388 14.3176 80.8534 14.2415 80.6465 14.16C79.7031 13.526 79.3408 12.2188 79.1336 11.181C79.1269 11.1477 79.1202 11.1145 79.1133 11.0803C79.0916 10.9629 79.0735 10.8455 79.0563 10.7274C79.0483 10.6744 79.0403 10.6214 79.032 10.5668C78.9407 9.89308 78.9577 9.21405 78.9618 8.53597C78.9628 8.37106 78.9632 8.20615 78.9636 8.04124C78.9645 7.72003 78.9661 7.39882 78.9679 7.07761C78.7055 7.07761 78.4431 7.07761 78.1728 7.07761C78.1626 7.1511 78.1524 7.22458 78.1419 7.3003C77.9564 8.59031 77.5855 9.77069 76.5383 10.6405C75.7946 11.1794 74.9464 11.3863 74.0361 11.2721C73.4414 11.1612 72.9445 10.9244 72.4743 10.5536C72.4278 10.5196 72.3813 10.4855 72.3334 10.4504C71.3752 9.57076 71.0876 8.3036 70.9281 7.07761C70.6658 7.07761 70.4034 7.07761 70.133 7.07761ZM77.0021 7.91403C76.7637 8.0054 76.5285 8.07391 76.2788 8.12857C76.2487 8.13528 76.2186 8.14198 76.1876 8.14889C75.6101 8.26979 75.0427 8.30942 74.4543 8.30794C74.3414 8.3078 74.2285 8.30882 74.1156 8.30992C73.3942 8.31269 72.7171 8.21877 72.0337 7.98956C71.9094 7.94212 71.9094 7.94212 71.8116 7.94662C71.953 8.77965 72.3852 9.61543 73.0927 10.1191C73.6548 10.5007 74.2673 10.6793 74.9491 10.5771C75.6828 10.4161 76.2973 9.99427 76.715 9.38048C77.0184 8.9007 77.2508 8.37871 77.3335 7.81627C77.2081 7.81627 77.1178 7.86635 77.0021 7.91403Z" fill="#8F9EA2"/>
<path d="M64.7251 5.29492L87.7132 28.2831" stroke="#DE1121" stroke-linecap="round"/>
<path d="M121.926 6.19935C121.96 6.21459 121.995 6.22982 122.03 6.24552C122.636 6.54204 123.078 7.09129 123.294 7.71401C123.41 8.13302 123.396 8.55 123.383 8.98018C123.41 8.98729 123.437 8.9944 123.464 9.00172C123.748 9.08085 124.01 9.18324 124.275 9.30877C124.315 9.32775 124.356 9.34674 124.397 9.3663C124.951 9.63377 125.436 9.97373 125.901 10.3706C125.938 10.4008 125.974 10.431 126.011 10.4621C127.118 11.411 127.885 12.6589 128.301 14.0394C128.311 14.0725 128.321 14.1055 128.331 14.1395C128.563 14.9559 128.569 15.7751 128.56 16.6166C128.56 16.7277 128.559 16.8389 128.558 16.9501C128.557 17.2191 128.555 17.4881 128.552 17.7571C128.603 17.7563 128.654 17.7554 128.707 17.7545C128.774 17.7538 128.842 17.7531 128.91 17.7524C128.944 17.7518 128.977 17.7511 129.012 17.7505C129.466 17.7471 129.823 17.9065 130.164 18.1998C130.542 18.6179 130.641 18.9654 130.641 19.5148C130.641 19.5641 130.642 19.6134 130.642 19.6642C130.643 19.8267 130.643 19.9892 130.643 20.1517C130.643 20.265 130.644 20.3784 130.644 20.4918C130.644 20.7293 130.645 20.9669 130.644 21.2044C130.644 21.478 130.645 21.7515 130.647 22.0251C130.648 22.2893 130.648 22.5536 130.648 22.8179C130.648 22.9298 130.649 23.0417 130.649 23.1536C130.65 23.3105 130.65 23.4674 130.65 23.6243C130.65 23.67 130.651 23.7157 130.651 23.7629C130.647 24.2502 130.493 24.6638 130.142 25.0134C129.647 25.4201 129.168 25.4221 128.552 25.4044C128.553 25.4438 128.554 25.4832 128.555 25.5238C128.558 25.6725 128.56 25.8211 128.562 25.9698C128.562 26.0337 128.564 26.0976 128.565 26.1614C128.579 26.762 128.499 27.2554 128.066 27.7073C127.783 27.9937 127.412 28.2545 126.993 28.2777C126.938 28.2778 126.938 28.2778 126.881 28.278C126.837 28.2782 126.794 28.2783 126.75 28.2785C126.703 28.2785 126.655 28.2785 126.607 28.2785C126.556 28.2787 126.506 28.2788 126.454 28.279C126.285 28.2795 126.116 28.2797 125.946 28.2798C125.825 28.2801 125.704 28.2804 125.583 28.2807C125.219 28.2815 124.855 28.282 124.491 28.2824C124.32 28.2826 124.149 28.2828 123.977 28.283C123.407 28.2838 122.837 28.2844 122.267 28.2847C122.119 28.2848 121.971 28.2849 121.823 28.285C121.786 28.285 121.749 28.285 121.712 28.285C121.116 28.2854 120.521 28.2865 119.926 28.2879C119.314 28.2893 118.703 28.2901 118.091 28.2902C117.748 28.2903 117.405 28.2907 117.062 28.2918C116.77 28.2928 116.477 28.2931 116.185 28.2927C116.036 28.2925 115.887 28.2927 115.738 28.2934C115.576 28.2942 115.414 28.2939 115.252 28.2933C115.182 28.294 115.182 28.294 115.111 28.2948C114.58 28.2903 114.167 28.111 113.792 27.7461C113.434 27.3696 113.255 26.9844 113.259 26.461C113.259 26.4305 113.259 26.4001 113.259 26.3687C113.26 26.2727 113.261 26.1767 113.262 26.0806C113.262 26.015 113.263 25.9494 113.263 25.8838C113.264 25.724 113.266 25.5642 113.268 25.4044C113.216 25.4064 113.164 25.4084 113.111 25.4105C112.552 25.4259 112.121 25.3783 111.677 25.0127C111.335 24.6789 111.178 24.2905 111.173 23.8217C111.173 23.7522 111.173 23.7522 111.173 23.6813C111.173 23.6316 111.173 23.5818 111.173 23.5306C111.172 23.3669 111.172 23.2033 111.172 23.0396C111.172 22.9253 111.172 22.811 111.171 22.6967C111.171 22.4574 111.171 22.2181 111.172 21.9787C111.172 21.7031 111.171 21.4275 111.17 21.1519C111.169 20.8856 111.169 20.6193 111.169 20.3529C111.169 20.2402 111.169 20.1274 111.169 20.0147C111.168 19.8566 111.168 19.6986 111.169 19.5406C111.169 19.4945 111.168 19.4484 111.168 19.4009C111.172 18.9396 111.307 18.5307 111.633 18.1916C111.961 17.8804 112.358 17.7478 112.809 17.7509C112.859 17.7518 112.859 17.7518 112.91 17.7527C112.962 17.7532 112.962 17.7532 113.015 17.7537C113.099 17.7545 113.183 17.7558 113.268 17.7571C113.267 17.7295 113.267 17.7019 113.266 17.6734C113.262 17.3801 113.26 17.0868 113.258 16.7934C113.257 16.6846 113.256 16.5758 113.254 16.4671C113.229 14.6463 113.674 12.8923 114.858 11.4568C114.877 11.4337 114.896 11.4106 114.915 11.3868C115.359 10.8513 115.839 10.3894 116.404 9.97953C116.429 9.96116 116.454 9.94279 116.48 9.92386C116.831 9.66997 117.201 9.47051 117.594 9.28433C117.637 9.26394 117.68 9.24355 117.724 9.22255C117.959 9.11407 118.181 9.03221 118.436 8.98018C118.434 8.92865 118.432 8.87712 118.43 8.82403C118.406 7.98761 118.554 7.31225 119.159 6.68002C119.876 6.0201 121.022 5.76973 121.926 6.19935ZM119.673 7.50286C119.467 7.82609 119.356 8.11257 119.361 8.49408C119.361 8.53648 119.362 8.57887 119.362 8.62256C119.363 8.65454 119.363 8.68652 119.364 8.71947C119.425 8.71082 119.425 8.71082 119.487 8.70199C120.489 8.56865 121.453 8.58848 122.456 8.71947C122.482 8.21162 122.39 7.81447 122.058 7.41596C121.762 7.09858 121.443 6.93698 121.002 6.91754C120.438 6.90992 120.045 7.0774 119.673 7.50286ZM116.536 11.0658C116.494 11.1015 116.452 11.1371 116.409 11.1739C115.474 11.981 114.801 13.0377 114.438 14.2078C114.428 14.2388 114.419 14.2698 114.409 14.3018C114.198 15.0389 114.176 15.7665 114.177 16.5271C114.177 16.6376 114.177 16.748 114.176 16.8584C114.176 17.1252 114.176 17.392 114.176 17.6588C114.176 17.8757 114.176 18.0926 114.176 18.3095C114.176 18.3405 114.176 18.3715 114.176 18.4035C114.176 18.4665 114.175 18.5296 114.175 18.5926C114.175 19.1815 114.175 19.7703 114.176 20.3592C114.176 20.8974 114.175 21.4356 114.174 21.9738C114.173 22.5278 114.173 23.0819 114.173 23.636C114.173 23.9465 114.173 24.257 114.172 24.5675C114.172 24.859 114.172 25.1505 114.173 25.4421C114.173 25.549 114.173 25.6559 114.172 25.7628C114.172 25.9088 114.172 26.0547 114.173 26.2007C114.173 26.2429 114.172 26.2852 114.172 26.3287C114.175 26.6341 114.243 26.8679 114.451 27.1C114.476 27.1194 114.501 27.1387 114.526 27.1587C114.564 27.1888 114.564 27.1888 114.602 27.2195C114.907 27.4258 115.235 27.4095 115.592 27.4089C115.639 27.409 115.686 27.4091 115.735 27.4092C115.893 27.4095 116.051 27.4095 116.21 27.4094C116.323 27.4096 116.437 27.4097 116.55 27.4099C116.827 27.4102 117.103 27.4104 117.379 27.4104C117.604 27.4104 117.828 27.4105 118.053 27.4106C118.69 27.411 119.327 27.4112 119.964 27.4112C119.999 27.4112 120.033 27.4112 120.068 27.4112C120.103 27.4112 120.137 27.4112 120.172 27.4112C120.729 27.4111 121.287 27.4116 121.844 27.4122C122.416 27.4128 122.988 27.4131 123.56 27.4131C123.882 27.4131 124.203 27.4132 124.524 27.4136C124.826 27.4141 125.128 27.4141 125.43 27.4137C125.541 27.4137 125.652 27.4138 125.762 27.4141C125.914 27.4144 126.065 27.4142 126.216 27.4139C126.282 27.4142 126.282 27.4142 126.349 27.4145C126.742 27.4126 127.087 27.3683 127.377 27.0808C127.625 26.804 127.637 26.5715 127.636 26.2183C127.636 26.1729 127.636 26.1276 127.636 26.0808C127.637 25.9285 127.637 25.7762 127.636 25.6238C127.637 25.5147 127.637 25.4056 127.637 25.2964C127.638 25.0305 127.638 24.7645 127.638 24.4985C127.638 24.282 127.638 24.0655 127.638 23.849C127.638 23.8027 127.638 23.8027 127.638 23.7555C127.638 23.6929 127.638 23.6302 127.638 23.5675C127.638 22.9795 127.638 22.3914 127.638 21.8034C127.638 21.267 127.638 20.7306 127.639 20.1943C127.64 19.6425 127.64 19.0908 127.64 18.539C127.64 18.2297 127.64 17.9203 127.641 17.611C127.642 17.3195 127.641 17.028 127.641 16.7365C127.641 16.63 127.641 16.5236 127.641 16.4172C127.644 15.6659 127.609 14.9284 127.381 14.2051C127.37 14.1702 127.36 14.1353 127.348 14.0993C127.132 13.4429 126.812 12.7895 126.387 12.239C126.36 12.2029 126.332 12.1669 126.304 12.1298C125.572 11.2018 124.691 10.5096 123.604 10.023C123.552 9.99929 123.499 9.9756 123.445 9.95119C121.152 8.98469 118.409 9.47859 116.536 11.0658ZM112.311 18.8667C112.178 19.0379 112.114 19.1268 112.112 19.3407C112.112 19.3813 112.112 19.422 112.112 19.4638C112.111 19.5085 112.111 19.5532 112.111 19.5993C112.111 19.6463 112.111 19.6933 112.11 19.7417C112.109 19.8978 112.109 20.0538 112.108 20.2099C112.108 20.2631 112.108 20.3163 112.108 20.3712C112.107 20.6239 112.106 20.8766 112.106 21.1293C112.106 21.3918 112.105 21.6542 112.103 21.9167C112.102 22.1982 112.101 22.4797 112.1 22.7613C112.1 22.8686 112.1 22.9759 112.099 23.0832C112.098 23.2336 112.098 23.3838 112.098 23.5341C112.098 23.5784 112.097 23.6227 112.096 23.6683C112.098 23.9379 112.134 24.0983 112.296 24.3181C112.606 24.5823 112.809 24.4919 113.268 24.4919C113.268 22.5706 113.268 20.6492 113.268 18.6696C112.728 18.6294 112.728 18.6294 112.311 18.8667ZM128.552 18.6696C128.552 20.591 128.552 22.5124 128.552 24.4919C129.112 24.5371 129.112 24.5371 129.524 24.3181C129.714 24.059 129.726 23.8512 129.723 23.5369C129.724 23.4898 129.724 23.4427 129.724 23.3942C129.725 23.2391 129.724 23.084 129.724 22.9289C129.724 22.8209 129.724 22.7128 129.724 22.6048C129.725 22.3786 129.724 22.1524 129.723 21.9262C129.723 21.694 129.723 21.4619 129.723 21.2297C129.724 20.949 129.725 20.6684 129.724 20.3877C129.724 20.2808 129.724 20.1739 129.725 20.0671C129.725 19.9177 129.724 19.7684 129.723 19.6191C129.724 19.575 129.724 19.5309 129.724 19.4854C129.721 19.2345 129.697 19.0844 129.524 18.8869C129.197 18.5968 129.061 18.6696 128.552 18.6696Z" fill="#8F9EA2"/>
<path d="M117.701 18.7021C117.778 18.7019 117.856 18.7017 117.933 18.7015C118.143 18.7009 118.353 18.7009 118.563 18.701C118.738 18.701 118.914 18.7008 119.089 18.7006C119.504 18.7001 119.918 18.7001 120.332 18.7004C120.759 18.7006 121.185 18.7001 121.612 18.6992C121.979 18.6984 122.346 18.6981 122.713 18.6983C122.932 18.6984 123.15 18.6982 123.369 18.6976C123.575 18.6971 123.781 18.6972 123.987 18.6977C124.062 18.6978 124.137 18.6977 124.213 18.6974C124.934 18.6942 125.514 18.7871 126.065 19.2789C126.401 19.6246 126.613 20.0776 126.615 20.5575C126.615 20.6277 126.615 20.6277 126.616 20.6993C126.616 20.7502 126.616 20.8011 126.616 20.8535C126.617 20.9074 126.617 20.9613 126.617 21.0169C126.618 21.1952 126.618 21.3736 126.619 21.5519C126.619 21.6134 126.619 21.6749 126.619 21.7364C126.62 22.0252 126.621 22.3141 126.621 22.6029C126.622 22.936 126.623 23.2691 126.625 23.6022C126.626 23.86 126.627 24.1177 126.627 24.3755C126.627 24.5294 126.627 24.6832 126.628 24.8371C126.63 25.0086 126.629 25.1801 126.629 25.3516C126.63 25.4279 126.63 25.4279 126.631 25.5058C126.629 25.8499 126.629 25.8499 126.524 26.0225C126.396 26.1306 126.328 26.1495 126.163 26.1499C126.125 26.1501 126.088 26.1503 126.049 26.1505C125.986 26.1505 125.986 26.1505 125.922 26.1505C125.877 26.1506 125.833 26.1508 125.787 26.151C125.638 26.1514 125.489 26.1516 125.339 26.1518C125.233 26.152 125.126 26.1523 125.019 26.1526C124.698 26.1535 124.377 26.1539 124.056 26.1543C123.905 26.1545 123.754 26.1547 123.603 26.155C123.101 26.1557 122.599 26.1563 122.097 26.1567C121.967 26.1567 121.836 26.1568 121.706 26.1569C121.674 26.1569 121.641 26.1569 121.608 26.157C121.083 26.1573 120.558 26.1584 120.033 26.1598C119.495 26.1613 118.956 26.1621 118.417 26.1622C118.115 26.1623 117.812 26.1627 117.51 26.1638C117.225 26.1648 116.941 26.165 116.656 26.1645C116.551 26.1645 116.447 26.1648 116.342 26.1654C116.2 26.1661 116.057 26.1658 115.915 26.1653C115.873 26.1657 115.832 26.1662 115.789 26.1667C115.602 26.1649 115.503 26.1603 115.341 26.0613C115.212 25.9238 115.206 25.848 115.205 25.6647C115.205 25.6184 115.205 25.5721 115.204 25.5244C115.204 25.4734 115.204 25.4224 115.204 25.3699C115.204 25.3163 115.204 25.2627 115.204 25.2076C115.203 25.0603 115.203 24.9131 115.203 24.7658C115.202 24.6737 115.202 24.5816 115.202 24.4895C115.201 24.201 115.201 23.9126 115.201 23.6241C115.201 23.2917 115.2 22.9593 115.199 22.627C115.198 22.3698 115.197 22.1126 115.197 21.8553C115.197 21.7019 115.197 21.5485 115.196 21.395C115.195 21.2234 115.195 21.0518 115.196 20.8802C115.195 20.8299 115.195 20.7796 115.194 20.7278C115.197 20.1401 115.384 19.6791 115.791 19.2463C116.341 18.7324 116.987 18.701 117.701 18.7021ZM116.463 19.8952C116.437 19.9275 116.41 19.9598 116.382 19.9931C116.354 20.0253 116.326 20.0576 116.298 20.0907C116.119 20.3459 116.127 20.5756 116.129 20.876C116.129 20.9239 116.129 20.9717 116.129 21.021C116.129 21.1756 116.13 21.3302 116.13 21.4849C116.131 21.5804 116.131 21.676 116.131 21.7715C116.131 22.1256 116.132 22.4796 116.134 22.8337C116.135 23.625 116.137 24.4163 116.139 25.2316C119.288 25.2316 122.437 25.2316 125.681 25.2316C125.684 24.443 125.688 23.6544 125.692 22.8419C125.693 22.5932 125.695 22.3446 125.697 22.0884C125.697 21.8648 125.697 21.8648 125.698 21.6411C125.698 21.5418 125.698 21.4425 125.699 21.3432C125.701 21.1924 125.701 21.0416 125.701 20.8908C125.702 20.8249 125.702 20.8249 125.703 20.7577C125.701 20.4394 125.632 20.2102 125.422 19.9651C125.381 19.9306 125.381 19.9306 125.338 19.8954C125.311 19.8718 125.284 19.8482 125.256 19.8239C124.877 19.5829 124.485 19.6077 124.05 19.609C123.975 19.6087 123.899 19.6084 123.823 19.6081C123.617 19.6073 123.412 19.6073 123.206 19.6076C123.034 19.6077 122.862 19.6075 122.69 19.6072C122.285 19.6066 121.879 19.6067 121.473 19.6071C121.055 19.6076 120.637 19.607 120.22 19.6059C119.86 19.6049 119.501 19.6046 119.141 19.6049C118.927 19.605 118.713 19.6049 118.498 19.6042C118.297 19.6035 118.095 19.6037 117.893 19.6045C117.82 19.6046 117.746 19.6045 117.672 19.6041C117.23 19.6015 116.822 19.6057 116.463 19.8952Z" fill="#8F9EA2"/>
<path d="M125.011 12.1446C126.004 13.1171 126.606 14.4971 126.622 15.8745C126.624 15.9107 126.625 15.9469 126.626 15.9842C126.628 16.1644 126.624 16.2571 126.525 16.4132C126.383 16.5445 126.279 16.5598 126.083 16.558C125.917 16.5304 125.84 16.4437 125.725 16.3253C125.686 16.2106 125.673 16.1303 125.665 16.0117C125.584 14.9107 125.274 13.9815 124.576 13.11C124.548 13.0744 124.52 13.0389 124.492 13.0022C123.734 12.1028 122.512 11.5534 121.35 11.435C120.174 11.337 118.918 11.6596 117.994 12.3985C117.921 12.4616 117.847 12.525 117.774 12.5886C117.747 12.6088 117.72 12.629 117.692 12.6499C116.816 13.3145 116.335 14.4996 116.183 15.5432C116.167 15.7155 116.159 15.8872 116.155 16.0602C116.133 16.2448 116.059 16.3568 115.932 16.491C115.782 16.5668 115.639 16.5722 115.476 16.5426C115.352 16.4646 115.277 16.4114 115.211 16.2819C115.114 14.8186 115.672 13.4286 116.641 12.3313C117.642 11.2249 119.04 10.5957 120.532 10.4704C122.234 10.3881 123.785 10.9856 125.011 12.1446Z" fill="#8F9EA2"/>
<path d="M110.713 5.28516L133.702 28.2733" stroke="#DE1121" stroke-linecap="round"/>
<path d="M164.662 5.99449C164.691 5.99416 164.72 5.99382 164.75 5.99347C164.848 5.9926 164.946 5.99329 165.043 5.99397C165.114 5.99368 165.184 5.99329 165.254 5.99282C165.444 5.99183 165.635 5.99221 165.825 5.9929C166.024 5.99345 166.224 5.99294 166.423 5.9926C166.758 5.9922 167.092 5.99272 167.427 5.99376C167.814 5.99494 168.201 5.99456 168.588 5.99336C168.92 5.99238 169.252 5.99224 169.584 5.99281C169.783 5.99314 169.981 5.99319 170.179 5.99247C170.366 5.99184 170.552 5.99228 170.739 5.99354C170.807 5.99382 170.876 5.99374 170.944 5.99326C171.038 5.99267 171.131 5.99341 171.224 5.99449C171.277 5.99458 171.329 5.99466 171.383 5.99474C171.636 6.04486 171.761 6.25468 171.901 6.45472C171.944 6.51602 171.944 6.51602 171.988 6.57857C172.033 6.6432 172.033 6.6432 172.079 6.70914C172.126 6.77558 172.126 6.77558 172.173 6.84336C172.315 7.04602 172.456 7.24926 172.597 7.45289C172.63 7.50029 172.63 7.50029 172.663 7.54865C172.703 7.60635 172.743 7.66417 172.782 7.72213C172.954 7.97073 173.106 8.11606 173.381 8.24817C173.408 8.26106 173.435 8.27395 173.462 8.28723C173.519 8.31507 173.577 8.34275 173.635 8.37029C173.727 8.41424 173.819 8.45865 173.91 8.5032C174.171 8.62975 174.432 8.75542 174.694 8.88083C174.854 8.95777 175.014 9.03524 175.174 9.11302C175.234 9.14222 175.295 9.17121 175.355 9.19998C176.914 9.94149 177.896 11.1976 178.465 12.7819C178.877 13.9808 179.025 15.2375 179.119 16.4936C179.122 16.5357 179.126 16.5777 179.129 16.6211C179.148 16.8827 179.157 17.1439 179.163 17.4061C179.165 17.462 179.167 17.5179 179.168 17.5754C179.173 17.7327 179.176 17.89 179.178 18.0473C179.179 18.1098 179.181 18.1724 179.183 18.2349C179.198 18.7942 179.198 18.7942 179.057 18.965C178.874 19.112 178.744 19.1066 178.516 19.1056C178.481 19.1056 178.446 19.1056 178.41 19.1056C178.294 19.1056 178.179 19.1052 178.063 19.1049C177.983 19.1048 177.903 19.1047 177.823 19.1047C177.612 19.1045 177.4 19.1041 177.189 19.1036C176.974 19.1032 176.759 19.103 176.544 19.1028C176.121 19.1023 175.699 19.1015 175.276 19.1006C175.276 19.1456 175.276 19.1905 175.276 19.2369C175.279 20.3306 175.282 21.4243 175.283 22.518C175.284 23.0469 175.285 23.5758 175.286 24.1047C175.287 24.5657 175.288 25.0267 175.289 25.4877C175.289 25.7318 175.289 25.9759 175.29 26.22C175.291 26.4498 175.291 26.6795 175.291 26.9093C175.291 26.9936 175.291 27.0779 175.292 27.1622C175.293 27.2774 175.292 27.3926 175.292 27.5078C175.292 27.5411 175.293 27.5743 175.293 27.6086C175.291 27.8302 175.251 27.9856 175.144 28.1818C174.995 28.2789 174.948 28.2796 174.775 28.28C174.725 28.2803 174.676 28.2806 174.625 28.2809C174.57 28.2808 174.516 28.2807 174.46 28.2806C174.373 28.2809 174.373 28.2809 174.285 28.2813C174.125 28.2819 173.964 28.2819 173.804 28.2819C173.631 28.282 173.458 28.2826 173.285 28.2831C172.907 28.2841 172.529 28.2844 172.15 28.2846C171.914 28.2848 171.678 28.285 171.442 28.2854C170.789 28.2862 170.136 28.2869 169.482 28.2871C169.441 28.2871 169.399 28.2871 169.356 28.2871C169.271 28.2871 169.186 28.2871 169.101 28.2871C169.059 28.2871 169.017 28.2871 168.974 28.2871C168.932 28.2872 168.889 28.2872 168.846 28.2872C168.163 28.2873 167.48 28.2885 166.797 28.2901C166.096 28.2918 165.395 28.2926 164.694 28.2926C164.3 28.2927 163.906 28.293 163.512 28.2943C163.177 28.2953 162.842 28.2957 162.507 28.295C162.336 28.2947 162.165 28.2947 161.993 28.2957C161.808 28.2968 161.623 28.2962 161.437 28.2954C161.383 28.2959 161.329 28.2965 161.273 28.2971C160.911 28.2936 160.911 28.2936 160.732 28.1692C160.592 27.9573 160.604 27.7717 160.605 27.5235C160.605 27.4875 160.605 27.4515 160.605 27.4144C160.605 27.2937 160.605 27.1729 160.605 27.0522C160.605 26.9657 160.605 26.8792 160.605 26.7927C160.605 26.5577 160.605 26.3227 160.606 26.0877C160.606 25.8421 160.606 25.5966 160.606 25.3511C160.606 24.886 160.607 24.421 160.607 23.956C160.607 23.4266 160.608 22.8972 160.608 22.3678C160.608 21.2788 160.609 20.1897 160.61 19.1006C160.566 19.1011 160.522 19.1016 160.476 19.1021C160.059 19.1065 159.642 19.1098 159.224 19.1119C159.01 19.113 158.795 19.1146 158.581 19.117C158.374 19.1194 158.167 19.1207 157.959 19.1212C157.881 19.1216 157.802 19.1224 157.723 19.1236C157.612 19.1252 157.501 19.1254 157.391 19.1253C157.358 19.1261 157.326 19.1269 157.292 19.1277C157.039 19.1252 156.938 19.0535 156.767 18.8834C156.662 18.6777 156.714 18.394 156.714 18.1665C156.715 18.1347 156.715 18.1029 156.715 18.0701C156.721 15.3574 156.972 12.2939 158.962 10.234C159.483 9.73822 160.092 9.42718 160.735 9.1108C160.845 9.05658 160.955 9.00215 161.065 8.9477C161.329 8.81681 161.594 8.68621 161.858 8.55578C161.902 8.53399 161.946 8.51219 161.992 8.48974C162.119 8.42729 162.245 8.36498 162.372 8.30272C162.411 8.28369 162.449 8.26465 162.489 8.24505C162.525 8.22758 162.561 8.21011 162.597 8.19211C162.629 8.17679 162.66 8.16148 162.692 8.14571C162.775 8.1077 162.775 8.1077 162.907 8.06425C162.938 7.99219 162.967 7.91968 162.996 7.847C163.063 7.75157 163.131 7.65937 163.203 7.56729C163.452 7.2412 163.684 6.905 163.914 6.56531C163.94 6.52618 163.967 6.48705 163.995 6.44674C164.018 6.41198 164.042 6.37722 164.066 6.3414C164.246 6.10594 164.353 5.99498 164.662 5.99449ZM165.602 6.89109C165.716 7.0794 165.716 7.0794 165.849 7.24582C165.871 7.2701 165.892 7.29438 165.914 7.3194C165.937 7.34474 165.96 7.37009 165.983 7.3962C166.031 7.45059 166.079 7.50501 166.127 7.55948C166.15 7.58621 166.174 7.61294 166.198 7.64048C166.288 7.74405 166.376 7.84962 166.463 7.95562C166.637 8.16599 166.816 8.37156 166.995 8.57676C167.167 8.77274 167.334 8.97205 167.499 9.17274C167.629 9.32776 167.763 9.47861 167.899 9.62846C168.029 9.5715 168.112 9.51401 168.205 9.40731C168.228 9.38064 168.251 9.35397 168.275 9.32649C168.299 9.29799 168.324 9.26949 168.349 9.24012C168.387 9.19603 168.387 9.19603 168.426 9.15104C168.603 8.94643 168.777 8.7393 168.949 8.53066C169.059 8.3975 169.172 8.26601 169.285 8.13486C169.305 8.11137 169.325 8.08788 169.346 8.06369C169.452 7.94152 169.557 7.81958 169.663 7.69781C170.055 7.32064 170.055 7.32064 170.284 6.89109C168.739 6.89109 167.194 6.89109 165.602 6.89109ZM164.586 7.23869C164.507 7.33208 164.507 7.33208 164.426 7.45272C164.394 7.49722 164.363 7.54172 164.331 7.58757C164.299 7.63464 164.266 7.68172 164.232 7.73022C164.2 7.7768 164.167 7.82337 164.134 7.87135C163.904 8.14426 163.904 8.14426 163.799 8.45151C163.841 8.55723 163.894 8.63993 163.959 8.73315C163.985 8.77057 164.012 8.808 164.038 8.84656C164.067 8.88682 164.095 8.92708 164.125 8.96856C164.154 9.0107 164.184 9.05283 164.214 9.09625C164.308 9.23041 164.403 9.36429 164.497 9.49811C164.528 9.54078 164.558 9.58344 164.589 9.6274C164.707 9.79524 164.826 9.96303 164.945 10.1306C165.088 10.3328 165.231 10.5354 165.372 10.7393C165.411 10.7964 165.411 10.7964 165.451 10.8545C165.501 10.9259 165.55 10.9973 165.599 11.0689C165.621 11.1006 165.642 11.1322 165.665 11.1648C165.684 11.1924 165.703 11.2199 165.722 11.2483C165.779 11.3241 165.841 11.3883 165.911 11.4534C165.947 11.4229 165.984 11.3924 166.021 11.361C166.432 11.0176 166.847 10.6819 167.28 10.3671C167.152 10.1687 167.01 9.99254 166.853 9.81584C166.691 9.63227 166.53 9.44795 166.375 9.25913C166.223 9.07543 166.068 8.89522 165.911 8.716C165.722 8.49973 165.536 8.28078 165.353 8.05899C165.202 7.87855 165.047 7.70169 164.89 7.52519C164.723 7.33481 164.723 7.33481 164.674 7.23869C164.645 7.23869 164.616 7.23869 164.586 7.23869ZM171.212 7.23869C171.152 7.30332 171.096 7.37097 171.041 7.43965C170.881 7.63673 170.717 7.8299 170.549 8.0208C170.358 8.23871 170.171 8.45929 169.987 8.68257C169.876 8.81612 169.763 8.94819 169.649 9.0799C169.629 9.10341 169.609 9.12693 169.588 9.15115C169.483 9.27273 169.378 9.39412 169.273 9.51542C169.044 9.77995 168.819 10.0466 168.606 10.3237C168.766 10.4875 168.933 10.6283 169.116 10.7663C169.408 10.9889 169.693 11.219 169.975 11.4534C170.123 11.3189 170.231 11.1708 170.34 11.0053C170.534 10.713 170.735 10.4255 170.939 10.139C171.19 9.78478 171.44 9.42954 171.687 9.07239C171.709 9.04126 171.73 9.01013 171.752 8.97806C171.773 8.94855 171.793 8.91903 171.814 8.88862C171.855 8.83088 171.897 8.77418 171.941 8.71855C171.996 8.64805 172.046 8.5736 172.096 8.49875C172.073 8.33465 171.991 8.22413 171.897 8.08869C171.849 8.02055 171.849 8.02055 171.801 7.95104C171.784 7.92716 171.768 7.90328 171.75 7.87867C171.696 7.80079 171.643 7.72237 171.589 7.64383C171.554 7.59205 171.518 7.54028 171.483 7.48853C171.457 7.45119 171.457 7.45119 171.432 7.4131C171.39 7.35338 171.345 7.29579 171.3 7.23869C171.271 7.23869 171.242 7.23869 171.212 7.23869ZM162.996 9.02016C162.693 9.16755 162.39 9.31523 162.088 9.46328C161.947 9.53204 161.807 9.60071 161.666 9.66914C161.53 9.7354 161.394 9.80192 161.258 9.86861C161.182 9.90592 161.105 9.94296 161.029 9.97999C159.636 10.6649 158.793 11.7029 158.288 13.1316C157.953 14.1255 157.739 15.2276 157.739 16.2764C158.686 16.2764 159.634 16.2764 160.61 16.2764C160.572 15.6602 160.572 15.6602 160.469 15.0598C160.46 15.0154 160.45 14.9711 160.44 14.9255C160.355 14.5481 160.231 14.1997 160.08 13.8431C160.055 13.7825 160.03 13.7217 160.005 13.6607C159.989 13.6193 159.989 13.6193 159.971 13.5771C159.931 13.4385 159.954 13.3279 159.992 13.1914C160.062 13.1028 160.106 13.0663 160.216 13.0342C160.25 13.0305 160.283 13.0268 160.317 13.023C160.351 13.0186 160.384 13.0143 160.418 13.0098C160.562 13.0206 160.63 13.0592 160.743 13.1479C160.804 13.249 160.85 13.339 160.895 13.4467C160.907 13.4772 160.92 13.5077 160.934 13.5392C161.522 14.971 161.521 16.4267 161.52 17.9456C161.521 18.1853 161.522 18.425 161.523 18.6648C161.525 19.3622 161.526 20.0597 161.527 20.7572C161.53 22.3183 161.534 23.8794 161.538 25.4878C165.765 25.4878 169.993 25.4878 174.348 25.4878C174.356 22.3785 174.356 22.3785 174.362 19.2692C174.364 18.6648 174.364 18.6648 174.365 18.3809C174.365 18.1846 174.366 17.9884 174.366 17.7922C174.366 16.2871 174.392 14.858 174.992 13.4467C175.004 13.4181 175.015 13.3895 175.028 13.3601C175.108 13.1837 175.182 13.0919 175.364 13.0176C175.503 13.0051 175.628 13.024 175.762 13.061C175.869 13.15 175.889 13.2201 175.936 13.3489C175.939 13.526 175.89 13.633 175.82 13.7939C175.633 14.2329 175.492 14.6863 175.395 15.1521C175.388 15.1846 175.381 15.2172 175.373 15.2508C175.306 15.5954 175.299 15.9179 175.276 16.2764C176.224 16.2764 177.171 16.2764 178.147 16.2764C178.11 15.6315 178.11 15.6315 178.029 14.9946C178.017 14.9232 178.017 14.9232 178.005 14.8504C177.787 13.5467 177.421 12.2736 176.557 11.2361C176.511 11.1799 176.511 11.1799 176.464 11.1226C175.901 10.4718 175.16 10.1342 174.397 9.761C174.267 9.69713 174.137 9.63284 174.007 9.56858C173.635 9.38489 173.263 9.20219 172.891 9.02016C172.748 9.15491 172.626 9.28826 172.514 9.44821C172.486 9.48837 172.457 9.52852 172.428 9.56989C172.399 9.61252 172.369 9.65515 172.338 9.69907C172.307 9.7434 172.276 9.78774 172.244 9.83342C172.15 9.9677 172.057 10.1022 171.963 10.2368C171.911 10.3117 171.858 10.3867 171.806 10.4617C171.711 10.5977 171.617 10.7339 171.522 10.8702C171.376 11.0812 171.229 11.292 171.081 11.5022C170.976 11.6514 170.873 11.8013 170.771 11.9522C170.749 11.9841 170.727 12.0161 170.705 12.049C170.663 12.1102 170.622 12.1716 170.58 12.2333C170.405 12.4893 170.405 12.4893 170.24 12.5396C170.092 12.5621 169.984 12.5684 169.85 12.495C169.755 12.4265 169.667 12.3537 169.578 12.2789C169.499 12.2164 169.421 12.154 169.343 12.0916C169.259 12.0237 169.175 11.9558 169.092 11.8879C168.971 11.7904 168.849 11.693 168.728 11.5958C168.643 11.5272 168.559 11.458 168.475 11.3884C168.432 11.3534 168.39 11.3184 168.346 11.2823C168.308 11.2505 168.27 11.2188 168.231 11.1861C168.078 11.073 168.078 11.073 167.899 11.0189C167.79 11.0815 167.709 11.1397 167.615 11.2198C167.588 11.2416 167.561 11.2633 167.533 11.2857C167.448 11.3553 167.364 11.4259 167.28 11.4968C167.226 11.5422 167.172 11.5875 167.118 11.6328C167.014 11.7204 166.91 11.8083 166.806 11.8965C166.615 12.0584 166.42 12.2143 166.22 12.3658C166.196 12.3855 166.171 12.4053 166.145 12.4256C165.979 12.5493 165.851 12.562 165.646 12.5396C165.503 12.4844 165.435 12.4241 165.351 12.2988C165.33 12.267 165.308 12.2351 165.286 12.2024C165.262 12.1676 165.239 12.1328 165.215 12.097C165.164 12.0218 165.113 11.9467 165.062 11.8716C165.035 11.8318 165.008 11.792 164.98 11.7511C164.835 11.5388 164.685 11.3292 164.536 11.1194C164.334 10.8338 164.132 10.5481 163.931 10.2612C163.912 10.234 163.893 10.2069 163.874 10.1789C163.773 10.0341 163.672 9.88888 163.572 9.7432C163.54 9.69602 163.54 9.69602 163.507 9.64788C163.466 9.58814 163.425 9.52827 163.384 9.46825C163.365 9.44119 163.346 9.41414 163.327 9.38626C163.311 9.3627 163.295 9.33913 163.278 9.31486C163.193 9.20781 163.095 9.11517 162.996 9.02016ZM157.695 17.1888C157.63 17.5269 157.63 17.5269 157.65 18.1882C158.627 18.1882 159.604 18.1882 160.61 18.1882C160.61 17.8584 160.61 17.5286 160.61 17.1888C159.648 17.1888 158.686 17.1888 157.695 17.1888ZM175.276 17.1888C175.276 17.5186 175.276 17.8484 175.276 18.1882C176.253 18.1882 177.229 18.1882 178.236 18.1882C178.256 17.5269 178.256 17.5269 178.192 17.1888C177.229 17.1888 176.267 17.1888 175.276 17.1888ZM161.538 26.4003C161.538 26.7301 161.538 27.0599 161.538 27.3997C165.765 27.3997 169.993 27.3997 174.348 27.3997C174.348 27.0699 174.348 26.7401 174.348 26.4003C170.121 26.4003 165.893 26.4003 161.538 26.4003Z" fill="#8F9EA2"/>
<path d="M168.075 14.8865C168.322 15.0237 168.322 15.0237 168.385 15.1472C168.409 15.3485 168.413 15.494 168.302 15.6686C168.157 15.8024 168.055 15.8144 167.856 15.8109C167.708 15.7913 167.642 15.7343 167.545 15.6252C167.46 15.4406 167.447 15.3542 167.504 15.1581C167.646 14.9243 167.8 14.8478 168.075 14.8865Z" fill="#8F9EA2"/>
<path d="M168.075 12.41C168.322 12.5472 168.322 12.5472 168.385 12.6707C168.409 12.8719 168.413 13.0175 168.302 13.1921C168.157 13.3258 168.055 13.3379 167.856 13.3343C167.708 13.3148 167.642 13.2577 167.545 13.1486C167.46 12.9641 167.447 12.8776 167.504 12.6815C167.646 12.4477 167.8 12.3712 168.075 12.41Z" fill="#8F9EA2"/>
<path d="M157.376 5.28125L180.364 28.2694" stroke="#DE1121" stroke-linecap="round"/>
<path d="M212.133 6.73922C212.852 7.34952 213.273 8.10329 213.39 9.02308C213.401 9.22546 213.399 9.42707 213.396 9.62964C213.396 9.68852 213.395 9.7474 213.395 9.80628C213.394 9.93203 213.393 10.0578 213.392 10.1835C213.39 10.3831 213.389 10.5826 213.389 10.7821C213.389 10.8329 213.389 10.8329 213.389 10.8848C213.388 10.954 213.388 11.0232 213.388 11.0924C213.387 11.5561 213.385 12.0197 213.38 12.4834C213.377 12.7974 213.375 13.1113 213.376 13.4254C213.376 13.591 213.376 13.7564 213.373 13.922C213.341 14.8282 213.341 14.8282 213.77 15.6044C213.816 15.6502 213.863 15.6955 213.911 15.7398C214.002 15.8282 214.072 15.9277 214.145 16.0308C214.167 16.0619 214.19 16.093 214.213 16.125C214.245 16.1691 214.245 16.1691 214.277 16.2141C214.3 16.2462 214.324 16.2783 214.348 16.3114C214.403 16.3875 214.458 16.4637 214.513 16.54C214.805 16.1576 215.093 15.7726 215.375 15.383C215.397 15.3532 215.418 15.3233 215.441 15.2925C215.46 15.2659 215.479 15.2393 215.499 15.212C215.546 15.1496 215.546 15.1496 215.59 15.1061C215.595 15.029 215.596 14.9516 215.597 14.8743C215.597 14.7989 215.597 14.7989 215.597 14.7219C215.597 14.6662 215.597 14.6105 215.597 14.5531C215.598 14.4943 215.598 14.4354 215.598 14.3765C215.599 14.2493 215.599 14.1221 215.599 13.9949C215.6 13.7932 215.601 13.5915 215.602 13.3898C215.605 12.8162 215.607 12.2425 215.608 11.6688C215.609 11.3523 215.611 11.0357 215.612 10.7192C215.613 10.5519 215.614 10.3845 215.614 10.2172C215.614 10.0592 215.615 9.90124 215.616 9.74325C215.617 9.65874 215.616 9.57423 215.616 9.48972C215.626 8.51387 215.953 7.67079 216.647 6.95392C217.011 6.61463 217.409 6.3732 217.88 6.1988C217.927 6.18083 217.974 6.16285 218.023 6.14432C219.189 5.7712 220.588 6.05134 221.67 6.55294C222.108 6.76645 222.498 7.00931 222.864 7.32851C222.92 7.37455 222.92 7.37455 222.978 7.42152C224.107 8.36054 224.751 9.73203 224.884 11.1521C224.902 11.4822 224.898 11.8125 224.895 12.1428C224.893 12.3033 224.893 12.4637 224.893 12.6242C224.892 13.0798 224.891 13.5354 224.887 13.991C224.885 14.2715 224.884 14.552 224.885 14.8325C224.885 14.9384 224.884 15.0444 224.882 15.1504C224.873 15.8029 224.907 16.199 225.333 16.7138C225.694 17.3976 225.745 18.1213 225.525 18.8547C225.293 19.5198 224.768 20.1059 224.166 20.494C224.146 20.5863 224.146 20.5863 224.149 20.695C224.149 20.7585 224.149 20.7585 224.148 20.8234C224.148 20.8934 224.148 20.8934 224.149 20.9648C224.149 21.0139 224.148 21.0629 224.148 21.1135C224.148 21.2203 224.147 21.3272 224.148 21.4341C224.148 21.6036 224.147 21.7732 224.146 21.9427C224.145 22.3035 224.144 22.6642 224.144 23.025C224.143 23.4412 224.142 23.8575 224.14 24.2738C224.139 24.4401 224.14 24.6064 224.14 24.7727C224.137 25.8418 223.952 26.6751 223.185 27.4852C222.405 28.2184 221.469 28.3007 220.436 28.2942C220.26 28.2933 220.084 28.2942 219.908 28.2953C218.818 28.2965 218.818 28.2965 218.329 28.0978C218.258 28.0695 218.258 28.0695 218.186 28.0406C217.483 27.7449 216.917 27.1583 216.623 26.4786C216.461 26.0467 216.392 25.6383 216.393 25.1807C216.393 25.137 216.393 25.0933 216.393 25.0483C216.394 24.9044 216.394 24.7605 216.394 24.6167C216.394 24.5167 216.394 24.4167 216.394 24.3168C216.395 24.054 216.395 23.7913 216.396 23.5286C216.396 23.2603 216.396 22.9921 216.396 22.7239C216.397 22.1978 216.398 21.6718 216.399 21.1457C216.371 21.1326 216.342 21.1196 216.314 21.1061C216.214 21.0564 216.147 21.0025 216.067 20.928C216.039 20.9023 216.011 20.8767 215.982 20.8503C215.953 20.8233 215.924 20.7962 215.893 20.7682C215.833 20.7127 215.772 20.6571 215.711 20.6016C215.682 20.5752 215.654 20.5487 215.624 20.5215C215.445 20.3591 215.257 20.2056 215.071 20.0506C214.866 19.8764 214.701 19.7193 214.558 19.4946C214.528 19.4946 214.498 19.4946 214.468 19.4946C214.407 19.565 214.407 19.565 214.342 19.6575C214.051 20.0305 213.667 20.3294 213.303 20.633C213.139 20.7723 212.98 20.9173 212.821 21.0614C212.717 21.1457 212.717 21.1457 212.627 21.1457C212.628 21.2278 212.628 21.2278 212.628 21.3115C212.631 21.8293 212.633 22.347 212.634 22.8648C212.635 23.1309 212.636 23.397 212.637 23.6631C212.639 23.9203 212.64 24.1776 212.64 24.4348C212.64 24.5325 212.641 24.6302 212.641 24.728C212.649 25.8105 212.469 26.6627 211.691 27.4852C210.911 28.2184 209.975 28.3007 208.942 28.2942C208.766 28.2933 208.59 28.2942 208.414 28.2953C207.324 28.2965 207.324 28.2965 206.835 28.0978C206.764 28.0695 206.764 28.0695 206.692 28.0406C205.989 27.7449 205.423 27.1583 205.129 26.4786C204.959 26.0262 204.898 25.6067 204.903 25.1278C204.904 25.0255 204.905 24.9233 204.905 24.821C204.906 24.767 204.906 24.713 204.907 24.6573C204.909 24.3406 204.909 24.0238 204.909 23.7071C204.909 23.3724 204.91 23.0377 204.914 22.703C204.917 22.408 204.917 22.113 204.916 21.818C204.916 21.7058 204.917 21.5936 204.919 21.4815C204.96 20.8766 204.96 20.8766 204.752 20.3307C204.637 20.2173 204.508 20.1377 204.366 20.0595C203.794 19.6341 203.482 19.0049 203.378 18.3215C203.318 17.672 203.449 17.0425 203.827 16.4965C203.849 16.4734 203.87 16.4503 203.892 16.4264C204.114 16.1793 204.134 15.9836 204.129 15.6639C204.129 15.6164 204.129 15.569 204.13 15.5201C204.13 15.3637 204.129 15.2073 204.128 15.051C204.128 14.9414 204.128 14.8319 204.129 14.7223C204.129 14.4632 204.129 14.2042 204.128 13.9451C204.126 13.4557 204.126 12.9664 204.128 12.477C204.128 12.3175 204.127 12.1581 204.126 11.9986C204.123 10.2536 204.646 8.78154 205.92 7.51589C207.501 6.06341 210.297 5.33503 212.133 6.73922ZM208.631 6.93746C208.576 6.95225 208.521 6.96703 208.464 6.98227C207.199 7.35634 206.141 8.21886 205.519 9.34352C205.041 10.2415 204.927 11.1384 204.936 12.1371C204.937 12.2197 204.937 12.3023 204.937 12.3849C204.937 12.5992 204.939 12.8136 204.94 13.0279C204.942 13.2479 204.942 13.4678 204.943 13.6878C204.944 14.1171 204.947 14.5464 204.949 14.9758C205.065 14.8654 205.165 14.76 205.255 14.6289C205.29 14.5792 205.29 14.5792 205.325 14.5285C205.361 14.4757 205.361 14.4757 205.398 14.4218C205.586 14.1521 205.778 13.8873 205.982 13.6288C206.205 13.3456 206.414 13.0546 206.62 12.7598C206.79 12.5181 206.965 12.2813 207.144 12.0466C207.33 11.8038 207.51 11.5573 207.69 11.31C207.711 11.2806 207.732 11.2512 207.754 11.2209C207.773 11.195 207.792 11.1691 207.811 11.1424C207.868 11.0652 207.868 11.0652 207.941 10.9817C208.015 10.873 208.019 10.8112 208.019 10.6822C208.02 10.642 208.021 10.6018 208.021 10.5605C208.022 10.5182 208.022 10.476 208.022 10.4325C208.033 10.0169 208.087 9.69766 208.3 9.33266C208.597 9.07585 208.9 8.98493 209.296 9.00254C209.571 9.04197 209.787 9.1293 209.973 9.33266C210.188 9.62974 210.254 9.87805 210.246 10.2372C210.24 10.7783 210.346 11.0668 210.716 11.4638C210.839 11.6024 210.943 11.7538 211.05 11.9044C211.095 11.9667 211.14 12.029 211.186 12.0912C211.209 12.1225 211.231 12.1538 211.255 12.1861C211.398 12.3818 211.544 12.5758 211.69 12.7701C211.815 12.9369 211.938 13.1043 212.061 13.2729C212.085 13.3066 212.11 13.3404 212.135 13.3752C212.181 13.4395 212.228 13.5038 212.274 13.5683C212.295 13.5972 212.316 13.6261 212.337 13.6558C212.355 13.6811 212.373 13.7064 212.392 13.7324C212.45 13.8059 212.514 13.8682 212.582 13.933C212.586 13.3161 212.59 12.6993 212.592 12.0825C212.592 11.796 212.594 11.5095 212.596 11.223C212.598 10.9461 212.599 10.6692 212.599 10.3922C212.6 10.287 212.6 10.1819 212.601 10.0767C212.61 9.04114 212.483 8.25232 211.741 7.46311C211.551 7.28434 211.335 7.16937 211.101 7.05423C211.071 7.03955 211.041 7.02487 211.01 7.00974C210.628 6.83029 210.283 6.79131 209.863 6.79353C209.791 6.79385 209.791 6.79385 209.718 6.79418C209.34 6.7996 208.996 6.83772 208.631 6.93746ZM218.06 6.98091C218.018 6.99883 217.976 7.01676 217.933 7.03522C217.259 7.3563 216.865 7.88081 216.58 8.53579C216.461 8.89028 216.431 9.23105 216.433 9.60204C216.433 9.64915 216.433 9.69625 216.433 9.74478C216.433 9.899 216.434 10.0532 216.435 10.2074C216.435 10.315 216.435 10.4225 216.435 10.53C216.435 10.8118 216.436 11.0937 216.437 11.3756C216.438 11.6636 216.439 11.9517 216.439 12.2398C216.44 12.8042 216.442 13.3686 216.443 13.933C216.561 13.8206 216.664 13.7117 216.758 13.5796C216.782 13.545 216.807 13.5103 216.833 13.4747C216.859 13.4377 216.885 13.4008 216.912 13.3627C216.968 13.2839 217.025 13.2053 217.081 13.1266C217.11 13.0869 217.138 13.0473 217.168 13.0064C217.293 12.8332 217.421 12.662 217.549 12.491C217.764 12.2043 217.978 11.9171 218.186 11.6252C218.281 11.4929 218.373 11.3707 218.486 11.2521C218.77 10.9486 218.771 10.6551 218.765 10.2613C218.761 9.90714 218.848 9.64119 219.031 9.33538C219.28 9.11364 219.54 9.00945 219.878 8.99592C220.164 9.00864 220.391 9.06858 220.619 9.24033C220.903 9.54555 220.986 9.85959 220.972 10.2624C220.96 10.8405 221.146 11.1485 221.525 11.579C221.658 11.7328 221.776 11.896 221.896 12.0592C221.944 12.1242 221.993 12.1893 222.042 12.2544C222.225 12.5013 222.404 12.7508 222.584 13.0002C222.783 13.2754 222.985 13.548 223.188 13.8195C223.385 14.0813 223.577 14.3454 223.768 14.6111C223.789 14.64 223.81 14.6689 223.831 14.6986C223.849 14.7239 223.867 14.7492 223.886 14.7752C223.944 14.8487 224.008 14.911 224.076 14.9758C224.079 14.5028 224.082 14.0299 224.083 13.5569C224.084 13.3372 224.085 13.1175 224.086 12.8978C224.088 12.6851 224.089 12.4724 224.089 12.2597C224.089 12.1793 224.09 12.0988 224.091 12.0184C224.102 10.7367 223.823 9.47948 222.909 8.50167C222.879 8.46683 222.85 8.432 222.819 8.3961C222.054 7.52044 220.895 6.93744 219.721 6.80711C219.153 6.77697 218.587 6.74803 218.06 6.98091ZM208.929 9.83777C208.813 9.9926 208.807 10.1055 208.815 10.2903C208.829 10.9394 208.741 11.3141 208.302 11.8043C208.177 11.9479 208.07 12.1029 207.96 12.2574C207.75 12.5465 207.537 12.833 207.323 13.1191C207.158 13.3386 206.996 13.5593 206.835 13.7809C206.65 14.0357 206.463 14.289 206.274 14.5413C206.016 14.8853 205.763 15.2317 205.51 15.5792C205.42 15.703 205.329 15.8266 205.239 15.9502C205.149 16.0726 205.06 16.1953 204.971 16.318C204.904 16.4108 204.835 16.503 204.767 16.5953C204.383 17.1186 204.137 17.5753 204.186 18.2346C204.297 18.848 204.641 19.28 205.121 19.675C205.231 19.7651 205.337 19.8577 205.443 19.9508C205.606 20.0933 205.771 20.2346 205.937 20.3736C206.003 20.4297 206.067 20.487 206.131 20.5451C206.184 20.5924 206.184 20.5924 206.237 20.6406C206.269 20.6696 206.301 20.6986 206.333 20.7285C206.444 20.8076 206.519 20.8312 206.656 20.8416C206.758 20.792 206.844 20.7464 206.925 20.6678C206.959 20.5216 206.969 20.4607 206.925 20.3202C206.778 20.1412 206.608 19.9934 206.431 19.8422C206.399 19.8144 206.367 19.7865 206.334 19.7579C206.278 19.7095 206.221 19.6616 206.163 19.6143C206.016 19.4919 205.874 19.365 205.73 19.2388C205.624 19.1453 205.624 19.1453 205.506 19.0616C205.393 18.9688 205.33 18.885 205.255 18.7614C205.233 18.7257 205.211 18.6899 205.189 18.6531C204.992 18.2768 204.977 17.8539 205.071 17.446C205.199 17.1076 205.427 16.8363 205.654 16.5549C205.81 16.3591 205.954 16.1559 206.097 15.9507C206.291 15.673 206.49 15.3997 206.696 15.1303C206.849 14.9314 206.997 14.7302 207.144 14.5277C207.331 14.2701 207.52 14.0141 207.711 13.7592C207.905 13.4996 208.098 13.239 208.289 12.9771C208.311 12.9464 208.334 12.9158 208.357 12.8843C208.452 12.7536 208.546 12.6225 208.638 12.4898C208.666 12.4507 208.693 12.4117 208.721 12.3715C208.743 12.3388 208.765 12.3062 208.788 12.2725C208.87 12.1789 208.913 12.1429 209.035 12.1081C209.334 12.099 209.334 12.099 209.469 12.2161C209.543 12.3066 209.608 12.3995 209.672 12.4964C209.723 12.5683 209.773 12.6401 209.824 12.7119C209.85 12.7488 209.875 12.7857 209.901 12.8238C210.021 12.9947 210.147 13.1608 210.273 13.3274C210.483 13.6089 210.691 13.8923 210.898 14.1765C211.061 14.4007 211.226 14.6234 211.392 14.8454C211.604 15.1277 211.813 15.4115 212.02 15.6967C212.162 15.8927 212.307 16.0872 212.453 16.2809C212.945 16.9357 212.945 16.9357 213.121 17.2352C213.137 17.2621 213.153 17.2891 213.17 17.3168C213.324 17.6334 213.305 18.0728 213.225 18.4073C213.046 18.874 212.693 19.175 212.313 19.4946C212.281 19.5215 212.249 19.5484 212.217 19.5761C212.16 19.6244 212.103 19.6727 212.046 19.7209C211.863 19.8752 211.683 20.0315 211.505 20.1898C211.478 20.2121 211.452 20.2343 211.425 20.2572C211.355 20.3256 211.355 20.3256 211.353 20.4695C211.371 20.63 211.382 20.6915 211.505 20.7981C211.61 20.8454 211.61 20.8454 211.729 20.8416C211.917 20.7495 212.063 20.6217 212.215 20.4831C212.262 20.44 212.31 20.3969 212.358 20.3538C212.381 20.333 212.404 20.3122 212.428 20.2908C212.537 20.1931 212.65 20.0991 212.762 20.0048C212.907 19.8826 213.048 19.7579 213.19 19.6331C213.259 19.5739 213.329 19.5158 213.399 19.4593C213.835 19.1118 214.066 18.6785 214.124 18.1315C214.142 17.4883 213.862 17.0209 213.477 16.5183C213.425 16.4495 213.373 16.3807 213.321 16.3119C213.295 16.2774 213.269 16.243 213.243 16.2075C213.125 16.0516 213.011 15.8939 212.896 15.7362C212.713 15.4829 212.526 15.2316 212.338 14.9812C212.137 14.7128 211.941 14.4412 211.749 14.1665C211.548 13.8804 211.34 13.6021 211.124 13.3273C210.924 13.0719 210.738 12.8084 210.553 12.5431C210.418 12.3504 210.28 12.1602 210.137 11.9731C210.075 11.8926 210.014 11.8115 209.954 11.7302C209.887 11.6415 209.82 11.5609 209.744 11.4784C209.475 11.1554 209.495 10.802 209.496 10.4035C209.496 10.3347 209.496 10.3347 209.496 10.2645C209.497 10.2231 209.498 10.1818 209.499 10.1392C209.481 9.99744 209.439 9.91817 209.349 9.80518C209.17 9.7514 209.084 9.72711 208.929 9.83777ZM219.659 9.84049C219.543 9.99151 219.538 10.0661 219.546 10.2521C219.559 10.9127 219.486 11.3049 219.035 11.8027C218.902 11.9549 218.785 12.1189 218.666 12.2819C218.617 12.3475 218.568 12.413 218.519 12.4786C218.288 12.7876 218.062 13.0997 217.835 13.4116C217.537 13.8229 217.236 14.2326 216.931 14.6398C216.698 14.9511 216.469 15.2649 216.241 15.5792C216.151 15.703 216.06 15.8266 215.97 15.9502C215.88 16.0726 215.791 16.1953 215.702 16.318C215.634 16.4108 215.566 16.503 215.498 16.5953C215.277 16.8959 215.07 17.1808 214.962 17.5393C214.953 17.5663 214.945 17.5933 214.936 17.6212C214.833 18.1151 214.952 18.5836 215.211 19.0099C215.388 19.2662 215.607 19.4735 215.849 19.6721C215.967 19.77 216.082 19.8711 216.197 19.9726C216.368 20.1242 216.541 20.2745 216.717 20.4215C216.778 20.4729 216.838 20.5254 216.897 20.5787C216.928 20.6063 216.959 20.6339 216.991 20.6623C217.032 20.6998 217.032 20.6998 217.074 20.738C217.18 20.8103 217.258 20.8304 217.386 20.8416C217.489 20.792 217.574 20.7464 217.656 20.6678C217.685 20.5245 217.696 20.4578 217.656 20.3202C217.524 20.156 217.368 20.0222 217.207 19.8857C217.176 19.8588 217.145 19.8319 217.113 19.8042C217.056 19.7553 216.998 19.7069 216.94 19.6589C216.793 19.5361 216.65 19.4092 216.506 19.2826C216.415 19.2048 216.323 19.1324 216.227 19.0601C215.946 18.8291 215.787 18.4657 215.755 18.1157C215.754 18.0576 215.753 17.9994 215.753 17.9413C215.752 17.8841 215.751 17.827 215.749 17.7681C215.773 17.3816 215.994 17.0588 216.219 16.7518C216.245 16.7162 216.27 16.6806 216.297 16.6439C216.482 16.3886 216.674 16.1388 216.869 15.8908C217.042 15.6703 217.204 15.444 217.364 15.2148C217.565 14.9266 217.774 14.6465 217.992 14.37C218.191 14.1159 218.375 13.8533 218.56 13.5892C218.744 13.3268 218.937 13.0722 219.135 12.82C219.277 12.6404 219.408 12.4581 219.529 12.2645C219.604 12.1731 219.649 12.1424 219.766 12.1081C220.065 12.099 220.065 12.099 220.199 12.2161C220.273 12.3066 220.338 12.3995 220.403 12.4964C220.454 12.5683 220.504 12.6401 220.555 12.7119C220.58 12.7488 220.606 12.7857 220.632 12.8238C220.752 12.9947 220.878 13.1608 221.004 13.3274C221.214 13.6089 221.422 13.8923 221.628 14.1765C221.792 14.4007 221.957 14.6234 222.123 14.8454C222.38 15.1891 222.634 15.5351 222.886 15.8822C222.98 16.0107 223.073 16.1392 223.167 16.2676C223.213 16.3308 223.26 16.3942 223.306 16.4575C223.399 16.5864 223.493 16.7147 223.59 16.8414C223.94 17.3034 224.044 17.7101 223.986 18.278C223.885 18.7163 223.579 19.0475 223.231 19.329C223.121 19.4178 223.015 19.5102 222.909 19.6032C222.771 19.7241 222.632 19.8437 222.491 19.9617C222.462 19.9862 222.434 20.0107 222.404 20.0359C222.334 20.0951 222.263 20.1521 222.191 20.2088C222.097 20.3253 222.085 20.3582 222.078 20.4994C222.088 20.66 222.088 20.66 222.154 20.752C222.261 20.8128 222.335 20.8358 222.46 20.8416C222.659 20.7455 222.808 20.608 222.968 20.4614C223.02 20.4142 223.072 20.3671 223.124 20.32C223.149 20.2974 223.174 20.2748 223.199 20.2516C223.31 20.1519 223.425 20.056 223.539 19.9602C223.685 19.8367 223.828 19.7101 223.972 19.5839C224.054 19.5141 224.136 19.4496 224.222 19.386C224.585 19.0667 224.803 18.5985 224.85 18.1286C224.875 17.302 224.363 16.7105 223.885 16.0787C223.76 15.9133 223.636 15.7474 223.512 15.5814C223.488 15.549 223.464 15.5167 223.439 15.4833C223.253 15.2342 223.07 14.9833 222.887 14.7319C222.726 14.5105 222.563 14.2907 222.398 14.0715C222.164 13.7593 221.935 13.4441 221.707 13.1278C221.509 12.8526 221.307 12.5801 221.103 12.3084C220.93 12.0771 220.758 11.8445 220.588 11.6111C220.566 11.58 220.543 11.5488 220.519 11.5168C220.249 11.1452 220.249 11.1452 220.246 10.8999C220.245 10.8504 220.244 10.8008 220.243 10.7497C220.241 10.6454 220.24 10.5411 220.238 10.4367C220.237 10.3622 220.237 10.3622 220.235 10.2862C220.234 10.2182 220.234 10.2182 220.233 10.1487C220.212 10.0032 220.173 9.92114 220.08 9.80518C219.899 9.75094 219.814 9.72624 219.659 9.84049ZM209.125 13.1509C209.086 13.198 209.048 13.2467 209.012 13.296C208.977 13.3432 208.977 13.3432 208.941 13.3914C208.916 13.4258 208.89 13.4603 208.864 13.4957C208.838 13.5311 208.812 13.5665 208.784 13.603C208.59 13.8656 208.397 14.1295 208.205 14.3938C208.044 14.6164 207.879 14.837 207.713 15.0572C207.512 15.3256 207.316 15.5973 207.124 15.8719C206.921 16.1619 206.71 16.4436 206.491 16.7221C205.943 17.3672 205.943 17.3672 205.802 18.1476C205.924 18.4827 206.252 18.7066 206.521 18.9298C206.582 18.9813 206.643 19.0329 206.703 19.0845C206.731 19.1084 206.76 19.1322 206.789 19.1567C206.834 19.1949 206.834 19.1949 206.88 19.2339C206.917 19.2652 206.954 19.2965 206.992 19.3288C207.106 19.426 207.218 19.5248 207.329 19.625C207.357 19.6494 207.384 19.6739 207.413 19.6991C207.628 19.9114 207.7 20.1586 207.733 20.4505C207.727 20.7582 207.662 21.0097 207.454 21.2462C207.177 21.5 206.909 21.5958 206.529 21.5896C206.275 21.5653 206.068 21.4819 205.863 21.3381C205.835 21.3184 205.807 21.2987 205.778 21.2784C205.756 21.2633 205.735 21.2482 205.713 21.2326C205.709 21.7822 205.705 22.3318 205.703 22.8814C205.702 23.1367 205.701 23.3919 205.699 23.6472C205.697 23.894 205.696 24.1408 205.696 24.3876C205.695 24.4813 205.695 24.575 205.694 24.6687C205.685 25.5179 205.767 26.2341 206.388 26.8864C206.776 27.2448 207.283 27.4924 207.826 27.4965C207.894 27.4971 207.894 27.4971 207.963 27.4977C208.012 27.4979 208.061 27.4981 208.111 27.4983C208.187 27.4987 208.187 27.4987 208.264 27.4991C208.371 27.4995 208.478 27.4997 208.585 27.4999C208.747 27.5003 208.91 27.5017 209.073 27.5031C209.177 27.5033 209.281 27.5036 209.385 27.5037C209.433 27.5043 209.481 27.5048 209.531 27.5054C210.144 27.5036 210.693 27.3002 211.141 26.8907C211.623 26.3976 211.827 25.8148 211.824 25.1456C211.824 25.0884 211.824 25.0884 211.824 25.0299C211.824 24.9044 211.824 24.7789 211.823 24.6533C211.823 24.566 211.823 24.4787 211.823 24.3914C211.823 24.1621 211.823 23.9328 211.822 23.7035C211.822 23.4694 211.821 23.2352 211.821 23.001C211.821 22.5419 211.82 22.0828 211.819 21.6237C211.776 21.6156 211.733 21.6074 211.689 21.5991C211.604 21.5824 211.604 21.5824 211.517 21.5655C211.461 21.5547 211.406 21.5438 211.348 21.5327C211.038 21.4552 210.858 21.3007 210.696 21.0371C210.555 20.7276 210.546 20.392 210.643 20.0681C210.823 19.6785 211.172 19.4114 211.5 19.139C211.648 19.0157 211.791 18.8885 211.936 18.7617C212.029 18.6818 212.123 18.606 212.22 18.5306C212.386 18.3918 212.472 18.2631 212.51 18.0499C212.534 17.726 212.413 17.5357 212.223 17.2786C212.203 17.2513 212.183 17.224 212.162 17.1958C212.016 16.996 211.867 16.7978 211.718 16.6001C211.593 16.4347 211.469 16.2688 211.345 16.1028C211.321 16.0704 211.296 16.0381 211.271 16.0047C211.086 15.7557 210.902 15.5049 210.72 15.2536C210.557 15.0294 210.391 14.8068 210.225 14.5847C209.985 14.2645 209.749 13.9422 209.514 13.6188C209.494 13.5917 209.474 13.5647 209.454 13.5368C209.413 13.4801 209.372 13.4232 209.331 13.3663C209.278 13.2937 209.224 13.2222 209.17 13.1509C209.155 13.1509 209.14 13.1509 209.125 13.1509ZM219.856 13.1509C219.816 13.198 219.779 13.2467 219.743 13.296C219.708 13.3432 219.708 13.3432 219.672 13.3914C219.646 13.4258 219.621 13.4603 219.595 13.4957C219.569 13.5311 219.542 13.5665 219.515 13.603C219.321 13.8656 219.128 14.1294 218.936 14.3936C218.749 14.6511 218.559 14.9063 218.368 15.1613C218.181 15.4108 217.997 15.6622 217.814 15.9142C217.648 16.1422 217.48 16.3685 217.311 16.5943C217.137 16.8267 216.964 17.0595 216.794 17.2949C216.763 17.3383 216.732 17.3816 216.7 17.4263C216.583 17.5981 216.52 17.7145 216.516 17.9223C216.515 17.9575 216.514 17.9927 216.513 18.029C216.563 18.3166 216.751 18.5064 216.971 18.6908C216.995 18.7114 217.019 18.7319 217.043 18.7531C217.112 18.8124 217.182 18.8712 217.252 18.9298C217.284 18.9576 217.317 18.9855 217.351 19.0143C217.407 19.0623 217.464 19.1102 217.521 19.158C218.417 19.9138 218.417 19.9138 218.467 20.4373C218.458 20.7581 218.374 21.0711 218.137 21.3024C217.923 21.4705 217.712 21.5401 217.442 21.5848C217.398 21.5922 217.353 21.5996 217.308 21.6072C217.275 21.6127 217.241 21.6181 217.207 21.6237C217.203 22.1223 217.199 22.6209 217.197 23.1195C217.197 23.3511 217.195 23.5827 217.193 23.8143C217.191 24.0383 217.19 24.2622 217.19 24.4862C217.189 24.5712 217.189 24.6561 217.188 24.7411C217.179 25.562 217.283 26.258 217.882 26.8864C218.27 27.2448 218.777 27.4924 219.32 27.4965C219.388 27.4971 219.388 27.4971 219.457 27.4977C219.506 27.4979 219.555 27.4981 219.605 27.4983C219.681 27.4987 219.681 27.4987 219.758 27.4991C219.865 27.4995 219.972 27.4997 220.079 27.4999C220.241 27.5003 220.404 27.5017 220.567 27.5031C220.671 27.5033 220.775 27.5036 220.879 27.5037C220.927 27.5043 220.975 27.5048 221.025 27.5054C221.638 27.5036 222.187 27.3002 222.635 26.8907C223.13 26.3843 223.321 25.7941 223.318 25.1097C223.318 25.0467 223.318 25.0467 223.318 24.9825C223.318 24.8442 223.318 24.706 223.317 24.5678C223.317 24.4717 223.317 24.3756 223.317 24.2796C223.317 24.0271 223.317 23.7747 223.316 23.5223C223.316 23.2645 223.315 23.0067 223.315 22.749C223.315 22.2435 223.314 21.7381 223.313 21.2326C223.286 21.2508 223.258 21.2689 223.23 21.2876C223.194 21.3112 223.158 21.3349 223.121 21.3592C223.067 21.3945 223.067 21.3945 223.013 21.4305C222.743 21.5939 222.441 21.6212 222.134 21.56C221.819 21.4725 221.582 21.3113 221.408 21.0398C221.264 20.7278 221.276 20.3015 221.396 19.9834C221.591 19.6287 221.968 19.3493 222.279 19.0927C222.427 18.9697 222.57 18.8422 222.714 18.7154C222.799 18.643 222.884 18.5754 222.973 18.5088C223.162 18.3437 223.231 18.1864 223.251 17.944C223.24 17.6519 223.082 17.4647 222.909 17.2352C222.869 17.1796 222.829 17.1239 222.789 17.0682C222.532 16.7113 222.268 16.3591 222.004 16.0069C221.818 15.7572 221.634 15.5058 221.451 15.2536C221.287 15.0294 221.122 14.8068 220.956 14.5847C220.716 14.2645 220.479 13.9422 220.244 13.6188C220.225 13.5917 220.205 13.5647 220.185 13.5368C220.143 13.4801 220.102 13.4232 220.062 13.3663C220.009 13.2937 219.955 13.2222 219.901 13.1509C219.886 13.1509 219.871 13.1509 219.856 13.1509Z" fill="#8F9EA2"/>
<path d="M203.389 5.2832L226.377 28.2713" stroke="#DE1121" stroke-linecap="round"/>
<path d="M253.662 7.76232C253.717 7.76206 253.772 7.76181 253.829 7.76155C253.89 7.76171 253.951 7.76187 254.011 7.76205C254.076 7.76192 254.141 7.76175 254.206 7.76154C254.384 7.7611 254.562 7.76119 254.74 7.76138C254.932 7.76148 255.124 7.76109 255.316 7.76077C255.692 7.76021 256.068 7.76014 256.444 7.76024C256.749 7.76031 257.055 7.76024 257.361 7.76005C257.404 7.76003 257.448 7.76 257.492 7.75998C257.581 7.75992 257.669 7.75987 257.757 7.75982C258.586 7.75934 259.415 7.75944 260.243 7.7597C261.001 7.75993 261.759 7.75944 262.518 7.75861C263.296 7.75777 264.074 7.75741 264.853 7.75758C265.29 7.75766 265.727 7.75755 266.164 7.75694C266.536 7.75642 266.908 7.75636 267.28 7.75688C267.47 7.75714 267.659 7.75719 267.849 7.75667C268.023 7.7562 268.197 7.75633 268.371 7.75694C268.433 7.75705 268.496 7.75695 268.559 7.7566C269.17 7.75346 269.17 7.75346 269.413 7.90373C269.564 8.07465 269.588 8.27568 269.622 8.49158C269.628 8.52892 269.635 8.56627 269.641 8.60474C269.662 8.73011 269.683 8.85558 269.704 8.98106C269.719 9.07137 269.734 9.16168 269.749 9.25198C269.791 9.49905 269.831 9.74622 269.872 9.99341C269.916 10.2565 269.96 10.5195 270.004 10.7825C270.079 11.2322 270.154 11.6818 270.229 12.1315C270.306 12.598 270.383 13.0644 270.461 13.5308C270.466 13.5596 270.471 13.5884 270.476 13.6181C270.5 13.7637 270.524 13.9093 270.549 14.0549C270.597 14.3459 270.646 14.6369 270.694 14.9279C270.699 14.9567 270.704 14.9854 270.709 15.0151C270.781 15.4503 270.854 15.8855 270.926 16.3208C271.135 17.5782 271.346 18.8354 271.558 20.0923C271.596 20.3165 271.634 20.5406 271.672 20.7648C271.684 20.8362 271.696 20.9076 271.708 20.9791C271.725 21.083 271.743 21.1869 271.76 21.2908C271.826 21.6818 271.893 22.0727 271.959 22.4635C272.004 22.7296 272.049 22.9957 272.094 23.2618C272.111 23.3676 272.129 23.4734 272.147 23.5792C272.172 23.7207 272.195 23.8623 272.219 24.0039C272.226 24.0441 272.233 24.0843 272.24 24.1257C272.356 24.8307 272.356 24.8307 272.198 25.0449C272.033 25.177 271.893 25.211 271.687 25.2397C271.646 25.2462 271.606 25.2527 271.565 25.2595C271.471 25.2745 271.376 25.2889 271.282 25.303C271.102 25.33 270.921 25.3585 270.741 25.3871C270.323 25.453 269.905 25.5168 269.487 25.5804C269.275 25.6126 269.064 25.6449 268.853 25.6772C268.499 25.7313 268.144 25.7853 267.79 25.8393C267.382 25.9015 266.973 25.9638 266.565 26.0263C266.17 26.0867 265.775 26.147 265.38 26.2073C265.212 26.2328 265.045 26.2583 264.878 26.2839C264.681 26.314 264.484 26.344 264.287 26.3739C264.215 26.3849 264.143 26.3958 264.071 26.4069C262.995 26.5715 262.995 26.5715 262.723 26.4136C262.573 26.2213 262.525 25.9994 262.464 25.7696C262.452 25.7269 262.44 25.6841 262.428 25.64C262.39 25.4989 262.352 25.3576 262.314 25.2163C262.287 25.118 262.26 25.0196 262.233 24.9213C262.163 24.6625 262.093 24.4036 262.023 24.1447C261.952 23.8817 261.88 23.6188 261.809 23.3559C261.728 23.0603 261.648 22.7647 261.568 22.469C261.55 22.4014 261.55 22.4014 261.531 22.3324C261.508 22.2486 261.486 22.1648 261.463 22.0811C261.453 22.0437 261.443 22.0063 261.432 21.9678C261.423 21.9328 261.413 21.8979 261.404 21.8619C261.379 21.7727 261.352 21.6843 261.324 21.5958C261.287 21.4602 261.287 21.4602 261.287 21.2864C261.257 21.2864 261.227 21.2864 261.197 21.2864C261.192 21.3348 261.187 21.3831 261.182 21.4329C261.153 21.651 261.097 21.8589 261.038 22.0708C261.026 22.1131 261.014 22.1554 261.002 22.199C260.964 22.338 260.926 22.4769 260.887 22.6157C260.86 22.7128 260.833 22.8099 260.807 22.9069C260.751 23.11 260.694 23.3131 260.638 23.5161C260.566 23.7758 260.494 24.0356 260.423 24.2954C260.367 24.4958 260.312 24.6961 260.256 24.8964C260.23 24.9921 260.203 25.0879 260.177 25.1837C260.14 25.3177 260.103 25.4517 260.066 25.5857C260.055 25.625 260.044 25.6642 260.033 25.7046C259.845 26.378 259.845 26.378 259.625 26.5005C259.16 26.5684 258.66 26.4546 258.2 26.3829C258.117 26.3702 258.033 26.3576 257.95 26.345C257.725 26.3109 257.501 26.2763 257.276 26.2415C257.089 26.2125 256.901 26.1838 256.713 26.1551C256.27 26.0873 255.827 26.0192 255.384 25.9507C254.928 25.8801 254.471 25.8102 254.014 25.7406C253.622 25.6807 253.229 25.6205 252.836 25.5599C252.602 25.5238 252.368 25.4878 252.133 25.4521C251.913 25.4187 251.693 25.3847 251.473 25.3504C251.393 25.3379 251.312 25.3255 251.231 25.3134C251.121 25.2967 251.011 25.2795 250.901 25.2621C250.869 25.2574 250.837 25.2527 250.804 25.2479C250.578 25.2113 250.413 25.1552 250.259 24.9878C250.091 24.7305 250.209 24.3237 250.258 24.0383C250.268 23.9782 250.268 23.9782 250.279 23.917C250.301 23.7837 250.324 23.6506 250.347 23.5174C250.363 23.4211 250.379 23.3248 250.395 23.2285C250.439 22.9661 250.484 22.7038 250.528 22.4414C250.576 22.1625 250.623 21.8836 250.67 21.6046C250.75 21.1292 250.83 20.6539 250.911 20.1786C250.994 19.6869 251.077 19.1952 251.16 18.7035C251.165 18.6731 251.17 18.6428 251.176 18.6115C251.212 18.397 251.248 18.1824 251.284 17.9679C251.289 17.9376 251.295 17.9073 251.3 17.8761C251.346 17.6018 251.392 17.3276 251.439 17.0533C251.49 16.7504 251.541 16.4475 251.592 16.1446C251.83 14.7366 252.067 13.3284 252.298 11.9193C252.326 11.7464 252.355 11.5735 252.383 11.4006C252.405 11.2709 252.426 11.1411 252.447 11.0114C252.452 10.9805 252.457 10.9497 252.463 10.9179C252.516 10.5936 252.569 10.2692 252.621 9.94476C252.664 9.67939 252.708 9.41412 252.751 9.14891C252.767 9.05575 252.782 8.96254 252.797 8.8693C252.816 8.74592 252.836 8.62269 252.857 8.49947C252.862 8.46436 252.868 8.42924 252.873 8.39307C252.91 8.18016 252.964 8.02684 253.115 7.86027C253.302 7.78514 253.461 7.76248 253.662 7.76232ZM253.833 8.72928C253.759 9.15944 253.685 9.5896 253.609 10.0328C255.876 10.0328 258.143 10.0328 260.478 10.0328C260.816 9.52478 260.816 9.52478 260.748 8.72928C258.466 8.72928 256.184 8.72928 253.833 8.72928ZM261.736 8.72928C261.668 9.52478 261.668 9.52478 262.005 10.0328C264.272 10.0328 266.539 10.0328 268.874 10.0328C268.8 9.60263 268.726 9.17248 268.65 8.72928C266.368 8.72928 264.087 8.72928 261.736 8.72928ZM253.474 10.9452C253.403 11.2133 253.403 11.2133 253.349 11.4821C253.343 11.5155 253.338 11.5488 253.332 11.5832C253.323 11.6365 253.323 11.6365 253.314 11.6909C253.307 11.7295 253.301 11.7682 253.294 11.808C253.273 11.9369 253.251 12.0659 253.23 12.1948C253.214 12.2877 253.198 12.3805 253.183 12.4734C253.14 12.726 253.098 12.9786 253.056 13.2312C253.011 13.4987 252.967 13.7662 252.922 14.0336C252.846 14.4855 252.771 14.9374 252.695 15.3894C252.59 16.0156 252.486 16.6418 252.381 17.2679C252.262 17.9801 252.142 18.6922 252.023 19.4043C252.015 19.4569 252.006 19.5095 251.997 19.5637C251.945 19.8752 251.945 19.8752 251.893 20.1867C251.788 20.8112 251.684 21.4357 251.578 22.0601C251.543 22.2725 251.507 22.4848 251.471 22.6972C251.44 22.8853 251.408 23.0733 251.376 23.2614C251.353 23.3978 251.33 23.5343 251.307 23.6707C251.299 23.7182 251.291 23.7657 251.283 23.8146C251.276 23.8574 251.268 23.9002 251.261 23.9444C251.255 23.9811 251.249 24.0177 251.242 24.0555C251.226 24.1663 251.226 24.1663 251.229 24.328C251.601 24.4138 251.977 24.4716 252.354 24.5298C252.426 24.5411 252.499 24.5524 252.571 24.5637C252.808 24.6004 253.044 24.637 253.28 24.6735C253.362 24.6861 253.444 24.6988 253.525 24.7114C253.908 24.7706 254.291 24.8296 254.673 24.8886C255.115 24.9566 255.557 25.025 255.998 25.0938C256.34 25.147 256.682 25.1998 257.024 25.2523C257.228 25.2837 257.432 25.3153 257.636 25.3472C257.827 25.3771 258.019 25.4066 258.211 25.4358C258.281 25.4466 258.351 25.4575 258.422 25.4687C258.518 25.4838 258.613 25.4983 258.709 25.5127C258.79 25.5252 258.79 25.5252 258.872 25.5379C258.913 25.5401 258.954 25.5423 258.997 25.5446C259.095 25.449 259.109 25.4056 259.144 25.2779C259.154 25.2402 259.165 25.2025 259.175 25.1637C259.187 25.1222 259.198 25.0806 259.209 25.0379C259.221 24.9942 259.233 24.9505 259.246 24.9055C259.285 24.7598 259.325 24.614 259.364 24.4681C259.392 24.3658 259.42 24.2635 259.448 24.1612C259.523 23.89 259.596 23.6187 259.67 23.3474C259.744 23.0777 259.817 22.808 259.891 22.5383C259.912 22.4596 259.912 22.4596 259.934 22.3793C260.073 21.8722 260.212 21.3653 260.351 20.8584C260.387 20.7271 260.423 20.5957 260.459 20.4643C260.511 20.2753 260.563 20.0865 260.616 19.8977C260.634 19.8312 260.653 19.7647 260.671 19.698C260.695 19.6085 260.72 19.5193 260.746 19.43C260.766 19.3566 260.766 19.3566 260.787 19.2816C260.843 19.1447 260.9 19.076 261.017 18.9836C261.188 18.9286 261.273 18.9361 261.446 18.9871C261.601 19.0705 261.601 19.0705 261.67 19.1977C261.692 19.2778 261.692 19.2778 261.714 19.3595C261.723 19.3898 261.732 19.42 261.74 19.4512C261.76 19.5188 261.778 19.5867 261.796 19.6546C261.827 19.7714 261.86 19.8877 261.893 20.004C261.957 20.2305 262.019 20.4574 262.081 20.6844C262.122 20.8366 262.164 20.9888 262.205 21.141C262.294 21.4646 262.382 21.7883 262.471 22.112C262.573 22.4865 262.675 22.8611 262.778 23.2355C262.819 23.3834 262.859 23.5314 262.899 23.6793C263.07 24.3041 263.252 24.9251 263.442 25.5446C266.657 25.0608 266.657 25.0608 269.872 24.5724C269.991 24.5543 270.109 24.5362 270.228 24.5182C270.388 24.4939 270.549 24.4693 270.709 24.4447C270.778 24.4343 270.778 24.4343 270.848 24.4237C270.889 24.4174 270.93 24.411 270.972 24.4045C271.025 24.3964 271.025 24.3964 271.079 24.3882C271.168 24.3745 271.168 24.3745 271.254 24.328C271.189 23.7783 271.101 23.2332 271.009 22.6872C270.993 22.5938 270.977 22.5005 270.962 22.4072C270.92 22.1549 270.877 21.9027 270.835 21.6505C270.79 21.3832 270.745 21.1158 270.7 20.8485C270.624 20.3975 270.548 19.9466 270.472 19.4957C270.339 18.7028 270.206 17.9098 270.073 17.1168C270.054 17.0064 270.036 16.896 270.017 16.7856C270.003 16.7042 270.003 16.7042 269.989 16.6212C269.935 16.2964 269.88 15.9717 269.826 15.647C269.667 14.7017 269.508 13.7565 269.351 12.8109C269.34 12.7442 269.329 12.6774 269.318 12.6107C269.27 12.3201 269.222 12.0296 269.174 11.739C269.158 11.6431 269.143 11.5473 269.127 11.4514C269.12 11.4091 269.113 11.3667 269.106 11.3231C269.1 11.2854 269.093 11.2476 269.087 11.2087C269.082 11.1764 269.076 11.144 269.071 11.1107C269.057 11.0282 269.057 11.0282 269.009 10.9452C266.861 10.9452 264.712 10.9452 262.499 10.9452C262.555 11.1092 262.601 11.2413 262.681 11.3903C262.698 11.4241 262.716 11.4579 262.735 11.4927C262.754 11.5284 262.773 11.5641 262.792 11.6009C262.833 11.6779 262.873 11.7548 262.914 11.8318C262.977 11.9522 263.041 12.0726 263.105 12.1928C263.166 12.3094 263.228 12.4263 263.289 12.5432C263.308 12.5789 263.327 12.6145 263.347 12.6512C263.476 12.898 263.573 13.1151 263.487 13.392C263.397 13.5088 263.397 13.5088 263.251 13.574C263.052 13.5997 262.953 13.5866 262.768 13.5088C262.674 13.399 262.616 13.2767 262.554 13.1481C262.535 13.1115 262.516 13.0749 262.497 13.0372C262.457 12.9593 262.418 12.8812 262.379 12.8029C262.32 12.6855 262.26 12.5689 262.199 12.4525C262.079 12.2231 261.961 11.9929 261.842 11.7627C261.801 11.6827 261.76 11.6027 261.719 11.5227C261.619 11.3303 261.52 11.1378 261.421 10.9452C261.303 10.9452 261.184 10.9452 261.062 10.9452C261.038 10.9923 261.038 10.9923 261.014 11.0403C260.863 11.3359 260.711 11.6313 260.56 11.9265C260.482 12.0783 260.404 12.2301 260.327 12.3821C260.252 12.5288 260.177 12.6752 260.101 12.8216C260.072 12.8775 260.044 12.9334 260.015 12.9895C259.976 13.0679 259.935 13.146 259.895 13.2242C259.872 13.2687 259.849 13.3133 259.826 13.3592C259.74 13.4971 259.66 13.5424 259.502 13.5876C259.312 13.5982 259.206 13.5569 259.042 13.4654C258.942 13.3206 258.945 13.204 258.972 13.035C259.023 12.8443 259.124 12.6732 259.217 12.4991C259.239 12.4573 259.261 12.4155 259.283 12.3724C259.353 12.2396 259.423 12.107 259.493 11.9745C259.564 11.8411 259.634 11.7077 259.704 11.5742C259.747 11.4912 259.791 11.4084 259.835 11.3257C259.865 11.2697 259.865 11.2697 259.895 11.2127C259.912 11.1798 259.929 11.147 259.947 11.1131C259.991 11.0337 259.991 11.0337 259.985 10.9452C257.836 10.9452 255.688 10.9452 253.474 10.9452Z" fill="#8F9EA2"/>
<path d="M249.377 5.29492L272.366 28.2831" stroke="#DE1121" stroke-linecap="round"/>
<path d="M299.907 6.09298C299.956 6.09278 300.004 6.09259 300.054 6.09239C300.134 6.0924 300.134 6.0924 300.216 6.09241C300.272 6.09225 300.329 6.09209 300.387 6.09193C300.544 6.09149 300.701 6.09133 300.858 6.09122C301.028 6.09105 301.197 6.09063 301.366 6.09025C301.776 6.08939 302.185 6.08896 302.594 6.08857C302.787 6.08838 302.979 6.08815 303.172 6.08792C303.813 6.08718 304.453 6.08655 305.094 6.08624C305.26 6.08615 305.426 6.08607 305.592 6.08598C305.654 6.08595 305.654 6.08595 305.717 6.08592C306.387 6.08556 307.056 6.08446 307.725 6.08305C308.412 6.08161 309.1 6.08083 309.787 6.08069C310.172 6.0806 310.558 6.08021 310.944 6.0791C311.273 6.07816 311.601 6.07781 311.93 6.07823C312.097 6.07843 312.265 6.07835 312.433 6.07751C312.614 6.0766 312.796 6.07704 312.978 6.07762C313.031 6.07714 313.084 6.07666 313.138 6.07617C313.478 6.07876 313.735 6.11551 313.989 6.35798C314.009 6.38627 314.028 6.41455 314.049 6.4437C314.079 6.48596 314.079 6.48596 314.11 6.52907C314.239 6.7454 314.262 6.90937 314.256 7.16046C314.255 7.22397 314.254 7.28748 314.254 7.351C314.254 7.40025 314.254 7.40025 314.253 7.45049C314.246 8.18539 314.246 8.18539 314.619 8.79629C315.031 9.23325 315.308 9.99789 315.338 10.5878C315.313 10.748 315.313 10.748 315.247 10.8593C315.081 10.9534 314.974 10.9427 314.783 10.9218C314.661 10.831 314.627 10.7445 314.591 10.6005C314.581 10.5628 314.571 10.5252 314.56 10.4864C314.55 10.4464 314.54 10.4063 314.529 10.3651C314.383 9.83597 314.191 9.37436 313.824 8.95227C313.767 8.87963 313.767 8.87963 313.767 8.79273C313.621 8.79273 313.476 8.79273 313.325 8.79273C313.345 8.82656 313.364 8.86039 313.384 8.89525C313.759 9.58917 313.913 10.3064 314.043 11.076C314.057 11.1549 314.07 11.2339 314.084 11.3129C314.225 12.1383 314.361 12.9646 314.497 13.7909C314.532 14.0085 314.568 14.2261 314.604 14.4436C314.68 14.9085 314.756 15.3734 314.833 15.8383C314.88 16.1263 314.927 16.4144 314.974 16.7025C315.147 17.755 315.32 18.8076 315.492 19.8601C315.58 20.3978 315.668 20.9355 315.757 21.4731C315.86 22.1042 315.964 22.7354 316.067 23.3666C316.076 23.4258 316.086 23.485 316.096 23.5442C316.1 23.5731 316.105 23.6021 316.11 23.6318C316.143 23.8333 316.176 24.0348 316.209 24.2363C316.252 24.501 316.296 24.7658 316.339 25.0307C316.354 25.1252 316.37 25.2198 316.385 25.3144C316.406 25.441 316.427 25.5677 316.447 25.6943C316.453 25.7307 316.459 25.767 316.466 25.8045C316.495 25.9873 316.512 26.1608 316.506 26.3467C316.577 26.3355 316.648 26.3236 316.718 26.3114C316.758 26.3048 316.797 26.2983 316.838 26.2915C316.964 26.255 317.011 26.2402 317.08 26.1294C317.089 25.8954 317.07 25.6796 317.032 25.4479C317.024 25.4002 317.024 25.4002 317.016 25.3515C316.999 25.2456 316.981 25.1398 316.964 25.034C316.951 24.9574 316.939 24.8808 316.926 24.8042C316.892 24.5954 316.857 24.3866 316.822 24.1778C316.785 23.9553 316.749 23.7328 316.712 23.5103C316.65 23.1304 316.587 22.7505 316.524 22.3705C316.434 21.8292 316.345 21.2877 316.256 20.7463C316.119 19.9172 315.982 19.0881 315.845 18.2591C315.643 17.0341 315.44 15.8091 315.239 14.5839C315.186 14.2607 315.133 13.9376 315.079 13.6145C315.047 13.4198 315.015 13.225 314.983 13.0302C314.969 12.9424 314.954 12.8545 314.94 12.7667C314.92 12.6496 314.901 12.5324 314.882 12.4152C314.876 12.3817 314.871 12.3482 314.865 12.3137C314.789 11.8435 314.789 11.8435 314.918 11.6659C315.048 11.5736 315.048 11.5736 315.205 11.5491C315.384 11.5779 315.423 11.611 315.534 11.7474C315.571 11.8637 315.571 11.8637 315.593 12C315.602 12.0523 315.611 12.1045 315.62 12.1583C315.629 12.2166 315.638 12.2749 315.647 12.3332C315.657 12.3956 315.668 12.4579 315.678 12.5203C315.7 12.6571 315.723 12.794 315.744 12.9309C315.78 13.1565 315.817 13.3819 315.854 13.6073C315.909 13.9455 315.964 14.2836 316.018 14.6219C316.113 15.2115 316.21 15.8009 316.307 16.3903C316.342 16.6031 316.377 16.8159 316.412 17.0287C316.42 17.0822 316.429 17.1357 316.438 17.1908C316.538 17.796 316.637 18.4012 316.735 19.0064C316.744 19.0616 316.754 19.1168 316.763 19.1737C316.799 19.3979 316.836 19.622 316.873 19.8462C316.938 20.2474 317.004 20.6486 317.069 21.0497C317.074 21.0784 317.079 21.107 317.084 21.1365C317.093 21.1942 317.102 21.2519 317.112 21.3096C317.116 21.3381 317.121 21.3666 317.126 21.396C317.131 21.4244 317.135 21.4528 317.14 21.4821C317.217 21.9527 317.294 22.4233 317.371 22.8938C317.397 23.0519 317.422 23.2099 317.448 23.3679C317.489 23.615 317.529 23.862 317.569 24.1091C317.584 24.1991 317.599 24.2891 317.614 24.3791C317.651 24.6115 317.689 24.8438 317.727 25.0762C317.737 25.1386 317.747 25.2009 317.757 25.2633C317.77 25.3412 317.783 25.4191 317.795 25.4971C317.802 25.538 317.808 25.579 317.815 25.6211C317.864 25.9806 317.858 26.2638 317.693 26.5921C317.446 26.8974 317.163 27.0004 316.781 27.0625C316.734 27.0711 316.686 27.0796 316.637 27.0884C316.532 27.1072 316.427 27.1255 316.322 27.1434C316.146 27.1734 315.97 27.2046 315.794 27.2362C315.386 27.309 314.978 27.3796 314.57 27.4501C314.496 27.4629 314.421 27.4758 314.347 27.4887C313.998 27.5491 313.648 27.6093 313.299 27.6694C312.9 27.7381 312.5 27.8074 312.1 27.877C311.789 27.9312 311.477 27.9851 311.165 28.0386C310.98 28.0704 310.795 28.1023 310.61 28.1348C310.436 28.1652 310.262 28.195 310.089 28.2245C310.026 28.2353 309.962 28.2463 309.899 28.2575C308.746 28.4619 308.746 28.4619 308.359 28.2264C307.974 27.9231 307.91 27.5228 307.837 27.0715C307.828 27.0181 307.82 26.9647 307.81 26.9097C307.786 26.7632 307.762 26.6168 307.738 26.4703C307.713 26.3146 307.687 26.1589 307.661 26.0032C307.611 25.7062 307.562 25.4091 307.514 25.112C307.459 24.7825 307.405 24.4529 307.35 24.1234C307.261 23.5827 307.171 23.0419 307.082 22.501C306.974 21.8442 306.865 21.1875 306.756 20.5308C306.749 20.485 306.741 20.4391 306.733 20.3919C306.692 20.1464 306.652 19.9009 306.611 19.6553C306.604 19.6959 306.598 19.7365 306.591 19.7783C306.429 20.7667 306.267 21.7549 306.104 22.743C306.025 23.2209 305.946 23.6987 305.868 24.1767C305.8 24.5935 305.732 25.0101 305.663 25.4267C305.626 25.6471 305.59 25.8676 305.554 26.0882C305.521 26.2961 305.486 26.5039 305.452 26.7115C305.439 26.7876 305.427 26.8636 305.414 26.9397C305.261 27.9002 305.261 27.9002 304.882 28.196C304.402 28.5203 303.665 28.3187 303.129 28.2245C303.052 28.2115 302.976 28.1985 302.899 28.1855C302.693 28.1506 302.487 28.1149 302.282 28.0791C302.066 28.0416 301.849 28.0046 301.633 27.9675C301.27 27.9052 300.908 27.8425 300.545 27.7794C300.126 27.7067 299.708 27.6348 299.289 27.5632C298.928 27.5016 298.568 27.4396 298.207 27.3772C297.992 27.34 297.777 27.3029 297.562 27.2663C297.361 27.2318 297.159 27.1968 296.957 27.1614C296.883 27.1485 296.809 27.1358 296.735 27.1234C295.824 26.9691 295.824 26.9691 295.531 26.5974C295.23 26.1559 295.415 25.5118 295.498 25.0204C295.51 24.9489 295.521 24.8774 295.533 24.8059C295.565 24.6112 295.597 24.4165 295.629 24.2219C295.664 24.0127 295.698 23.8034 295.732 23.5941C295.799 23.1872 295.866 22.7803 295.933 22.3735C296.011 21.9022 296.089 21.4308 296.166 20.9594C296.206 20.7202 296.245 20.4811 296.284 20.2419C296.292 20.1943 296.3 20.1467 296.308 20.0976C296.364 19.7579 296.42 19.4181 296.476 19.0784C296.665 17.9329 296.852 16.7873 297.038 15.6414C297.085 15.3529 297.132 15.0644 297.178 14.776C297.185 14.7362 297.191 14.6964 297.198 14.6553C297.23 14.4582 297.262 14.2611 297.294 14.0639C297.356 13.684 297.418 13.3041 297.479 12.9242C297.531 12.6032 297.583 12.2822 297.635 11.9613C297.662 11.7994 297.688 11.6374 297.714 11.4753C297.974 9.85078 297.974 9.85078 298.298 9.25439C298.312 9.22621 298.327 9.19802 298.342 9.16899C298.482 8.90889 298.652 8.67724 298.836 8.44513C298.942 8.28833 298.936 8.17508 298.935 7.99416C298.936 7.92924 298.936 7.86432 298.937 7.7994C298.938 7.69768 298.938 7.59598 298.938 7.49426C298.937 6.72718 298.937 6.72718 299.189 6.40296C299.414 6.19775 299.596 6.09355 299.907 6.09298ZM299.72 6.88092C299.66 6.99884 299.67 7.09158 299.671 7.22343C299.671 7.27412 299.671 7.3248 299.672 7.37703C299.672 7.43018 299.672 7.48334 299.673 7.5381C299.673 7.59159 299.673 7.64508 299.673 7.70019C299.674 7.83264 299.675 7.96508 299.675 8.09752C299.879 8.09752 300.084 8.09752 300.294 8.09752C300.294 7.65303 300.294 7.20853 300.294 6.75056C299.978 6.7494 299.978 6.7494 299.72 6.88092ZM301.001 6.75056C301.001 7.19506 301.001 7.63956 301.001 8.09752C301.4 8.10836 301.4 8.10836 301.799 8.1183C301.849 8.11984 301.898 8.12139 301.95 8.12298C302.001 8.12435 302.051 8.12571 302.104 8.12712C302.232 8.1404 302.308 8.15837 302.414 8.22788C302.477 8.35131 302.472 8.43882 302.458 8.57548C302.39 8.67017 302.39 8.67017 302.282 8.74928C302.164 8.76225 302.064 8.76544 301.947 8.76048C301.88 8.75984 301.814 8.75928 301.747 8.75878C301.643 8.75708 301.539 8.75472 301.435 8.75093C301.027 8.72534 301.027 8.72534 300.668 8.88234C300.587 8.99407 300.527 9.10208 300.471 9.22723C300.443 9.27546 300.416 9.32368 300.389 9.37337C300.369 9.41566 300.35 9.45794 300.33 9.50151C300.31 9.54347 300.29 9.58542 300.27 9.62864C300.081 10.0852 299.981 10.5596 299.899 11.0435C299.886 11.1167 299.873 11.1899 299.86 11.2632C299.584 12.8583 299.334 14.4581 299.077 16.0563C299.021 16.4042 298.964 16.7521 298.908 17.0999C298.873 17.3182 298.837 17.5365 298.803 17.7549C298.781 17.8897 298.759 18.0244 298.737 18.1592C298.727 18.2215 298.717 18.2839 298.707 18.3462C298.693 18.4313 298.68 18.5164 298.666 18.6015C298.654 18.6727 298.654 18.6727 298.642 18.7455C298.616 18.8697 298.583 18.9763 298.527 19.0905C298.39 19.158 298.233 19.1724 298.085 19.1339C297.966 18.9969 297.952 18.926 297.959 18.7443C297.97 18.6721 297.982 18.6001 297.994 18.5282C298 18.4871 298.007 18.446 298.013 18.4036C298.036 18.2559 298.061 18.1083 298.085 17.9608C298.104 17.8408 298.123 17.7208 298.142 17.6007C298.204 17.2099 298.268 16.8192 298.332 16.4286C298.351 16.311 298.371 16.1934 298.39 16.0757C298.45 15.7055 298.511 15.3353 298.572 14.9651C298.641 14.5416 298.711 14.118 298.779 13.6944C298.833 13.3641 298.887 13.0339 298.942 12.7037C298.974 12.5077 299.006 12.3117 299.038 12.1156C299.443 9.61819 299.443 9.6182 299.896 8.87963C299.896 8.85095 299.896 8.82228 299.896 8.79273C299.737 8.75457 299.613 8.74799 299.455 8.79273C299.283 8.95759 299.17 9.15188 299.057 9.35758C299.042 9.38383 299.028 9.41007 299.013 9.4371C298.667 10.0711 298.551 10.7674 298.438 11.4705C298.426 11.545 298.414 11.6194 298.401 11.6939C298.368 11.8958 298.335 12.0977 298.302 12.2996C298.267 12.5164 298.232 12.7332 298.196 12.9499C298.127 13.3697 298.059 13.7895 297.99 14.2094C297.911 14.6942 297.832 15.1789 297.753 15.6637C297.648 16.3029 297.544 16.942 297.44 17.5812C297.256 18.7049 297.072 19.8284 296.887 20.9518C296.842 21.2227 296.797 21.4937 296.753 21.7647C296.746 21.8018 296.74 21.839 296.734 21.8773C296.71 22.0243 296.686 22.1714 296.661 22.3185C296.598 22.7055 296.534 23.0925 296.47 23.4795C296.421 23.7741 296.372 24.0688 296.324 24.3636C296.3 24.5117 296.275 24.6599 296.251 24.808C296.224 24.9668 296.198 25.1257 296.172 25.2846C296.164 25.3304 296.157 25.3762 296.149 25.4233C296.11 25.6616 296.082 25.8881 296.097 26.1294C296.195 26.2584 296.251 26.2958 296.406 26.3467C296.51 26.3484 296.613 26.3486 296.716 26.3467C296.721 26.3148 296.726 26.283 296.731 26.2502C296.857 25.476 296.982 24.7017 297.109 23.9275C297.169 23.5532 297.23 23.1788 297.291 22.8043C297.344 22.4779 297.397 22.1516 297.45 21.8253C297.478 21.6525 297.506 21.4798 297.534 21.3069C297.56 21.1442 297.587 20.9816 297.614 20.819C297.623 20.7593 297.633 20.6996 297.643 20.6399C297.656 20.5583 297.669 20.4768 297.683 20.3953C297.69 20.3497 297.697 20.304 297.705 20.257C297.731 20.1345 297.765 20.0288 297.82 19.916C297.955 19.8498 298.069 19.8623 298.218 19.8726C298.293 19.9253 298.293 19.9253 298.35 20.0029C298.409 20.3545 298.319 20.7335 298.26 21.0802C298.251 21.1388 298.241 21.1973 298.231 21.2559C298.211 21.381 298.19 21.5061 298.169 21.6312C298.136 21.8288 298.103 22.0266 298.07 22.2244C298.007 22.6079 297.943 22.9913 297.879 23.3748C297.798 23.8642 297.716 24.3538 297.636 24.8434C297.603 25.0401 297.57 25.2367 297.537 25.4334C297.517 25.5553 297.497 25.6772 297.477 25.7991C297.463 25.8829 297.449 25.9666 297.434 26.0503C297.426 26.0998 297.418 26.1493 297.41 26.2003C297.399 26.2651 297.399 26.2651 297.388 26.3312C297.369 26.4344 297.369 26.4344 297.422 26.5205C297.535 26.552 297.535 26.552 297.675 26.5738C297.73 26.5834 297.785 26.5931 297.841 26.603C297.903 26.6133 297.964 26.6237 298.025 26.634C298.09 26.6452 298.154 26.6563 298.218 26.6675C298.393 26.6978 298.568 26.7277 298.743 26.7574C298.926 26.7886 299.109 26.8202 299.292 26.8517C299.6 26.9046 299.908 26.9573 300.216 27.0097C300.572 27.0702 300.927 27.1313 301.282 27.1926C301.624 27.2516 301.967 27.3102 302.309 27.3687C302.454 27.3935 302.599 27.4185 302.745 27.4436C302.917 27.4732 303.088 27.5025 303.26 27.5316C303.323 27.5422 303.386 27.553 303.448 27.5639C303.923 27.6511 303.923 27.6511 304.402 27.6502C304.576 27.5207 304.609 27.4054 304.642 27.1974C304.647 27.1694 304.652 27.1415 304.657 27.1126C304.672 27.0188 304.687 26.9248 304.702 26.8308C304.713 26.7629 304.724 26.6951 304.735 26.6272C304.759 26.4805 304.783 26.3338 304.807 26.187C304.844 25.9546 304.882 25.7224 304.921 25.4902C304.999 25.0212 305.076 24.5521 305.153 24.083C305.192 23.8481 305.23 23.6132 305.269 23.3783C305.4 22.5831 305.531 21.7878 305.661 20.9924C305.734 20.5501 305.807 20.1078 305.88 19.6655C305.925 19.3872 305.971 19.1088 306.017 18.8304C306.045 18.658 306.073 18.4856 306.102 18.3132C306.115 18.2335 306.128 18.1538 306.141 18.074C306.159 17.965 306.177 17.8561 306.195 17.7472C306.2 17.7158 306.205 17.6844 306.21 17.6521C306.243 17.4594 306.278 17.2753 306.346 17.0917C306.504 17.0184 306.606 16.9984 306.779 17.0211C306.976 17.165 306.983 17.531 307.021 17.7585C307.026 17.7887 307.031 17.8188 307.036 17.8499C307.053 17.95 307.07 18.0502 307.086 18.1503C307.098 18.2226 307.11 18.2949 307.122 18.3672C307.155 18.5635 307.188 18.7597 307.22 18.956C307.255 19.1638 307.289 19.3716 307.324 19.5794C307.382 19.9303 307.441 20.2812 307.499 20.6321C307.572 21.0753 307.646 21.5184 307.72 21.9616C307.784 22.3481 307.848 22.7346 307.913 23.1212C307.934 23.2476 307.955 23.3741 307.976 23.5005C308.106 24.2839 308.236 25.0672 308.36 25.8514C308.373 25.9303 308.373 25.9303 308.386 26.0107C308.423 26.242 308.459 26.4735 308.495 26.705C308.507 26.7823 308.519 26.8596 308.532 26.9368C308.536 26.9702 308.541 27.0036 308.547 27.0379C308.58 27.2452 308.635 27.4188 308.731 27.6067C309.048 27.7628 309.535 27.6053 309.866 27.5479C309.931 27.5368 309.995 27.5259 310.06 27.5149C310.235 27.4852 310.41 27.4551 310.585 27.4249C310.731 27.3997 310.877 27.3748 311.023 27.3498C311.368 27.2909 311.712 27.2317 312.057 27.1723C312.412 27.1109 312.768 27.0501 313.124 26.9896C313.429 26.9375 313.735 26.8852 314.04 26.8326C314.223 26.8012 314.405 26.7699 314.588 26.7389C314.759 26.7098 314.93 26.6803 315.101 26.6505C315.164 26.6396 315.227 26.6289 315.29 26.6182C315.376 26.6038 315.461 26.5888 315.547 26.5738C315.595 26.5656 315.643 26.5573 315.692 26.5488C315.727 26.5395 315.763 26.5301 315.799 26.5205C315.871 26.3792 315.818 26.2327 315.793 26.0817C315.787 26.0448 315.781 26.008 315.775 25.9699C315.754 25.8452 315.734 25.7206 315.713 25.596C315.698 25.5066 315.684 25.4172 315.669 25.3277C315.629 25.0826 315.589 24.8374 315.548 24.5923C315.505 24.332 315.463 24.0717 315.42 23.8113C315.342 23.3379 315.265 22.8645 315.187 22.3912C315.116 21.9591 315.044 21.527 314.974 21.0949C314.969 21.0664 314.964 21.038 314.959 21.0087C314.936 20.8651 314.912 20.7215 314.889 20.5778C314.767 19.8356 314.645 19.0933 314.523 18.351C314.326 17.1524 314.129 15.9538 313.934 14.7549C313.901 14.5496 313.867 14.3442 313.834 14.1389C313.828 14.1065 313.823 14.074 313.817 14.0406C313.797 13.9138 313.776 13.7871 313.755 13.6603C313.703 13.3373 313.65 13.0142 313.598 12.6911C313.555 12.4247 313.511 12.1584 313.467 11.8922C313.452 11.7986 313.437 11.705 313.422 11.6115C313.276 10.704 313.123 9.80252 312.619 9.00998C312.596 8.9725 312.573 8.93502 312.549 8.8964C312.425 8.7765 312.352 8.76691 312.182 8.76436C312.147 8.76494 312.112 8.76552 312.076 8.76612C312.021 8.76576 312.021 8.76576 311.964 8.7654C311.839 8.76485 311.714 8.76585 311.589 8.76684C311.5 8.76675 311.41 8.76657 311.321 8.7663C311.128 8.76592 310.936 8.76621 310.743 8.76703C310.439 8.76829 310.135 8.76795 309.83 8.76738C309.239 8.76648 308.648 8.76716 308.057 8.76805C307.304 8.76914 306.552 8.7697 305.8 8.76849C305.497 8.76805 305.194 8.7685 304.891 8.76961C304.703 8.77014 304.515 8.76996 304.327 8.76959C304.239 8.76956 304.152 8.76984 304.065 8.77044C303.946 8.77121 303.827 8.77092 303.707 8.77037C303.673 8.77085 303.638 8.77134 303.602 8.77184C303.447 8.77007 303.358 8.76124 303.232 8.66938C303.142 8.54344 303.146 8.46521 303.165 8.31478C303.254 8.18443 303.254 8.18443 303.386 8.14097C303.504 8.13639 303.62 8.13425 303.737 8.1341C303.792 8.13378 303.792 8.13378 303.847 8.13345C303.969 8.13278 304.09 8.13242 304.212 8.13205C304.299 8.13164 304.386 8.1312 304.473 8.13075C304.71 8.12957 304.947 8.12866 305.184 8.1278C305.431 8.12685 305.678 8.12566 305.925 8.12449C306.394 8.12232 306.862 8.12037 307.331 8.11849C307.864 8.11635 308.397 8.11396 308.93 8.11156C310.027 8.10661 311.124 8.10198 312.221 8.09752C312.221 7.65303 312.221 7.20853 312.221 6.75056C308.518 6.75056 304.816 6.75056 301.001 6.75056ZM312.928 6.75056C312.928 7.19506 312.928 7.63956 312.928 8.09752C313.132 8.09752 313.336 8.09752 313.546 8.09752C313.551 7.91283 313.554 7.72826 313.557 7.54353C313.559 7.49111 313.56 7.43868 313.562 7.38467C313.562 7.33426 313.563 7.28385 313.563 7.23191C313.565 7.16228 313.565 7.16228 313.566 7.09125C313.541 6.9372 313.493 6.88861 313.369 6.79401C313.211 6.73453 313.211 6.73453 312.928 6.75056Z" fill="#8F9EA2"/>
<path d="M313.861 23.2423C314.224 23.5148 314.447 23.853 314.518 24.3038C314.56 24.7305 314.473 25.1328 314.225 25.4905C313.924 25.8475 313.531 26.0491 313.066 26.0988C312.625 26.1169 312.201 26.0064 311.856 25.7274C311.529 25.4017 311.343 24.9897 311.326 24.5346C311.333 24.0745 311.52 23.6989 311.829 23.3614C312.384 22.8387 313.245 22.8291 313.861 23.2423ZM312.271 23.948C312.08 24.1826 312.013 24.3929 312.044 24.6948C312.147 25.0068 312.352 25.2041 312.638 25.3629C312.915 25.4294 313.127 25.4094 313.374 25.2743C313.577 25.1332 313.752 24.9351 313.811 24.6948C313.839 24.4194 313.798 24.2276 313.635 23.9996C313.433 23.7825 313.234 23.6706 312.933 23.6384C312.652 23.6661 312.464 23.741 312.271 23.948Z" fill="#8F9EA2"/>
<path d="M300.291 23.9625C300.414 24.0134 300.443 24.0717 300.508 24.1852C300.531 24.2245 300.553 24.2638 300.577 24.3043C300.702 24.5359 300.822 24.7698 300.94 25.0052C300.965 25.0542 300.989 25.1032 301.015 25.1537C301.063 25.2483 301.11 25.3429 301.157 25.4376C301.197 25.516 301.237 25.5942 301.279 25.6719C301.399 25.8978 301.399 25.8978 301.396 26.0561C301.341 26.2109 301.28 26.2743 301.133 26.3467C300.671 26.3339 300.209 26.2392 299.755 26.1634C299.661 26.148 299.567 26.1329 299.473 26.1182C299.337 26.0968 299.201 26.0742 299.064 26.0514C299.022 26.045 298.981 26.0387 298.938 26.0322C298.693 25.9895 298.551 25.9429 298.394 25.7384C298.361 25.6162 298.361 25.6162 298.394 25.4777C298.611 25.1393 298.982 24.8691 299.279 24.6004C299.365 24.5234 299.449 24.4459 299.534 24.3682C299.586 24.3207 299.637 24.2733 299.689 24.2258C299.713 24.2037 299.737 24.1815 299.762 24.1587C299.941 23.9953 300.037 23.9263 300.291 23.9625ZM299.918 24.974C299.873 25.0187 299.828 25.0635 299.783 25.1084C299.76 25.1312 299.737 25.154 299.714 25.1775C299.657 25.234 299.6 25.2907 299.543 25.3474C299.681 25.4231 299.808 25.458 299.963 25.4859C300.025 25.4975 300.025 25.4975 300.088 25.5094C300.217 25.5289 300.217 25.5289 300.382 25.4777C300.28 25.277 300.178 25.0762 300.073 24.8694C300.009 24.8644 300.009 24.8644 299.918 24.974Z" fill="#8F9EA2"/>
<path d="M295.858 5.17188L318.846 28.16" stroke="#DE1121" stroke-linecap="round"/>
<rect x="0.5" y="0.5" width="336" height="31" rx="15.5" stroke="#E12039"/>
</svg>
