<svg width="1192" height="113" viewBox="0 0 1192 113" fill="none" xmlns="http://www.w3.org/2000/svg">
<path d="M1032.33 17.5892C1032.49 17.5886 1032.65 17.5879 1032.81 17.5873C1033.07 17.5873 1033.07 17.5873 1033.34 17.5874C1033.52 17.5868 1033.71 17.5863 1033.9 17.5858C1034.41 17.5844 1034.93 17.5838 1035.44 17.5835C1036 17.5829 1036.55 17.5815 1037.11 17.5803C1038.45 17.5775 1039.79 17.576 1041.13 17.5748C1041.76 17.5742 1042.39 17.5734 1043.02 17.5726C1045.12 17.5702 1047.22 17.5682 1049.31 17.5671C1049.86 17.5669 1050.4 17.5666 1050.95 17.5663C1051.15 17.5662 1051.15 17.5662 1051.36 17.5661C1053.55 17.5649 1055.74 17.5613 1057.93 17.5567C1060.18 17.552 1062.43 17.5494 1064.68 17.549C1065.95 17.5487 1067.21 17.5474 1068.47 17.5438C1069.55 17.5407 1070.63 17.5395 1071.7 17.5409C1072.25 17.5416 1072.8 17.5413 1073.35 17.5385C1073.94 17.5356 1074.54 17.537 1075.13 17.5389C1075.31 17.5373 1075.48 17.5358 1075.66 17.5342C1076.77 17.5427 1077.61 17.663 1078.45 18.4571C1078.51 18.5497 1078.57 18.6423 1078.64 18.7378C1078.74 18.8761 1078.74 18.8761 1078.84 19.0173C1079.26 19.7258 1079.34 20.2627 1079.32 21.085C1079.32 21.293 1079.31 21.501 1079.31 21.709C1079.31 21.8703 1079.31 21.8703 1079.31 22.0348C1079.29 24.4415 1079.29 24.4415 1080.51 26.4421C1081.86 27.8731 1082.76 30.3771 1082.86 32.3089C1082.78 32.8336 1082.78 32.8336 1082.56 33.1982C1082.02 33.5061 1081.67 33.471 1081.05 33.4028C1080.64 33.1053 1080.53 32.8221 1080.41 32.3506C1080.38 32.2273 1080.35 32.104 1080.32 31.9769C1080.28 31.8458 1080.25 31.7147 1080.21 31.5796C1079.74 29.8469 1079.11 28.3352 1077.9 26.9529C1077.72 26.715 1077.72 26.715 1077.72 26.4304C1077.24 26.4304 1076.76 26.4304 1076.27 26.4304C1076.33 26.5412 1076.4 26.652 1076.46 26.7662C1077.69 29.0386 1078.2 31.3876 1078.62 33.9076C1078.67 34.1662 1078.71 34.4248 1078.76 34.6834C1079.22 37.3866 1079.66 40.0925 1080.11 42.7987C1080.22 43.5112 1080.34 44.2237 1080.46 44.9362C1080.71 46.4585 1080.96 47.9809 1081.21 49.5033C1081.36 50.4467 1081.52 51.3901 1081.67 52.3335C1082.24 55.7803 1082.8 59.2273 1083.37 62.6743C1083.66 64.435 1083.94 66.1957 1084.23 67.9564C1084.57 70.0232 1084.91 72.0902 1085.25 74.1573C1085.28 74.3512 1085.31 74.5451 1085.34 74.739C1085.36 74.8337 1085.38 74.9284 1085.39 75.0259C1085.5 75.6858 1085.61 76.3456 1085.72 77.0054C1085.86 77.8724 1086 78.7395 1086.14 79.6068C1086.19 79.9165 1086.24 80.2263 1086.29 80.536C1086.36 80.9506 1086.43 81.3654 1086.5 81.7802C1086.52 81.8992 1086.53 82.0183 1086.56 82.1409C1086.65 82.7397 1086.71 83.3079 1086.69 83.9165C1086.92 83.88 1087.15 83.841 1087.38 83.8009C1087.51 83.7794 1087.64 83.758 1087.78 83.7358C1088.19 83.6162 1088.34 83.5677 1088.57 83.205C1088.6 82.4388 1088.54 81.732 1088.41 80.9732C1088.39 80.817 1088.39 80.817 1088.36 80.6576C1088.3 80.3108 1088.24 79.9642 1088.19 79.6176C1088.15 79.3669 1088.1 79.1161 1088.06 78.8652C1087.95 78.1813 1087.84 77.4975 1087.72 76.8137C1087.6 76.0853 1087.48 75.3566 1087.36 74.628C1087.16 73.3837 1086.95 72.1395 1086.75 70.8954C1086.45 69.1224 1086.16 67.3493 1085.87 65.5761C1085.42 62.861 1084.97 60.146 1084.52 57.4311C1083.86 53.4194 1083.2 49.4077 1082.54 45.3954C1082.37 44.3372 1082.19 43.279 1082.02 42.2209C1081.91 41.5831 1081.81 40.9453 1081.7 40.3074C1081.65 40.0197 1081.61 39.7321 1081.56 39.4446C1081.49 39.061 1081.43 38.6773 1081.37 38.2935C1081.35 38.1838 1081.33 38.074 1081.31 37.961C1081.06 36.4211 1081.06 36.4211 1081.49 35.8395C1081.91 35.5371 1081.91 35.5371 1082.43 35.4571C1083.01 35.5512 1083.14 35.6598 1083.5 36.1063C1083.63 36.4874 1083.63 36.4874 1083.7 36.9338C1083.73 37.1048 1083.76 37.2758 1083.79 37.452C1083.82 37.643 1083.85 37.834 1083.88 38.025C1083.91 38.2292 1083.94 38.4334 1083.98 38.6375C1084.05 39.0856 1084.12 39.5339 1084.19 39.9823C1084.31 40.7211 1084.43 41.4593 1084.55 42.1975C1084.73 43.3047 1084.91 44.4122 1085.09 45.5198C1085.4 47.4509 1085.72 49.381 1086.04 51.3111C1086.15 52.008 1086.26 52.7048 1086.38 53.4017C1086.41 53.5769 1086.44 53.7521 1086.47 53.9327C1086.79 55.9145 1087.12 57.8965 1087.44 59.8786C1087.47 60.0593 1087.5 60.24 1087.53 60.4263C1087.65 61.1604 1087.77 61.8945 1087.89 62.6286C1088.1 63.9424 1088.32 65.2562 1088.53 66.57C1088.55 66.6637 1088.56 66.7575 1088.58 66.8541C1088.61 67.0431 1088.64 67.2321 1088.67 67.4211C1088.69 67.5144 1088.7 67.6077 1088.72 67.7038C1088.73 67.7969 1088.75 67.8901 1088.76 67.986C1089.02 69.527 1089.27 71.068 1089.52 72.609C1089.6 73.1265 1089.69 73.6441 1089.77 74.1617C1089.91 74.9707 1090.04 75.7797 1090.17 76.5888C1090.22 76.8836 1090.27 77.1783 1090.31 77.4731C1090.44 78.234 1090.56 78.9949 1090.69 79.7559C1090.72 79.9601 1090.75 80.1644 1090.79 80.3686C1090.83 80.6237 1090.87 80.879 1090.91 81.1342C1090.93 81.2683 1090.95 81.4024 1090.98 81.5405C1091.14 82.7177 1091.12 83.6451 1090.58 84.7202C1089.76 85.72 1088.84 86.0572 1087.59 86.2608C1087.43 86.2888 1087.28 86.3168 1087.12 86.3456C1086.77 86.407 1086.43 86.4669 1086.08 86.5255C1085.51 86.6238 1084.93 86.7262 1084.36 86.8294C1083.02 87.0679 1081.68 87.2992 1080.35 87.5299C1080.1 87.5721 1079.86 87.6142 1079.62 87.6564C1078.47 87.8541 1077.33 88.0513 1076.19 88.2481C1074.88 88.4733 1073.57 88.7 1072.26 88.9279C1071.24 89.1057 1070.22 89.282 1069.2 89.4573C1068.59 89.5614 1067.98 89.666 1067.38 89.7722C1066.81 89.8718 1066.24 89.9696 1065.67 90.0662C1065.47 90.1016 1065.26 90.1376 1065.05 90.1742C1061.28 90.8435 1061.28 90.8435 1060.01 90.0723C1058.75 89.0791 1058.54 87.768 1058.3 86.2902C1058.27 86.1153 1058.24 85.9404 1058.21 85.7602C1058.13 85.2807 1058.05 84.8011 1057.97 84.3214C1057.89 83.8114 1057.81 83.3016 1057.72 82.7918C1057.56 81.8191 1057.4 80.8462 1057.24 79.8733C1057.06 78.794 1056.88 77.7149 1056.7 76.6358C1056.41 74.8649 1056.12 73.0938 1055.83 71.3227C1055.47 69.1717 1055.12 67.021 1054.76 64.8705C1054.73 64.7204 1054.71 64.5704 1054.68 64.4158C1054.55 63.6117 1054.42 62.8076 1054.28 62.0035C1054.26 62.1364 1054.24 62.2693 1054.22 62.4062C1053.69 65.6429 1053.16 68.8793 1052.62 72.1151C1052.36 73.68 1052.11 75.245 1051.85 76.8104C1051.63 78.1751 1051.4 79.5395 1051.18 80.9036C1051.06 81.6256 1050.94 82.3477 1050.82 83.0701C1050.71 83.7509 1050.6 84.4313 1050.49 85.1114C1050.45 85.3603 1050.4 85.6094 1050.36 85.8585C1049.86 89.0039 1049.86 89.0039 1048.62 89.9728C1047.05 91.0349 1044.63 90.3744 1042.88 90.066C1042.63 90.0234 1042.38 89.9808 1042.13 89.9384C1041.45 89.824 1040.78 89.7072 1040.11 89.59C1039.4 89.467 1038.69 89.3459 1037.98 89.2244C1036.79 89.0204 1035.61 88.815 1034.42 88.6086C1033.05 88.3704 1031.68 88.1348 1030.31 87.9006C1029.12 87.6988 1027.94 87.4955 1026.76 87.2911C1026.06 87.1693 1025.35 87.048 1024.65 86.928C1023.99 86.8151 1023.33 86.7005 1022.67 86.5846C1022.43 86.5424 1022.18 86.5009 1021.94 86.46C1018.96 85.955 1018.96 85.955 1018 84.7374C1017.01 83.2917 1017.62 81.1824 1017.89 79.5731C1017.93 79.3391 1017.97 79.105 1018 78.8708C1018.11 78.2331 1018.21 77.5957 1018.32 76.9582C1018.43 76.2731 1018.55 75.5876 1018.66 74.9022C1018.88 73.5697 1019.1 72.2373 1019.32 70.9051C1019.57 69.3616 1019.83 67.8178 1020.08 66.2741C1020.21 65.4909 1020.34 64.7077 1020.47 63.9245C1020.49 63.7686 1020.52 63.6126 1020.54 63.452C1020.73 62.3393 1020.91 61.2267 1021.09 60.1141C1021.71 56.363 1022.33 52.6113 1022.93 48.8586C1023.09 47.9139 1023.24 46.9692 1023.39 46.0246C1023.41 45.8942 1023.44 45.7638 1023.46 45.6295C1023.56 44.9839 1023.67 44.3382 1023.77 43.6926C1023.98 42.4486 1024.18 41.2045 1024.38 39.9602C1024.55 38.9089 1024.72 37.8579 1024.89 36.807C1024.98 36.2766 1025.06 35.7461 1025.15 35.2154C1026 29.8953 1026 29.8953 1027.06 27.9423C1027.11 27.85 1027.16 27.7577 1027.21 27.6626C1027.66 26.8108 1028.22 26.0522 1028.82 25.2921C1029.17 24.7786 1029.15 24.4077 1029.15 23.8153C1029.15 23.6026 1029.15 23.39 1029.15 23.1774C1029.16 22.8443 1029.16 22.5113 1029.16 22.1782C1029.15 19.6661 1029.15 19.6661 1029.98 18.6044C1030.72 17.9323 1031.31 17.5911 1032.33 17.5892ZM1031.72 20.1696C1031.52 20.5558 1031.55 20.8595 1031.56 21.2912C1031.56 21.4572 1031.56 21.6232 1031.56 21.7943C1031.56 21.9683 1031.56 22.1424 1031.56 22.3217C1031.56 22.4969 1031.56 22.6721 1031.56 22.8526C1031.57 23.2863 1031.57 23.72 1031.57 24.1538C1032.24 24.1538 1032.91 24.1538 1033.6 24.1538C1033.6 22.6981 1033.6 21.2425 1033.6 19.7427C1032.56 19.7389 1032.56 19.7389 1031.72 20.1696ZM1035.91 19.7427C1035.91 21.1983 1035.91 22.654 1035.91 24.1538C1037.22 24.1892 1037.22 24.1892 1038.52 24.2218C1038.69 24.2268 1038.85 24.2319 1039.02 24.2371C1039.19 24.2416 1039.35 24.2461 1039.52 24.2507C1039.94 24.2942 1040.19 24.353 1040.54 24.5806C1040.75 24.9849 1040.73 25.2714 1040.68 25.719C1040.46 26.0291 1040.46 26.0291 1040.11 26.2881C1039.72 26.3306 1039.39 26.341 1039.01 26.3248C1038.79 26.3227 1038.57 26.3209 1038.36 26.3193C1038.01 26.3137 1037.67 26.3059 1037.33 26.2936C1036 26.2097 1036 26.2097 1034.82 26.7239C1034.56 27.0898 1034.36 27.4435 1034.17 27.8534C1034.09 28.0113 1034 28.1692 1033.91 28.3319C1033.84 28.4704 1033.78 28.6089 1033.71 28.7516C1033.65 28.889 1033.58 29.0263 1033.52 29.1679C1032.9 30.663 1032.57 32.2165 1032.3 33.8013C1032.26 34.0411 1032.22 34.2809 1032.18 34.5207C1031.27 39.7444 1030.45 44.9836 1029.61 50.2174C1029.43 51.3566 1029.24 52.4958 1029.06 53.6349C1028.94 54.3498 1028.83 55.0647 1028.71 55.7798C1028.64 56.2213 1028.57 56.6627 1028.5 57.104C1028.46 57.3081 1028.43 57.5123 1028.4 57.7165C1028.35 57.9952 1028.31 58.2737 1028.26 58.5523C1028.23 58.7857 1028.23 58.7857 1028.19 59.0239C1028.1 59.4306 1027.99 59.78 1027.81 60.1537C1027.36 60.3749 1026.85 60.4222 1026.36 60.296C1025.97 59.8472 1025.93 59.6152 1025.95 59.0201C1025.99 58.7837 1026.02 58.5478 1026.06 58.3123C1026.08 58.1776 1026.11 58.043 1026.13 57.9043C1026.2 57.4205 1026.28 56.9374 1026.36 56.4541C1026.43 56.0612 1026.49 55.6682 1026.55 55.2751C1026.75 53.995 1026.96 52.7158 1027.17 51.4367C1027.23 51.0514 1027.3 50.6662 1027.36 50.2809C1027.56 49.0685 1027.76 47.8562 1027.96 46.6439C1028.18 45.257 1028.41 43.8699 1028.64 42.4827C1028.81 41.401 1028.99 40.3195 1029.17 39.2381C1029.27 38.5963 1029.38 37.9544 1029.48 37.3123C1030.81 29.1337 1030.81 29.1337 1032.29 26.715C1032.29 26.6211 1032.29 26.5272 1032.29 26.4304C1031.77 26.3054 1031.36 26.2839 1030.85 26.4304C1030.29 26.9703 1029.92 27.6066 1029.55 28.2802C1029.5 28.3662 1029.45 28.4521 1029.4 28.5406C1028.27 30.6167 1027.89 32.8972 1027.52 35.1996C1027.48 35.4435 1027.44 35.6874 1027.4 35.9313C1027.29 36.5924 1027.18 37.2536 1027.07 37.9149C1026.96 38.6249 1026.84 39.3347 1026.73 40.0446C1026.5 41.4192 1026.28 42.794 1026.05 44.1689C1025.79 45.7566 1025.53 47.3441 1025.27 48.9316C1024.93 51.0248 1024.59 53.1179 1024.25 55.2112C1023.65 58.891 1023.04 62.5704 1022.44 66.2492C1022.29 67.1365 1022.14 68.0239 1022 68.9113C1021.98 69.0329 1021.96 69.1546 1021.94 69.28C1021.86 69.7616 1021.78 70.2433 1021.7 70.725C1021.49 71.9924 1021.28 73.2597 1021.07 74.5269C1020.91 75.4919 1020.75 76.457 1020.6 77.4222C1020.52 77.9074 1020.44 78.3925 1020.35 78.8775C1020.27 79.3976 1020.18 79.918 1020.1 80.4383C1020.07 80.5883 1020.05 80.7382 1020.02 80.8927C1019.9 81.6731 1019.8 82.4147 1019.85 83.205C1020.17 83.6274 1020.36 83.7498 1020.87 83.9165C1021.2 83.9221 1021.54 83.9228 1021.88 83.9165C1021.89 83.8123 1021.91 83.7081 1021.93 83.6007C1022.34 81.0651 1022.75 78.5296 1023.16 75.9943C1023.36 74.7682 1023.56 73.5421 1023.76 72.3159C1023.94 71.2471 1024.11 70.1784 1024.28 69.1099C1024.38 68.5441 1024.47 67.9782 1024.56 67.4123C1024.64 66.8795 1024.73 66.3468 1024.82 65.8142C1024.85 65.6188 1024.88 65.4234 1024.91 65.2279C1024.96 64.9607 1025 64.6937 1025.04 64.4267C1025.07 64.2773 1025.09 64.128 1025.12 63.974C1025.2 63.5728 1025.31 63.2265 1025.49 62.8572C1025.94 62.6403 1026.31 62.6814 1026.8 62.715C1027.04 62.8877 1027.04 62.8877 1027.23 63.1418C1027.42 64.2933 1027.13 65.5344 1026.94 66.6697C1026.9 66.8615 1026.87 67.0533 1026.84 67.2452C1026.77 67.6549 1026.71 68.0645 1026.64 68.4741C1026.53 69.1214 1026.42 69.769 1026.31 70.4166C1026.11 71.6726 1025.9 72.9283 1025.69 74.184C1025.42 75.787 1025.16 77.39 1024.89 78.9934C1024.78 79.6376 1024.68 80.2817 1024.57 80.9256C1024.5 81.3247 1024.44 81.724 1024.37 82.1233C1024.32 82.3976 1024.28 82.6718 1024.23 82.9459C1024.21 83.1081 1024.18 83.2702 1024.15 83.4373C1024.12 83.6495 1024.12 83.6495 1024.08 83.866C1024.02 84.2037 1024.02 84.2037 1024.19 84.4857C1024.56 84.5888 1024.56 84.5888 1025.02 84.6603C1025.2 84.6919 1025.38 84.7234 1025.56 84.7559C1025.77 84.7898 1025.97 84.8237 1026.17 84.8576C1026.38 84.894 1026.59 84.9305 1026.8 84.9671C1027.37 85.0664 1027.94 85.1642 1028.52 85.2616C1029.12 85.3637 1029.72 85.4671 1030.32 85.5704C1031.32 85.7437 1032.33 85.916 1033.34 86.0878C1034.51 86.286 1035.67 86.4859 1036.83 86.6867C1037.95 86.8799 1039.07 87.0719 1040.19 87.2634C1040.67 87.3448 1041.15 87.4266 1041.62 87.5088C1042.18 87.6058 1042.75 87.7017 1043.31 87.7968C1043.52 87.8318 1043.72 87.8671 1043.93 87.9028C1045.48 88.1882 1045.48 88.1882 1047.05 88.1853C1047.62 87.7612 1047.73 87.3836 1047.84 86.7025C1047.85 86.6109 1047.87 86.5193 1047.88 86.4249C1047.93 86.1175 1047.98 85.8097 1048.03 85.5019C1048.07 85.2796 1048.1 85.0575 1048.14 84.8353C1048.22 84.3549 1048.3 83.8743 1048.37 83.3935C1048.5 82.6324 1048.62 81.872 1048.75 81.1116C1049.01 79.5759 1049.26 78.0396 1049.51 76.5033C1049.64 75.7341 1049.76 74.9649 1049.89 74.1957C1050.32 71.5913 1050.75 68.9868 1051.17 66.3822C1051.41 64.9337 1051.65 63.4853 1051.89 62.0369C1052.04 61.1254 1052.19 60.2137 1052.34 59.3021C1052.43 58.7375 1052.52 58.1729 1052.62 57.6084C1052.66 57.3473 1052.7 57.0862 1052.74 56.825C1052.8 56.4681 1052.86 56.1114 1052.92 55.7547C1052.94 55.652 1052.95 55.5492 1052.97 55.4433C1053.08 54.8121 1053.19 54.2094 1053.41 53.6082C1053.93 53.3679 1054.27 53.3027 1054.83 53.377C1055.48 53.8481 1055.5 55.0468 1055.63 55.7917C1055.64 55.8905 1055.66 55.9893 1055.68 56.0911C1055.73 56.419 1055.79 56.7469 1055.84 57.0749C1055.88 57.3116 1055.92 57.5484 1055.96 57.7852C1056.07 58.4278 1056.17 59.0706 1056.28 59.7134C1056.39 60.394 1056.5 61.0745 1056.62 61.755C1056.81 62.904 1057 64.0531 1057.19 65.2021C1057.43 66.6536 1057.67 68.1049 1057.91 69.5562C1058.13 70.822 1058.34 72.0878 1058.55 73.3535C1058.61 73.7677 1058.68 74.1818 1058.75 74.5958C1059.18 77.1611 1059.61 79.7264 1060.01 82.2947C1060.05 82.5528 1060.05 82.5528 1060.1 82.8162C1060.22 83.5739 1060.34 84.3317 1060.45 85.09C1060.49 85.3431 1060.53 85.5961 1060.57 85.8492C1060.59 85.9584 1060.61 86.0677 1060.62 86.1803C1060.73 86.859 1060.91 87.4274 1061.23 88.043C1062.27 88.5539 1063.86 88.0384 1064.94 87.8502C1065.15 87.8141 1065.37 87.7781 1065.58 87.7422C1066.15 87.645 1066.72 87.5465 1067.3 87.4476C1067.78 87.3651 1068.25 87.2833 1068.73 87.2015C1069.86 87.0087 1070.99 86.8149 1072.12 86.6203C1073.28 86.4193 1074.45 86.2202 1075.61 86.0218C1076.61 85.8514 1077.61 85.68 1078.61 85.5078C1079.21 85.4049 1079.81 85.3025 1080.41 85.2009C1080.97 85.1056 1081.53 85.009 1082.09 84.9115C1082.29 84.8758 1082.5 84.8406 1082.71 84.8058C1082.99 84.7585 1083.27 84.7095 1083.55 84.6603C1083.7 84.6333 1083.86 84.6063 1084.02 84.5785C1084.14 84.5478 1084.25 84.5172 1084.37 84.4857C1084.61 84.0229 1084.44 83.5434 1084.35 83.0489C1084.33 82.9281 1084.31 82.8073 1084.29 82.6828C1084.23 82.2744 1084.16 81.8662 1084.09 81.4581C1084.04 81.1653 1084 80.8725 1083.95 80.5797C1083.82 79.7768 1083.68 78.974 1083.55 78.1713C1083.41 77.3189 1083.27 76.4662 1083.13 75.6136C1082.88 74.0633 1082.62 72.5131 1082.37 70.9629C1082.13 69.5479 1081.9 68.1329 1081.67 66.7178C1081.65 66.6246 1081.64 66.5315 1081.62 66.4356C1081.55 65.9652 1081.47 65.4949 1081.39 65.0246C1080.99 62.5937 1080.59 60.1629 1080.19 57.7321C1079.55 53.807 1078.9 49.8816 1078.26 45.9555C1078.16 45.2831 1078.05 44.6106 1077.94 43.9382C1077.92 43.8319 1077.9 43.7257 1077.88 43.6162C1077.82 43.2011 1077.75 42.786 1077.68 42.3709C1077.51 41.313 1077.34 40.255 1077.16 39.1969C1077.02 38.3247 1076.88 37.4526 1076.74 36.5806C1076.69 36.2742 1076.64 35.9677 1076.59 35.6612C1076.11 32.6896 1075.61 29.7373 1073.96 27.1419C1073.88 27.0191 1073.81 26.8964 1073.73 26.7699C1073.32 26.3773 1073.09 26.3459 1072.53 26.3375C1072.41 26.3394 1072.3 26.3413 1072.18 26.3433C1072 26.3421 1072 26.3421 1071.81 26.3409C1071.4 26.3391 1071 26.3424 1070.59 26.3456C1070.29 26.3454 1070 26.3448 1069.71 26.3439C1069.08 26.3426 1068.45 26.3436 1067.82 26.3463C1066.82 26.3504 1065.82 26.3493 1064.83 26.3474C1062.89 26.3445 1060.95 26.3467 1059.02 26.3496C1056.55 26.3532 1054.09 26.355 1051.63 26.351C1050.63 26.3496 1049.64 26.3511 1048.65 26.3547C1048.04 26.3565 1047.42 26.3559 1046.8 26.3546C1046.52 26.3546 1046.23 26.3555 1045.94 26.3574C1045.55 26.36 1045.16 26.359 1044.77 26.3572C1044.66 26.3588 1044.55 26.3604 1044.43 26.362C1043.92 26.3562 1043.63 26.3273 1043.22 26.0265C1042.92 25.6141 1042.94 25.3579 1043 24.8652C1043.29 24.4383 1043.29 24.4383 1043.72 24.296C1044.11 24.281 1044.49 24.274 1044.87 24.2735C1045.05 24.2725 1045.05 24.2725 1045.23 24.2714C1045.63 24.2692 1046.03 24.268 1046.43 24.2668C1046.71 24.2655 1047 24.264 1047.28 24.2626C1048.06 24.2587 1048.83 24.2557 1049.61 24.2529C1050.42 24.2498 1051.23 24.2459 1052.04 24.2421C1053.57 24.235 1055.11 24.2286 1056.64 24.2224C1058.39 24.2154 1060.13 24.2076 1061.88 24.1997C1065.47 24.1835 1069.06 24.1683 1072.66 24.1538C1072.66 22.6981 1072.66 21.2425 1072.66 19.7427C1060.53 19.7427 1048.4 19.7427 1035.91 19.7427ZM1074.97 19.7427C1074.97 21.1983 1074.97 22.654 1074.97 24.1538C1075.64 24.1538 1076.31 24.1538 1076.99 24.1538C1077.01 23.5489 1077.02 22.9445 1077.03 22.3395C1077.04 22.1678 1077.04 21.9962 1077.05 21.8193C1077.05 21.6542 1077.05 21.4891 1077.05 21.319C1077.06 21.091 1077.06 21.091 1077.06 20.8584C1076.98 20.3539 1076.82 20.1948 1076.42 19.885C1075.9 19.6902 1075.9 19.6902 1074.97 19.7427Z" fill="#8F9EA2"/>
<path d="M1078.03 73.7507C1079.22 74.6433 1079.94 75.7507 1080.18 77.2269C1080.31 78.6245 1080.03 79.9419 1079.22 81.1133C1078.23 82.2823 1076.94 82.9427 1075.42 83.1054C1073.98 83.1646 1072.59 82.8029 1071.46 81.8892C1070.39 80.8226 1069.78 79.4732 1069.73 77.9828C1069.75 76.476 1070.36 75.2461 1071.37 74.1409C1073.19 72.4291 1076.01 72.3976 1078.03 73.7507ZM1072.82 76.0619C1072.19 76.8303 1071.97 77.5187 1072.08 78.5075C1072.41 79.5292 1073.08 80.1754 1074.02 80.6953C1074.93 80.9133 1075.62 80.8477 1076.43 80.4051C1077.1 79.9433 1077.67 79.2945 1077.86 78.5075C1077.95 77.6055 1077.82 76.9774 1077.28 76.2309C1076.62 75.52 1075.97 75.1533 1074.99 75.0481C1074.07 75.1386 1073.45 75.3839 1072.82 76.0619Z" fill="#8F9EA2"/>
<path d="M1033.59 76.1089C1033.99 76.2756 1034.09 76.4663 1034.3 76.8382C1034.37 76.9669 1034.45 77.0955 1034.52 77.2281C1034.93 77.9865 1035.33 78.7525 1035.71 79.5234C1035.79 79.6839 1035.87 79.8444 1035.96 80.0098C1036.11 80.3194 1036.27 80.6293 1036.42 80.9394C1036.55 81.1964 1036.69 81.4524 1036.82 81.7067C1037.21 82.4466 1037.21 82.4466 1037.2 82.9651C1037.02 83.4719 1036.83 83.6797 1036.34 83.9167C1034.83 83.8749 1033.32 83.5646 1031.83 83.3164C1031.52 83.2658 1031.22 83.2164 1030.91 83.1683C1030.46 83.0982 1030.02 83.0243 1029.57 82.9496C1029.43 82.9288 1029.3 82.908 1029.15 82.8866C1028.35 82.7469 1027.89 82.5943 1027.38 81.9246C1027.27 81.5244 1027.27 81.5244 1027.38 81.0709C1028.09 79.9627 1029.3 79.0779 1030.27 78.1979C1030.55 77.9455 1030.83 77.6917 1031.11 77.4374C1031.28 77.282 1031.45 77.1265 1031.62 76.9711C1031.69 76.8986 1031.77 76.8261 1031.85 76.7514C1032.44 76.2163 1032.75 75.9903 1033.59 76.1089ZM1032.37 79.4212C1032.22 79.5675 1032.07 79.7143 1031.92 79.8614C1031.85 79.936 1031.77 80.0107 1031.7 80.0876C1031.51 80.2727 1031.32 80.4583 1031.14 80.644C1031.59 80.8921 1032 81.0063 1032.51 81.0975C1032.71 81.1358 1032.71 81.1358 1032.92 81.1748C1033.34 81.2384 1033.34 81.2384 1033.89 81.0709C1033.55 80.4135 1033.22 79.7561 1032.87 79.0788C1032.66 79.0623 1032.66 79.0623 1032.37 79.4212Z" fill="#8F9EA2"/>
<path d="M1019.07 14.5713L1094.35 89.8534" stroke="#DE1121" stroke-width="3" stroke-linecap="round"/>
<path d="M879.712 23.8688C879.892 23.868 880.072 23.8671 880.258 23.8663C880.457 23.8668 880.656 23.8674 880.855 23.8679C881.067 23.8675 881.28 23.8669 881.492 23.8663C882.075 23.8648 882.658 23.8651 883.24 23.8657C883.869 23.8661 884.498 23.8648 885.127 23.8637C886.358 23.8619 887.59 23.8617 888.821 23.862C889.822 23.8622 890.823 23.862 891.824 23.8614C891.966 23.8613 892.109 23.8612 892.255 23.8611C892.545 23.861 892.834 23.8608 893.123 23.8606C895.837 23.8591 898.55 23.8594 901.263 23.8602C903.746 23.861 906.229 23.8594 908.712 23.8567C911.261 23.8539 913.81 23.8527 916.359 23.8533C917.79 23.8535 919.221 23.8532 920.652 23.8512C921.87 23.8495 923.089 23.8493 924.307 23.851C924.929 23.8518 925.55 23.852 926.172 23.8503C926.741 23.8488 927.31 23.8492 927.879 23.8512C928.085 23.8516 928.291 23.8512 928.497 23.8501C930.496 23.8398 930.496 23.8398 931.294 24.3319C931.786 24.8916 931.864 25.55 931.977 26.257C931.998 26.3793 932.019 26.5016 932.04 26.6276C932.11 27.0382 932.177 27.4491 932.244 27.86C932.294 28.1557 932.343 28.4515 932.393 28.7472C932.529 29.5563 932.663 30.3657 932.797 31.1752C932.939 32.0368 933.084 32.8982 933.228 33.7595C933.474 35.2319 933.719 36.7045 933.964 38.1772C934.217 39.7047 934.471 41.2322 934.726 42.7595C934.742 42.8538 934.757 42.9482 934.774 43.0454C934.853 43.5222 934.933 43.999 935.012 44.4758C935.171 45.4288 935.33 46.3819 935.489 47.335C935.505 47.4291 935.52 47.5232 935.537 47.6202C935.774 49.0455 936.012 50.4709 936.249 51.8962C936.934 56.014 937.622 60.1313 938.318 64.2473C938.442 64.9814 938.566 65.7155 938.69 66.4496C938.729 66.6835 938.769 66.9175 938.808 67.1514C938.866 67.4917 938.923 67.832 938.98 68.1723C939.196 69.4525 939.413 70.7327 939.63 72.0127C939.778 72.8839 939.925 73.7553 940.071 74.6268C940.13 74.9734 940.189 75.3199 940.248 75.6663C940.327 76.1298 940.405 76.5935 940.482 77.0573C940.505 77.1889 940.528 77.3205 940.552 77.456C940.932 79.7649 940.932 79.7649 940.413 80.4663C939.873 80.8988 939.414 81.0102 938.739 81.1042C938.607 81.1255 938.475 81.1469 938.339 81.1689C938.031 81.218 937.723 81.2654 937.415 81.3114C936.823 81.3998 936.232 81.4931 935.641 81.5868C934.273 81.8027 932.904 82.0116 931.535 82.2199C930.842 82.3253 930.15 82.4312 929.458 82.537C928.298 82.7142 927.138 82.891 925.979 83.0676C924.641 83.2714 923.303 83.4756 921.965 83.6802C920.672 83.878 919.378 84.0755 918.084 84.2728C917.536 84.3564 916.988 84.44 916.44 84.5238C915.796 84.6223 915.151 84.7205 914.507 84.8185C914.271 84.8544 914.035 84.8903 913.8 84.9264C910.276 85.4657 910.276 85.4657 909.386 84.9484C908.892 84.3187 908.735 83.592 908.535 82.8396C908.496 82.6996 908.458 82.5595 908.419 82.4152C908.292 81.9529 908.168 81.4903 908.043 81.0276C907.956 80.7055 907.868 80.3835 907.78 80.0616C907.55 79.214 907.32 78.3661 907.091 77.5181C906.858 76.6569 906.624 75.796 906.39 74.9351C906.127 73.967 905.864 72.9989 905.602 72.0306C905.542 71.8091 905.542 71.8091 905.481 71.5832C905.406 71.3089 905.332 71.0346 905.258 70.7602C905.225 70.6377 905.192 70.5153 905.158 70.3891C905.127 70.2748 905.096 70.1604 905.064 70.0426C904.982 69.7503 904.894 69.4609 904.803 69.171C904.68 68.7271 904.68 68.7271 904.68 68.1579C904.583 68.1579 904.486 68.1579 904.386 68.1579C904.37 68.3162 904.353 68.4745 904.336 68.6377C904.243 69.3518 904.059 70.0328 903.865 70.7267C903.827 70.8652 903.789 71.0037 903.75 71.1464C903.625 71.6015 903.498 72.0563 903.372 72.5112C903.284 72.829 903.197 73.1469 903.109 73.4647C902.925 74.1299 902.741 74.7949 902.556 75.4598C902.32 76.3102 902.085 77.1609 901.851 78.0118C901.67 78.6679 901.488 79.3239 901.307 79.9798C901.22 80.2934 901.133 80.607 901.047 80.9206C900.926 81.3597 900.804 81.7985 900.682 82.2373C900.646 82.3658 900.611 82.4943 900.575 82.6267C899.958 84.8317 899.958 84.8317 899.24 85.233C897.715 85.4553 896.079 85.0829 894.572 84.8479C894.299 84.8064 894.027 84.765 893.754 84.7238C893.018 84.6122 892.283 84.4988 891.548 84.385C890.933 84.29 890.317 84.196 889.702 84.1019C888.252 83.8801 886.802 83.6568 885.352 83.4326C883.857 83.2014 882.361 82.9724 880.865 82.7445C879.579 82.5484 878.293 82.3511 877.007 82.1528C876.24 82.0345 875.472 81.9167 874.705 81.7999C873.984 81.6902 873.264 81.579 872.544 81.4667C872.28 81.4257 872.016 81.3853 871.751 81.3454C871.39 81.2909 871.03 81.2345 870.67 81.1776C870.565 81.1622 870.46 81.1469 870.352 81.131C869.612 81.0112 869.072 80.8275 868.566 80.2793C868.016 79.4365 868.403 78.1044 868.565 77.1697C868.598 76.9731 868.598 76.9731 868.631 76.7725C868.704 76.3361 868.779 75.9001 868.854 75.464C868.907 75.1486 868.96 74.8332 869.013 74.5178C869.157 73.6585 869.303 72.7994 869.449 71.9404C869.604 71.027 869.758 70.1134 869.911 69.1998C870.174 67.6431 870.437 66.0865 870.701 64.53C870.973 62.9198 871.246 61.3096 871.518 59.6993C871.535 59.5998 871.552 59.5004 871.569 59.3979C871.687 58.6954 871.806 57.9929 871.925 57.2903C871.941 57.1912 871.958 57.092 871.975 56.9898C872.127 56.0915 872.279 55.1933 872.43 54.295C872.598 53.3031 872.765 52.3112 872.933 51.3193C873.713 46.7083 874.487 42.0966 875.244 37.482C875.337 36.9159 875.43 36.3497 875.524 35.7836C875.594 35.3587 875.663 34.9338 875.733 34.5088C875.75 34.4079 875.767 34.3069 875.784 34.2028C875.958 33.1407 876.132 32.0785 876.303 31.0159C876.444 30.1469 876.586 29.2782 876.729 28.4097C876.779 28.1046 876.828 27.7993 876.877 27.494C876.941 27.0899 877.008 26.6864 877.075 26.2829C877.093 26.1679 877.11 26.0529 877.128 25.9344C877.248 25.2372 877.425 24.7351 877.92 24.1896C878.532 23.9435 879.053 23.8693 879.712 23.8688ZM880.273 27.0354C880.03 28.4441 879.787 29.8528 879.537 31.3042C886.961 31.3042 894.385 31.3042 902.034 31.3042C903.139 29.6406 903.139 29.6406 902.916 27.0354C895.444 27.0354 887.971 27.0354 880.273 27.0354ZM906.151 27.0354C905.928 29.6406 905.928 29.6406 907.033 31.3042C914.457 31.3042 921.881 31.3042 929.529 31.3042C929.287 29.8955 929.044 28.4868 928.794 27.0354C921.322 27.0354 913.85 27.0354 906.151 27.0354ZM879.096 34.2923C878.864 35.1703 878.864 35.1703 878.686 36.0504C878.667 36.1597 878.649 36.269 878.629 36.3816C878.601 36.5561 878.601 36.5561 878.571 36.7341C878.55 36.8607 878.529 36.9874 878.507 37.1178C878.436 37.54 878.365 37.9622 878.295 38.3845C878.244 38.6886 878.193 38.9927 878.142 39.2968C878.003 40.124 877.865 40.9513 877.727 41.7786C877.581 42.6545 877.434 43.5304 877.287 44.4062C877.039 45.8861 876.792 47.366 876.545 48.846C876.202 50.8968 875.859 52.9474 875.515 54.9981C875.125 57.3301 874.735 59.6622 874.345 61.9944C874.316 62.1666 874.287 62.3388 874.258 62.5162C874.087 63.5364 874.087 63.5364 873.917 64.5565C873.575 66.6018 873.232 68.6468 872.888 70.6916C872.771 71.387 872.654 72.0825 872.537 72.7779C872.434 73.3938 872.33 74.0097 872.225 74.6255C872.15 75.0723 872.075 75.5192 872 75.9661C871.973 76.1215 871.947 76.2769 871.92 76.4371C871.896 76.5774 871.873 76.7177 871.849 76.8622C871.828 76.9823 871.808 77.1024 871.787 77.2262C871.732 77.589 871.732 77.589 871.745 78.1184C872.962 78.3995 874.192 78.5887 875.427 78.7794C875.664 78.8163 875.902 78.8533 876.139 78.8902C876.913 79.0107 877.687 79.1304 878.462 79.25C878.729 79.2913 878.996 79.3327 879.263 79.374C880.516 79.5678 881.77 79.7613 883.023 79.9543C884.47 80.1771 885.916 80.4012 887.363 80.6264C888.482 80.8006 889.601 80.9736 890.72 81.1456C891.389 81.2483 892.057 81.3516 892.725 81.4562C893.352 81.5543 893.979 81.6509 894.607 81.7463C894.838 81.7816 895.068 81.8176 895.299 81.854C895.612 81.9036 895.926 81.9512 896.24 81.9982C896.503 82.039 896.503 82.039 896.773 82.0806C896.908 82.0878 897.043 82.0951 897.182 82.1025C897.505 81.7897 897.549 81.6476 897.663 81.2294C897.697 81.1059 897.731 80.9824 897.767 80.8552C897.803 80.7192 897.84 80.5833 897.877 80.4432C897.916 80.3001 897.956 80.157 897.996 80.0096C898.127 79.5324 898.256 79.055 898.385 78.5775C898.477 78.2424 898.569 77.9073 898.66 77.5723C898.903 76.6842 899.145 75.7957 899.387 74.9072C899.627 74.0239 899.868 73.1408 900.109 72.2577C900.18 71.9999 900.18 71.9999 900.251 71.7368C900.705 70.0762 901.16 68.4161 901.617 66.7562C901.735 66.3261 901.852 65.8959 901.97 65.4657C902.139 64.8467 902.311 64.2282 902.484 63.6102C902.544 63.3924 902.604 63.1744 902.664 62.9562C902.743 62.6631 902.826 62.3707 902.909 62.0785C902.975 61.8379 902.975 61.8379 903.043 61.5926C903.227 61.1442 903.414 60.9192 903.798 60.6164C904.356 60.4364 904.636 60.4609 905.201 60.6278C905.71 60.901 905.71 60.901 905.937 61.3178C906.008 61.5801 906.008 61.5801 906.081 61.8476C906.109 61.9466 906.138 62.0456 906.167 62.1477C906.229 62.3693 906.29 62.5914 906.348 62.814C906.45 63.1965 906.557 63.5773 906.665 63.9581C906.874 64.6998 907.078 65.4428 907.281 66.1864C907.417 66.6849 907.553 67.1833 907.689 67.6816C907.98 68.7414 908.269 69.8014 908.559 70.8615C908.893 72.088 909.229 73.3145 909.565 74.5409C909.697 75.0252 909.829 75.5098 909.961 75.9943C910.52 78.0402 911.115 80.074 911.738 82.1025C922.268 80.5184 922.268 80.5184 932.796 78.919C933.184 78.8596 933.573 78.8005 933.961 78.7415C934.487 78.6617 935.012 78.5814 935.537 78.5008C935.762 78.4667 935.762 78.4667 935.992 78.4319C936.126 78.4112 936.26 78.3904 936.399 78.369C936.572 78.3425 936.572 78.3425 936.749 78.3155C937.039 78.2707 937.039 78.2707 937.322 78.1184C937.108 76.3182 936.821 74.5332 936.519 72.7451C936.467 72.4394 936.416 72.1338 936.365 71.8281C936.226 71.0021 936.087 70.1762 935.948 69.3503C935.801 68.4748 935.654 67.5993 935.507 66.7237C935.259 65.247 935.011 63.7702 934.762 62.2936C934.326 59.6968 933.889 57.1 933.453 54.5031C933.392 54.1416 933.332 53.7801 933.271 53.4185C933.226 53.152 933.226 53.152 933.18 52.88C933.002 51.8165 932.823 50.7531 932.644 49.6896C932.124 46.5942 931.603 43.4988 931.091 40.4022C931.054 40.1835 931.018 39.9649 930.982 39.7463C930.824 38.7949 930.667 37.8434 930.511 36.8917C930.459 36.5778 930.407 36.2638 930.355 35.9499C930.333 35.8113 930.31 35.6726 930.287 35.5298C930.267 35.4062 930.246 35.2826 930.225 35.1552C930.208 35.0492 930.19 34.9433 930.172 34.8342C930.127 34.5641 930.127 34.5641 929.971 34.2923C922.935 34.2923 915.899 34.2923 908.65 34.2923C908.835 34.8293 908.986 35.2619 909.245 35.7497C909.304 35.8604 909.362 35.971 909.422 36.0851C909.485 36.202 909.547 36.319 909.611 36.4395C909.744 36.6916 909.876 36.9436 910.008 37.1957C910.216 37.5901 910.425 37.9842 910.634 38.3778C910.837 38.7597 911.037 39.1425 911.238 39.5255C911.301 39.6422 911.363 39.7588 911.428 39.8791C911.849 40.6871 912.168 41.3981 911.885 42.3052C911.591 42.6876 911.591 42.6876 911.113 42.901C910.46 42.9853 910.138 42.9422 909.533 42.6876C909.225 42.3281 909.034 41.9275 908.831 41.5065C908.769 41.3866 908.708 41.2667 908.645 41.1432C908.514 40.8881 908.385 40.6323 908.258 40.3758C908.066 39.9912 907.869 39.6095 907.669 39.2285C907.276 38.477 906.888 37.7233 906.5 36.9692C906.365 36.7073 906.23 36.4454 906.095 36.1836C905.77 35.5533 905.446 34.9229 905.122 34.2923C904.733 34.2923 904.345 34.2923 903.945 34.2923C903.867 34.4465 903.867 34.4465 903.786 34.6037C903.292 35.5717 902.797 36.539 902.3 37.5058C902.045 38.0028 901.79 38.5001 901.536 38.9978C901.291 39.478 901.045 39.9577 900.798 40.4371C900.704 40.6201 900.611 40.8033 900.518 40.9868C900.387 41.2435 900.255 41.4995 900.123 41.7554C900.048 41.9014 899.973 42.0474 899.896 42.1978C899.617 42.6493 899.353 42.7976 898.836 42.9455C898.214 42.9802 897.865 42.8449 897.329 42.5453C897.002 42.0713 897.012 41.6894 897.102 41.1358C897.269 40.5114 897.599 39.9511 897.904 39.381C897.975 39.2441 898.047 39.1072 898.121 38.9662C898.348 38.531 898.578 38.0969 898.808 37.6629C899.038 37.2262 899.268 36.7892 899.497 36.352C899.64 36.0804 899.783 35.8091 899.927 35.5382C900.023 35.355 900.023 35.355 900.122 35.1682C900.179 35.0606 900.236 34.953 900.295 34.8421C900.436 34.582 900.436 34.582 900.416 34.2923C893.381 34.2923 886.345 34.2923 879.096 34.2923Z" fill="#8F9EA2"/>
<path d="M865.678 15.7852L940.96 91.0672" stroke="#DE1121" stroke-width="3" stroke-linecap="round"/>
<path d="M742.534 20.5533C744.888 22.552 746.267 25.0204 746.651 28.0326C746.685 28.6953 746.679 29.3556 746.67 30.019C746.668 30.2118 746.667 30.4046 746.666 30.5974C746.663 31.0092 746.659 31.421 746.655 31.8328C746.649 32.4862 746.647 33.1397 746.646 33.7932C746.645 33.9596 746.645 33.9596 746.645 34.1293C746.644 34.3559 746.644 34.5826 746.644 34.8092C746.64 36.3277 746.635 37.846 746.618 39.3644C746.607 40.3927 746.602 41.4209 746.604 42.4493C746.605 42.9916 746.603 43.5335 746.593 44.0757C746.489 47.0433 746.489 47.0433 747.895 49.5851C748.046 49.7354 748.199 49.8834 748.355 50.0287C748.653 50.3181 748.885 50.6439 749.121 50.9816C749.194 51.0834 749.268 51.1852 749.345 51.2901C749.449 51.4346 749.449 51.4346 749.555 51.5819C749.631 51.687 749.707 51.7921 749.786 51.9004C749.966 52.1497 750.147 52.3994 750.327 52.6491C751.284 51.3967 752.227 50.1362 753.15 48.8603C753.221 48.7625 753.292 48.6646 753.365 48.5638C753.428 48.4768 753.491 48.3897 753.556 48.3001C753.709 48.0958 753.709 48.0958 753.856 47.9535C753.871 47.7008 753.875 47.4475 753.876 47.1944C753.877 46.9474 753.877 46.9474 753.878 46.6953C753.878 46.5129 753.879 46.3305 753.879 46.1425C753.879 45.9497 753.88 45.7569 753.881 45.5641C753.883 45.1475 753.884 44.7309 753.885 44.3144C753.886 43.6539 753.889 42.9934 753.893 42.333C753.902 40.4543 753.91 38.5756 753.915 36.6969C753.917 35.6602 753.922 34.6236 753.928 33.587C753.931 33.039 753.933 32.4911 753.933 31.9432C753.934 31.4257 753.936 30.9084 753.94 30.391C753.941 30.1142 753.941 29.8375 753.94 29.5607C753.971 26.365 755.041 23.6041 757.315 21.2564C758.507 20.1453 759.812 19.3547 761.354 18.7836C761.508 18.7247 761.662 18.6658 761.821 18.6051C765.639 17.3832 770.221 18.3006 773.764 19.9433C775.201 20.6425 776.478 21.4378 777.675 22.4832C777.86 22.6339 777.86 22.6339 778.048 22.7878C781.746 25.8629 783.853 30.3543 784.292 35.0049C784.349 36.0856 784.336 37.1673 784.325 38.249C784.32 38.7746 784.319 39.3001 784.319 39.8257C784.318 41.3178 784.314 42.8097 784.3 44.3017C784.292 45.2203 784.291 46.1387 784.293 47.0573C784.293 47.4043 784.29 47.7514 784.285 48.0984C784.254 50.2351 784.367 51.5323 785.762 53.2183C786.944 55.4576 787.111 57.8278 786.388 60.2295C785.629 62.4073 783.909 64.327 781.939 65.5977C781.873 65.9001 781.873 65.9001 781.884 66.256C781.882 66.4641 781.882 66.4641 781.88 66.6765C781.881 66.9058 781.881 66.9058 781.883 67.1397C781.882 67.3003 781.881 67.4609 781.88 67.6264C781.879 67.9764 781.878 68.3264 781.879 68.6764C781.88 69.2317 781.878 69.7869 781.875 70.3422C781.869 71.5235 781.867 72.7049 781.866 73.8862C781.864 75.2495 781.861 76.6128 781.854 77.976C781.852 78.5206 781.853 79.0652 781.853 79.6098C781.845 83.1109 781.238 85.8397 778.728 88.4929C776.173 90.8938 773.106 91.1635 769.725 91.1422C769.149 91.1392 768.572 91.1422 767.995 91.1458C764.425 91.1497 764.425 91.1497 762.825 90.4989C762.592 90.4061 762.592 90.4061 762.355 90.3115C760.052 89.3433 758.2 87.4222 757.236 85.1962C756.706 83.7818 756.48 82.4445 756.485 80.9459C756.485 80.8028 756.485 80.6597 756.485 80.5123C756.486 80.0412 756.487 79.57 756.488 79.0988C756.488 78.7714 756.488 78.4441 756.488 78.1167C756.489 77.2563 756.49 76.3959 756.492 75.5356C756.494 74.6571 756.494 73.7786 756.495 72.9002C756.497 71.1775 756.499 69.4548 756.502 67.7321C756.41 67.6893 756.318 67.6464 756.224 67.6023C755.898 67.4397 755.68 67.263 755.416 67.019C755.324 66.9351 755.232 66.8512 755.138 66.7648C755.042 66.6761 754.947 66.5873 754.848 66.4959C754.649 66.3139 754.45 66.1319 754.251 65.9501C754.157 65.8636 754.062 65.777 753.965 65.6879C753.378 65.1559 752.765 64.6533 752.156 64.1459C751.483 63.5752 750.942 63.0608 750.474 62.325C750.377 62.325 750.28 62.325 750.18 62.325C749.979 62.5555 749.979 62.5555 749.766 62.8586C748.815 64.0799 747.557 65.0588 746.364 66.0529C745.828 66.5094 745.308 66.9841 744.786 67.4558C744.445 67.7321 744.445 67.7321 744.151 67.7321C744.153 68.0009 744.153 68.0009 744.154 68.2751C744.163 69.9706 744.17 71.6661 744.174 73.3616C744.176 74.2332 744.179 75.1046 744.184 75.9762C744.189 76.8185 744.192 77.6608 744.193 78.5032C744.194 78.8232 744.195 79.1433 744.198 79.4633C744.223 83.0084 743.635 85.7992 741.087 88.4929C738.532 90.8938 735.465 91.1635 732.084 91.1422C731.508 91.1392 730.931 91.1422 730.354 91.1458C726.784 91.1497 726.784 91.1497 725.184 90.4989C724.951 90.4061 724.951 90.4061 724.714 90.3115C722.411 89.3433 720.559 87.4222 719.595 85.1962C719.04 83.7148 718.839 82.3409 718.857 80.7725C718.859 80.4377 718.861 80.1028 718.864 79.768C718.865 79.5911 718.866 79.4142 718.868 79.2319C718.875 78.1946 718.874 77.1574 718.875 76.1201C718.876 75.024 718.879 73.9279 718.891 72.8318C718.901 71.8657 718.902 70.8999 718.899 69.9337C718.899 69.5663 718.902 69.1989 718.908 68.8316C719.044 66.8509 719.044 66.8509 718.361 65.0629C717.985 64.6916 717.564 64.431 717.097 64.1748C715.223 62.7819 714.203 60.7212 713.862 58.4831C713.666 56.3563 714.095 54.2948 715.332 52.5068C715.403 52.431 715.474 52.3553 715.547 52.2772C716.272 51.4679 716.339 50.8272 716.321 49.78C716.322 49.6246 716.323 49.4692 716.324 49.309C716.326 48.7969 716.321 48.285 716.317 47.7728C716.318 47.4141 716.319 47.0553 716.32 46.6965C716.323 45.8481 716.322 44.9997 716.319 44.1513C716.313 42.5488 716.313 40.9462 716.317 39.3437C716.317 38.8214 716.315 38.2992 716.312 37.7769C716.3 32.0622 718.016 27.2416 722.187 23.0968C727.363 18.3402 736.519 15.9549 742.534 20.5533ZM731.065 21.2025C730.885 21.251 730.705 21.2994 730.519 21.3493C726.375 22.5743 722.91 25.3989 720.874 29.082C719.309 32.0227 718.935 34.9597 718.965 38.2304C718.966 38.5009 718.967 38.7713 718.967 39.0418C718.969 39.7438 718.973 40.4458 718.978 41.1478C718.982 41.8681 718.984 42.5884 718.987 43.3087C718.991 44.7147 718.999 46.1206 719.008 47.5266C719.388 47.1651 719.715 46.82 720.01 46.3905C720.123 46.2279 720.123 46.2279 720.238 46.062C720.357 45.8889 720.357 45.8889 720.479 45.7124C721.094 44.8293 721.722 43.9619 722.39 43.1155C723.121 42.1882 723.804 41.2352 724.48 40.2698C725.035 39.4783 725.608 38.7025 726.197 37.9342C726.805 37.139 727.395 36.3316 727.982 35.5217C728.052 35.4255 728.121 35.3292 728.193 35.23C728.255 35.1452 728.316 35.0604 728.379 34.9731C728.565 34.7203 728.565 34.7203 728.806 34.4467C729.048 34.0909 729.061 33.8883 729.061 33.4658C729.063 33.3343 729.065 33.2027 729.068 33.0672C729.069 32.9289 729.07 32.7906 729.071 32.6482C729.108 31.2871 729.283 30.2417 729.981 29.0464C730.952 28.2054 731.946 27.9076 733.244 27.9653C734.142 28.0944 734.85 28.3804 735.458 29.0464C736.163 30.0193 736.378 30.8325 736.354 32.0086C736.334 33.7806 736.682 34.7253 737.891 36.0255C738.295 36.4793 738.636 36.9751 738.987 37.4683C739.134 37.6725 739.283 37.8765 739.431 38.0803C739.506 38.1827 739.58 38.2852 739.657 38.3908C740.127 39.0317 740.605 39.6672 741.081 40.3033C741.49 40.8495 741.896 41.3977 742.296 41.95C742.376 42.0605 742.456 42.171 742.539 42.2849C742.691 42.4954 742.843 42.7063 742.994 42.9174C743.063 43.0119 743.131 43.1065 743.201 43.2039C743.261 43.2867 743.32 43.3695 743.381 43.4548C743.572 43.6954 743.781 43.8995 744.004 44.1116C744.018 42.0916 744.028 40.0716 744.035 38.0515C744.038 37.1133 744.042 36.1752 744.049 35.237C744.055 34.3301 744.058 33.4232 744.06 32.5162C744.061 32.1718 744.063 31.8273 744.066 31.4829C744.097 28.0917 743.68 25.5085 741.25 22.9239C740.629 22.3385 739.919 21.962 739.152 21.5849C739.054 21.5369 738.957 21.4888 738.856 21.4392C737.605 20.8516 736.476 20.7239 735.099 20.7312C734.865 20.7322 734.865 20.7322 734.626 20.7333C733.387 20.7511 732.261 20.8759 731.065 21.2025ZM761.942 21.3448C761.805 21.4035 761.668 21.4622 761.526 21.5227C759.319 22.5742 758.028 24.2918 757.097 26.4368C756.707 27.5977 756.607 28.7136 756.616 29.9286C756.616 30.0828 756.616 30.2371 756.616 30.396C756.616 30.9011 756.618 31.4061 756.621 31.9111C756.621 32.2632 756.621 32.6153 756.622 32.9674C756.623 33.8904 756.626 34.8135 756.629 35.7366C756.632 36.6799 756.633 37.6233 756.635 38.5666C756.638 40.415 756.643 42.2633 756.649 44.1116C757.036 43.7435 757.371 43.387 757.678 42.9543C757.759 42.841 757.84 42.7276 757.924 42.6107C758.01 42.4897 758.095 42.3687 758.184 42.244C758.368 41.9862 758.553 41.7284 758.738 41.4708C758.831 41.341 758.925 41.2112 759.021 41.0774C759.431 40.5102 759.85 39.9494 760.27 39.3893C760.974 38.4504 761.676 37.51 762.355 36.5542C762.665 36.1207 762.968 35.7205 763.338 35.3323C764.268 34.3383 764.273 33.3772 764.251 32.0875C764.239 30.9277 764.524 30.0568 765.122 29.0553C765.937 28.3291 766.789 27.9879 767.897 27.9436C768.835 27.9853 769.578 28.1816 770.324 28.744C771.252 29.7436 771.526 30.772 771.48 32.0911C771.441 33.9842 772.05 34.9929 773.292 36.4027C773.725 36.9064 774.113 37.4408 774.505 37.9752C774.664 38.1883 774.823 38.4014 774.982 38.6144C775.582 39.423 776.17 40.2401 776.758 41.0569C777.409 41.958 778.07 42.8508 778.737 43.74C779.38 44.5974 780.011 45.4623 780.635 46.3325C780.704 46.427 780.772 46.5215 780.842 46.6189C780.902 46.7017 780.961 46.7845 781.022 46.8699C781.213 47.1104 781.422 47.3145 781.645 47.5266C781.656 45.9778 781.663 44.429 781.668 42.8801C781.67 42.1606 781.673 41.4412 781.678 40.7217C781.683 40.0251 781.686 39.3285 781.687 38.632C781.688 38.3685 781.689 38.105 781.692 37.8416C781.729 33.6443 780.817 29.5272 777.822 26.3251C777.725 26.211 777.628 26.0969 777.528 25.9793C775.021 23.1117 771.228 21.2025 767.383 20.7757C765.522 20.677 763.669 20.5822 761.942 21.3448ZM732.039 30.7005C731.661 31.2076 731.642 31.5772 731.669 32.1824C731.713 34.3083 731.425 35.5352 729.988 37.1404C729.579 37.611 729.228 38.1184 728.869 38.6244C728.181 39.5712 727.481 40.5093 726.78 41.4463C726.242 42.1651 725.711 42.8878 725.184 43.6136C724.577 44.4481 723.964 45.2776 723.346 46.1037C722.502 47.2303 721.671 48.3646 720.844 49.5026C720.549 49.9081 720.253 50.3128 719.956 50.7175C719.663 51.1185 719.372 51.5204 719.08 51.9222C718.858 52.2259 718.635 52.5281 718.411 52.8303C717.154 54.5438 716.347 56.0396 716.509 58.1985C716.871 60.2075 717.997 61.6223 719.572 62.9158C719.929 63.2106 720.277 63.5141 720.626 63.8191C721.16 64.2856 721.697 64.7482 722.242 65.2036C722.457 65.3873 722.669 65.575 722.878 65.765C723.05 65.9199 723.05 65.9199 723.226 66.0779C723.33 66.173 723.434 66.268 723.54 66.3659C723.904 66.6248 724.148 66.7022 724.596 66.736C724.931 66.5736 725.212 66.4244 725.478 66.1669C725.588 65.6881 725.62 65.4887 725.478 65.0285C724.996 64.4423 724.44 63.9584 723.86 63.4633C723.756 63.3722 723.651 63.281 723.543 63.1871C723.358 63.0288 723.172 62.872 722.984 62.7169C722.503 62.3163 722.035 61.9007 721.566 61.4874C721.216 61.1811 721.216 61.1811 720.831 60.9071C720.461 60.6029 720.253 60.3286 720.01 59.9238C719.938 59.8068 719.866 59.6898 719.792 59.5692C719.148 58.337 719.099 56.9519 719.405 55.6161C719.827 54.508 720.572 53.6196 721.314 52.698C721.827 52.0569 722.298 51.3914 722.767 50.7193C723.403 49.8097 724.054 48.9149 724.729 48.0325C725.228 47.3812 725.713 46.7223 726.195 46.0592C726.807 45.2157 727.426 44.3771 728.051 43.5424C728.687 42.6923 729.319 41.839 729.944 40.9812C730.017 40.8809 730.09 40.7806 730.166 40.6774C730.478 40.2493 730.787 39.82 731.089 39.3854C731.178 39.2575 731.267 39.1297 731.359 38.998C731.432 38.891 731.505 38.7841 731.58 38.6739C731.846 38.3672 731.989 38.2496 732.388 38.1353C733.367 38.1056 733.367 38.1056 733.808 38.4893C734.05 38.7854 734.263 39.0897 734.474 39.407C734.64 39.6424 734.806 39.8777 734.972 40.1129C735.055 40.2338 735.139 40.3546 735.225 40.4791C735.616 41.0389 736.029 41.5828 736.441 42.1284C737.131 43.0503 737.811 43.9783 738.488 44.9092C739.022 45.6435 739.563 46.3725 740.108 47.0997C740.8 48.024 741.484 48.9534 742.162 49.8875C742.628 50.5295 743.102 51.1662 743.58 51.8007C745.192 53.945 745.192 53.945 745.769 54.9258C745.821 55.014 745.874 55.1022 745.928 55.1931C746.434 56.2298 746.371 57.6688 746.108 58.7644C745.524 60.2926 744.366 61.2782 743.122 62.325C743.018 62.413 742.915 62.5011 742.808 62.5918C742.621 62.7502 742.434 62.9082 742.247 63.0659C741.65 63.5714 741.06 64.0833 740.475 64.6017C740.389 64.6745 740.304 64.7473 740.215 64.8223C739.984 65.0462 739.984 65.0462 739.979 65.5177C740.036 66.0432 740.073 66.2447 740.475 66.5938C740.822 66.7486 740.822 66.7486 741.211 66.736C741.824 66.4346 742.304 66.0162 742.8 65.5621C742.957 65.4209 743.114 65.2797 743.271 65.1386C743.346 65.0705 743.422 65.0024 743.5 64.9322C743.857 64.6124 744.226 64.3046 744.593 63.9958C745.066 63.5957 745.531 63.1871 745.996 62.7785C746.221 62.5848 746.448 62.3944 746.681 62.2094C748.107 61.0714 748.864 59.6522 749.055 57.8611C749.113 55.7547 748.196 54.2239 746.936 52.578C746.765 52.3528 746.595 52.1275 746.425 51.9021C746.34 51.7893 746.254 51.6765 746.167 51.5602C745.783 51.0497 745.408 50.5334 745.033 50.0167C744.431 49.1873 743.821 48.3643 743.205 47.5444C742.545 46.6655 741.904 45.7759 741.275 44.8764C740.619 43.9394 739.938 43.0281 739.229 42.1281C738.574 41.2919 737.965 40.4289 737.358 39.5602C736.916 38.9289 736.465 38.306 735.995 37.6935C735.793 37.4299 735.594 37.1641 735.396 36.898C735.177 36.6075 734.958 36.3433 734.711 36.0732C733.83 35.0157 733.893 33.8582 733.897 32.5532C733.897 32.3278 733.897 32.3278 733.898 32.0979C733.901 31.9626 733.903 31.8272 733.906 31.6878C733.849 31.2234 733.71 30.9638 733.418 30.5938C732.829 30.4177 732.547 30.3381 732.039 30.7005ZM767.181 30.7094C766.801 31.204 766.784 31.4482 766.81 32.0573C766.854 34.2208 766.613 35.505 765.137 37.1354C764.699 37.6336 764.318 38.1709 763.927 38.7045C763.767 38.9194 763.606 39.1341 763.446 39.3487C762.69 40.3608 761.949 41.3827 761.207 42.4041C760.229 43.751 759.244 45.0928 758.246 46.4263C757.484 47.4457 756.734 48.4733 755.986 49.5026C755.691 49.9081 755.394 50.3128 755.098 50.7175C754.805 51.1185 754.513 51.5204 754.221 51.9222C754 52.2259 753.776 52.5281 753.553 52.8303C752.831 53.8147 752.15 54.7477 751.797 55.9218C751.769 56.0103 751.742 56.0987 751.713 56.1898C751.374 57.8075 751.764 59.3415 752.614 60.7375C753.194 61.577 753.911 62.2558 754.703 62.9064C755.09 63.2268 755.465 63.5579 755.841 63.8902C756.403 64.3867 756.969 64.879 757.545 65.3604C757.744 65.5288 757.94 65.7008 758.133 65.8751C758.235 65.9655 758.337 66.0559 758.441 66.1491C758.576 66.2718 758.576 66.2718 758.714 66.397C759.06 66.6336 759.317 66.6995 759.737 66.736C760.073 66.5736 760.353 66.4244 760.619 66.1669C760.716 65.6977 760.75 65.4793 760.619 65.0285C760.187 64.4909 759.678 64.0526 759.149 63.6056C759.047 63.5176 758.946 63.4295 758.841 63.3388C758.654 63.1787 758.466 63.0201 758.276 62.863C757.794 62.4608 757.325 62.0452 756.854 61.6308C756.557 61.3759 756.254 61.139 755.942 60.9021C755.021 60.1457 754.501 58.9554 754.394 57.8094C754.391 57.619 754.389 57.4285 754.389 57.238C754.384 57.0509 754.38 56.8639 754.376 56.6711C754.453 55.4052 755.176 54.3482 755.914 53.3428C755.998 53.2261 756.082 53.1095 756.168 52.9893C756.774 52.1532 757.403 51.3353 758.043 50.5233C758.608 49.8012 759.139 49.0598 759.663 48.3092C760.322 47.3657 761.006 46.4482 761.719 45.5428C762.37 44.7106 762.975 43.8508 763.579 42.9858C764.182 42.1264 764.814 41.2927 765.465 40.4669C765.927 39.8787 766.359 39.2816 766.753 38.6478C767.001 38.3482 767.147 38.2477 767.53 38.1353C768.509 38.1056 768.509 38.1056 768.949 38.4893C769.191 38.7854 769.405 39.0897 769.616 39.407C769.782 39.6424 769.947 39.8777 770.113 40.1129C770.197 40.2338 770.28 40.3546 770.366 40.4791C770.757 41.0389 771.17 41.5828 771.582 42.1284C772.272 43.0503 772.952 43.9783 773.629 44.9092C774.163 45.6435 774.705 46.3725 775.249 47.0997C776.092 48.2251 776.922 49.3582 777.748 50.4949C778.054 50.9159 778.361 51.3365 778.668 51.7569C778.82 51.9642 778.97 52.1715 779.121 52.3791C779.428 52.8011 779.736 53.2211 780.053 53.6363C781.198 55.1492 781.541 56.4811 781.351 58.3408C781.017 59.7762 780.016 60.8607 778.876 61.7825C778.517 62.0735 778.17 62.376 777.822 62.6807C777.37 63.0764 776.914 63.4681 776.453 63.8546C776.36 63.9348 776.266 64.0149 776.17 64.0975C775.941 64.2915 775.706 64.4783 775.47 64.6639C775.162 65.0454 775.123 65.1532 775.102 65.6155C775.133 66.1413 775.133 66.1413 775.35 66.4426C775.702 66.6419 775.943 66.7172 776.352 66.736C777.003 66.4215 777.493 65.9711 778.015 65.491C778.186 65.3365 778.356 65.1822 778.526 65.028C778.608 64.954 778.69 64.8801 778.774 64.8039C779.137 64.4774 779.511 64.1634 779.886 63.8496C780.365 63.4453 780.834 63.0307 781.304 62.6174C781.571 62.3887 781.84 62.1775 782.123 61.9693C783.312 60.9237 784.024 59.3905 784.18 57.8517C784.261 55.1446 782.584 53.2075 781.019 51.1384C780.61 50.597 780.204 50.0535 779.798 49.5098C779.719 49.4039 779.64 49.2979 779.558 49.1888C778.95 48.3728 778.349 47.5513 777.751 46.728C777.223 46.0027 776.688 45.2831 776.15 44.5651C775.384 43.5428 774.633 42.5107 773.887 41.4747C773.237 40.5735 772.575 39.681 771.908 38.7914C771.341 38.0339 770.78 37.2723 770.222 36.5078C770.148 36.4059 770.074 36.304 769.997 36.199C769.112 34.982 769.112 34.982 769.102 34.1789C769.098 34.0166 769.094 33.8543 769.091 33.687C769.085 33.3454 769.081 33.0037 769.077 32.6621C769.071 32.418 769.071 32.418 769.065 32.169C769.062 31.9462 769.062 31.9462 769.059 31.7189C768.991 31.2424 768.862 30.9736 768.559 30.5938C767.965 30.4162 767.687 30.3353 767.181 30.7094ZM732.682 41.5503C732.554 41.7047 732.431 41.8643 732.312 42.0256C732.197 42.1802 732.197 42.1802 732.08 42.3379C731.997 42.4507 731.913 42.5635 731.828 42.6798C731.742 42.7957 731.656 42.9116 731.567 43.0311C730.931 43.8911 730.3 44.7551 729.671 45.6207C729.141 46.3498 728.602 47.0723 728.06 47.7934C727.4 48.6723 726.76 49.5619 726.13 50.4614C725.466 51.4109 724.774 52.3336 724.056 53.2457C722.263 55.358 722.263 55.358 721.802 57.9139C722.199 59.0111 723.275 59.7444 724.154 60.4752C724.354 60.6441 724.553 60.813 724.752 60.9821C724.844 61.0601 724.936 61.138 725.031 61.2183C725.18 61.3435 725.18 61.3435 725.331 61.4712C725.452 61.5738 725.574 61.6763 725.699 61.7819C726.071 62.1004 726.438 62.4238 726.801 62.7519C726.891 62.832 726.982 62.9122 727.075 62.9948C727.78 63.6901 728.017 64.4995 728.124 65.4554C728.105 66.4629 727.891 67.2867 727.209 68.0611C726.305 68.8924 725.426 69.206 724.18 69.1856C723.349 69.1062 722.672 68.833 722.001 68.3622C721.908 68.2977 721.816 68.2331 721.721 68.1666C721.65 68.1171 721.58 68.0676 721.508 68.0167C721.494 69.8165 721.484 71.6163 721.477 73.4162C721.474 74.2522 721.47 75.0881 721.463 75.924C721.457 76.7322 721.453 77.5404 721.452 78.3486C721.451 78.6555 721.449 78.9623 721.446 79.2691C721.418 82.0501 721.684 84.3956 723.718 86.5319C724.988 87.7054 726.65 88.5164 728.429 88.5297C728.651 88.5317 728.651 88.5317 728.878 88.5338C729.038 88.5344 729.197 88.535 729.362 88.5357C729.61 88.5369 729.61 88.5369 729.863 88.5381C730.213 88.5395 730.563 88.5404 730.914 88.5409C731.446 88.5423 731.978 88.5467 732.511 88.5512C732.852 88.5522 733.193 88.5529 733.534 88.5535C733.691 88.5552 733.849 88.557 734.012 88.5588C736.019 88.5531 737.819 87.8868 739.285 86.5458C740.862 84.9312 741.531 83.0224 741.521 80.8311C741.521 80.6436 741.521 80.6436 741.521 80.4522C741.521 80.0411 741.52 79.63 741.519 79.2189C741.519 78.933 741.518 78.6471 741.518 78.3612C741.518 77.6103 741.516 76.8594 741.515 76.1085C741.513 75.3416 741.513 74.5747 741.512 73.8079C741.51 72.3043 741.508 70.8008 741.505 69.2973C741.364 69.2707 741.223 69.2441 741.078 69.2167C740.8 69.1623 740.8 69.1623 740.517 69.1067C740.334 69.0713 740.151 69.0359 739.962 68.9994C738.947 68.7457 738.358 68.2397 737.829 67.3764C737.365 66.3629 737.335 65.2639 737.655 64.2031C738.243 62.927 739.387 62.0524 740.46 61.1605C740.943 60.7566 741.414 60.3401 741.887 59.9249C742.191 59.6632 742.502 59.415 742.819 59.1679C743.361 58.7134 743.644 58.2919 743.766 57.5938C743.845 56.533 743.451 55.91 742.828 55.0681C742.762 54.9786 742.697 54.8891 742.629 54.7968C742.15 54.1424 741.662 53.4935 741.173 52.846C740.764 52.3045 740.357 51.761 739.952 51.2173C739.872 51.1114 739.793 51.0054 739.712 50.8963C739.103 50.0806 738.503 49.2594 737.905 48.4365C737.371 47.7022 736.829 46.9732 736.285 46.246C735.5 45.1973 734.725 44.142 733.955 43.0827C733.891 42.9941 733.826 42.9054 733.759 42.8141C733.624 42.6284 733.49 42.4423 733.356 42.2559C733.184 42.0182 733.007 41.7839 732.83 41.5503C732.781 41.5503 732.732 41.5503 732.682 41.5503ZM767.824 41.5503C767.695 41.7047 767.573 41.8643 767.453 42.0256C767.338 42.1802 767.338 42.1802 767.221 42.3379C767.138 42.4507 767.055 42.5635 766.969 42.6798C766.883 42.7957 766.797 42.9116 766.709 43.0311C766.072 43.8909 765.442 44.7549 764.813 45.6201C764.199 46.4633 763.576 47.2991 762.95 48.1341C762.339 48.9514 761.737 49.7744 761.138 50.5996C760.594 51.3465 760.043 52.0875 759.489 52.827C758.919 53.5879 758.353 54.3504 757.798 55.1214C757.696 55.2634 757.594 55.4054 757.488 55.5517C757.107 56.1142 756.899 56.4955 756.888 57.1758C756.884 57.2912 756.88 57.4065 756.876 57.5254C757.04 58.4672 757.655 59.0888 758.377 59.6926C758.455 59.76 758.533 59.8274 758.614 59.8968C758.84 60.091 759.068 60.2833 759.296 60.4752C759.403 60.5665 759.51 60.6579 759.621 60.752C759.806 60.9093 759.992 61.0662 760.177 61.2228C763.112 63.6976 763.112 63.6976 763.274 65.4121C763.247 66.4628 762.972 67.4876 762.195 68.2451C761.494 68.7955 760.803 69.0235 759.918 69.17C759.773 69.1943 759.629 69.2185 759.48 69.2435C759.371 69.2613 759.262 69.279 759.149 69.2973C759.135 70.9302 759.125 72.563 759.118 74.1959C759.115 74.9544 759.111 75.7127 759.104 76.4712C759.098 77.2046 759.095 77.9381 759.093 78.6716C759.092 78.9498 759.09 79.2281 759.087 79.5063C759.057 82.1946 759.4 84.4738 761.359 86.5319C762.63 87.7054 764.291 88.5164 766.07 88.5297C766.292 88.5317 766.292 88.5317 766.519 88.5338C766.679 88.5344 766.838 88.535 767.003 88.5357C767.251 88.5369 767.251 88.5369 767.504 88.5381C767.854 88.5395 768.204 88.5404 768.555 88.5409C769.087 88.5423 769.619 88.5467 770.152 88.5512C770.493 88.5522 770.834 88.5529 771.175 88.5535C771.333 88.5552 771.49 88.557 771.653 88.5588C773.66 88.5531 775.46 87.8868 776.926 86.5458C778.546 84.8874 779.172 82.9547 779.162 80.7136C779.162 80.5073 779.162 80.5073 779.162 80.2968C779.162 79.8441 779.161 79.3914 779.16 78.9387C779.16 78.6241 779.16 78.3095 779.159 77.9949C779.159 77.1682 779.157 76.3415 779.156 75.5148C779.154 74.6707 779.154 73.8266 779.153 72.9825C779.151 71.3272 779.149 69.6719 779.146 68.0167C779.056 68.076 778.967 68.1354 778.875 68.1966C778.756 68.274 778.638 68.3515 778.517 68.4313C778.342 68.5468 778.342 68.5468 778.163 68.6646C777.277 69.1997 776.291 69.2891 775.284 69.0889C774.252 68.8021 773.477 68.2742 772.906 67.3853C772.437 66.3635 772.475 64.9674 772.869 63.9258C773.505 62.7642 774.742 61.8492 775.759 61.0088C776.243 60.606 776.713 60.1884 777.185 59.7732C777.462 59.5362 777.742 59.3148 778.034 59.0967C778.653 58.5561 778.876 58.0409 778.943 57.2469C778.905 56.2906 778.39 55.6775 777.822 54.9258C777.691 54.7438 777.559 54.5614 777.428 54.3789C776.587 53.2101 775.724 52.0568 774.861 50.9035C774.249 50.0858 773.646 49.2622 773.047 48.4365C772.512 47.7022 771.971 46.9732 771.426 46.246C770.641 45.1973 769.866 44.142 769.097 43.0827C769.032 42.9941 768.967 42.9054 768.901 42.8141C768.766 42.6284 768.631 42.4423 768.498 42.2559C768.326 42.0182 768.149 41.7839 767.971 41.5503C767.922 41.5503 767.874 41.5503 767.824 41.5503Z" fill="#8F9EA2"/>
<path d="M713.9 15.7852L789.182 91.0672" stroke="#DE1121" stroke-width="3" stroke-linecap="round"/>
<path d="M585.898 18.1228C585.994 18.1217 586.09 18.1206 586.188 18.1194C586.508 18.1166 586.828 18.1188 587.148 18.1211C587.378 18.1201 587.608 18.1188 587.838 18.1173C588.461 18.1141 589.085 18.1153 589.708 18.1176C590.361 18.1194 591.013 18.1177 591.666 18.1166C592.762 18.1153 593.858 18.117 594.954 18.1204C596.221 18.1243 597.488 18.123 598.754 18.1191C599.842 18.1159 600.93 18.1154 602.018 18.1173C602.668 18.1184 603.318 18.1185 603.967 18.1162C604.578 18.1141 605.189 18.1155 605.8 18.1196C606.024 18.1206 606.248 18.1203 606.472 18.1187C606.778 18.1168 607.084 18.1192 607.39 18.1228C607.561 18.1231 607.732 18.1233 607.909 18.1236C608.739 18.2877 609.148 18.9748 609.606 19.6299C609.747 19.8307 609.747 19.8307 609.891 20.0355C610.038 20.2472 610.038 20.2472 610.188 20.4631C610.341 20.6807 610.341 20.6807 610.497 20.9027C610.962 21.5664 611.424 22.2319 611.885 22.8988C611.992 23.054 611.992 23.054 612.102 23.2124C612.232 23.4013 612.362 23.5907 612.492 23.7805C613.054 24.5946 613.551 25.0706 614.453 25.5032C614.54 25.5454 614.627 25.5876 614.717 25.6311C614.906 25.7223 615.095 25.8129 615.284 25.9031C615.585 26.047 615.886 26.1925 616.186 26.3384C617.04 26.7528 617.896 27.1643 618.751 27.575C619.276 27.827 619.8 28.0807 620.324 28.3354C620.521 28.431 620.719 28.526 620.917 28.6202C626.023 31.0485 629.239 35.162 631.1 40.3505C632.451 44.2765 632.934 48.392 633.244 52.5056C633.254 52.6433 633.265 52.7811 633.275 52.923C633.336 53.7797 633.368 54.6352 633.389 55.4937C633.394 55.6767 633.4 55.8598 633.405 56.0483C633.42 56.5634 633.43 57.0784 633.438 57.5936C633.441 57.7984 633.446 58.0032 633.452 58.208C633.501 60.0397 633.501 60.0397 633.042 60.599C632.441 61.0803 632.015 61.0628 631.267 61.0592C631.153 61.0593 631.039 61.0593 630.921 61.0593C630.542 61.0592 630.163 61.0581 629.784 61.057C629.522 61.0567 629.26 61.0565 628.998 61.0564C628.306 61.0558 627.615 61.0544 626.924 61.0529C626.219 61.0514 625.514 61.0508 624.809 61.05C623.426 61.0485 622.042 61.0461 620.658 61.0431C620.659 61.1903 620.659 61.3375 620.659 61.4892C620.669 65.0709 620.676 68.6526 620.681 72.2344C620.683 73.9665 620.686 75.6985 620.691 77.4306C620.695 78.9403 620.698 80.4499 620.699 81.9596C620.7 82.759 620.701 83.5583 620.704 84.3577C620.707 85.1102 620.708 85.8627 620.707 86.6152C620.707 86.8912 620.708 87.1673 620.71 87.4434C620.712 87.8207 620.712 88.1979 620.71 88.5751C620.712 88.6841 620.713 88.793 620.714 88.9053C620.708 89.6308 620.576 90.1399 620.224 90.7822C619.739 91.1003 619.583 91.1026 619.016 91.1038C618.854 91.1048 618.692 91.1058 618.526 91.1068C618.348 91.1065 618.169 91.1061 617.985 91.1058C617.702 91.1069 617.702 91.1069 617.413 91.108C616.888 91.11 616.362 91.1103 615.837 91.1102C615.27 91.1105 614.704 91.1123 614.138 91.1139C612.899 91.1172 611.661 91.1183 610.422 91.119C609.649 91.1195 608.876 91.1204 608.103 91.1215C605.964 91.1242 603.824 91.1266 601.685 91.127C601.548 91.127 601.411 91.1271 601.27 91.1271C600.992 91.1271 600.714 91.1272 600.437 91.1272C600.299 91.1273 600.161 91.1273 600.019 91.1273C599.881 91.1273 599.743 91.1274 599.601 91.1274C597.364 91.1279 595.126 91.1317 592.889 91.1371C590.594 91.1425 588.298 91.1452 586.002 91.1453C584.713 91.1454 583.424 91.1466 582.134 91.1507C581.036 91.1542 579.939 91.1552 578.841 91.1531C578.281 91.152 577.72 91.1522 577.16 91.1554C576.553 91.1589 575.946 91.1568 575.339 91.1542C575.162 91.1561 574.984 91.158 574.801 91.1599C573.615 91.1483 573.615 91.1483 573.03 90.7411C572.57 90.0472 572.609 89.4394 572.612 88.6265C572.612 88.5086 572.612 88.3908 572.612 88.2693C572.612 87.8739 572.613 87.4784 572.613 87.083C572.613 86.7997 572.613 86.5165 572.613 86.2332C572.613 85.4636 572.614 84.694 572.615 83.9244C572.616 83.1203 572.616 82.3162 572.616 81.5122C572.617 79.9893 572.618 78.4664 572.619 76.9435C572.621 75.2099 572.622 73.4762 572.623 71.7426C572.624 68.1761 572.627 64.6096 572.63 61.0431C572.485 61.0447 572.34 61.0463 572.191 61.0479C570.824 61.0623 569.458 61.073 568.091 61.08C567.389 61.0837 566.686 61.0887 565.984 61.0968C565.306 61.1045 564.628 61.1088 563.949 61.1106C563.691 61.1119 563.432 61.1145 563.174 61.1183C562.811 61.1235 562.449 61.1242 562.086 61.1239C561.98 61.1264 561.873 61.129 561.764 61.1316C560.936 61.1235 560.603 60.8886 560.044 60.3316C559.702 59.6582 559.871 58.7289 559.872 57.9838C559.872 57.8797 559.872 57.7755 559.873 57.6683C559.893 48.7847 560.714 38.7523 567.232 32.0066C568.937 30.3828 570.934 29.3642 573.04 28.3281C573.4 28.1506 573.76 27.9723 574.12 27.794C574.985 27.3654 575.851 26.9377 576.717 26.5106C576.861 26.4392 577.006 26.3678 577.155 26.2943C577.57 26.0898 577.985 25.8857 578.401 25.6818C578.527 25.6195 578.653 25.5572 578.784 25.493C578.9 25.4357 579.017 25.3785 579.138 25.3196C579.24 25.2694 579.342 25.2193 579.447 25.1676C579.718 25.0432 579.718 25.0432 580.152 24.9009C580.252 24.6649 580.347 24.4274 580.442 24.1894C580.662 23.8769 580.885 23.575 581.12 23.2734C581.936 22.2055 582.697 21.1045 583.448 19.9921C583.536 19.864 583.623 19.7358 583.714 19.6038C583.791 19.49 583.868 19.3761 583.947 19.2589C584.538 18.4878 584.886 18.1244 585.898 18.1228ZM588.977 21.059C589.351 21.6757 589.351 21.6757 589.787 22.2207C589.857 22.3002 589.928 22.3797 590 22.4616C590.074 22.5446 590.148 22.6276 590.225 22.7131C590.382 22.8912 590.539 23.0695 590.696 23.2478C590.773 23.3354 590.85 23.4229 590.929 23.5131C591.225 23.8523 591.512 24.198 591.798 24.5451C592.366 25.234 592.952 25.9072 593.541 26.5793C594.102 27.2211 594.648 27.8738 595.191 28.531C595.615 29.0387 596.055 29.5327 596.499 30.0234C596.927 29.8369 597.198 29.6486 597.5 29.2991C597.576 29.2118 597.653 29.1245 597.731 29.0345C597.811 28.9412 597.891 28.8478 597.973 28.7517C598.098 28.6072 598.098 28.6072 598.226 28.4599C598.805 27.7899 599.374 27.1116 599.937 26.4283C600.3 25.9922 600.668 25.5616 601.038 25.1321C601.104 25.0552 601.171 24.9783 601.239 24.899C601.584 24.499 601.93 24.0996 602.276 23.7008C603.56 22.4657 603.56 22.4657 604.311 21.059C599.251 21.059 594.19 21.059 588.977 21.059ZM585.65 22.1973C585.392 22.5032 585.392 22.5032 585.125 22.8982C585.023 23.0439 584.921 23.1897 584.815 23.3398C584.709 23.494 584.602 23.6482 584.492 23.807C584.386 23.9595 584.279 24.112 584.169 24.2692C583.418 25.1629 583.418 25.1629 583.074 26.1691C583.209 26.5153 583.383 26.7861 583.598 27.0914C583.683 27.214 583.769 27.3365 583.857 27.4628C583.95 27.5946 584.043 27.7265 584.14 27.8623C584.236 28.0003 584.333 28.1383 584.433 28.2805C584.741 28.7198 585.05 29.1583 585.36 29.5965C585.459 29.7362 585.558 29.876 585.659 30.0199C586.047 30.5695 586.436 31.119 586.825 31.6678C587.295 32.33 587.762 32.9935 588.224 33.6613C588.353 33.8481 588.353 33.8481 588.484 34.0386C588.645 34.2723 588.806 34.5063 588.966 34.7405C589.038 34.8442 589.109 34.9479 589.183 35.0548C589.245 35.145 589.307 35.2352 589.37 35.3281C589.558 35.5764 589.762 35.7867 589.989 35.9997C590.108 35.8999 590.227 35.8001 590.35 35.6973C591.694 34.5724 593.053 33.4731 594.474 32.4424C594.053 31.7927 593.588 31.2157 593.073 30.637C592.542 30.0359 592.018 29.4323 591.508 28.8139C591.012 28.2123 590.504 27.6222 589.989 27.0353C589.369 26.327 588.762 25.61 588.163 24.8836C587.667 24.2927 587.158 23.7135 586.647 23.1356C586.099 22.5121 586.099 22.5121 585.939 22.1973C585.843 22.1973 585.748 22.1973 585.65 22.1973ZM607.349 22.1973C607.153 22.409 606.968 22.6305 606.789 22.8554C606.264 23.5008 605.728 24.1334 605.179 24.7586C604.554 25.4722 603.942 26.1946 603.338 26.9258C602.973 27.3631 602.603 27.7956 602.232 28.227C602.165 28.304 602.099 28.381 602.031 28.4603C601.687 28.8584 601.343 29.256 600.999 29.6532C600.249 30.5195 599.512 31.3926 598.814 32.3001C599.338 32.8365 599.887 33.2977 600.487 33.7497C601.443 34.4787 602.374 35.2321 603.299 35.9997C603.782 35.5592 604.137 35.0741 604.492 34.5323C605.129 33.575 605.788 32.6334 606.454 31.6953C607.277 30.5353 608.095 29.372 608.904 28.2024C608.975 28.1004 609.046 27.9985 609.118 27.8935C609.185 27.7968 609.251 27.7001 609.32 27.6005C609.454 27.4115 609.593 27.2258 609.737 27.0436C609.918 26.8127 610.082 26.5689 610.242 26.3238C610.169 25.7864 609.9 25.4244 609.591 24.9809C609.436 24.7578 609.436 24.7578 609.278 24.5301C609.223 24.4519 609.169 24.3737 609.112 24.2931C608.934 24.0381 608.759 23.7813 608.584 23.5241C608.468 23.3545 608.352 23.185 608.235 23.0155C608.153 22.8932 608.153 22.8932 608.068 22.7685C607.932 22.5729 607.786 22.3843 607.638 22.1973C607.543 22.1973 607.447 22.1973 607.349 22.1973ZM580.442 28.0313C579.45 28.514 578.459 28.9976 577.468 29.4825C577.008 29.7076 576.548 29.9325 576.087 30.1566C575.641 30.3736 575.196 30.5914 574.751 30.8098C574.501 30.932 574.251 31.0533 574.001 31.1746C569.44 33.4174 566.679 36.8169 565.026 41.4957C563.93 44.7505 563.227 48.3594 563.227 51.7941C566.33 51.7941 569.433 51.7941 572.63 51.7941C572.504 49.7762 572.504 49.7762 572.169 47.8099C572.137 47.6648 572.106 47.5197 572.074 47.3703C571.794 46.1343 571.388 44.9935 570.894 43.8257C570.811 43.6271 570.73 43.4279 570.65 43.2282C570.595 43.0927 570.595 43.0927 570.538 42.9544C570.405 42.5006 570.48 42.1385 570.604 41.6914C570.834 41.4012 570.98 41.2816 571.34 41.1767C571.45 41.1645 571.559 41.1524 571.671 41.14C571.78 41.1257 571.888 41.1114 572 41.0966C572.472 41.1321 572.694 41.2584 573.064 41.5491C573.263 41.8801 573.415 42.1749 573.561 42.5273C573.604 42.6273 573.646 42.7273 573.69 42.8303C575.615 47.5192 575.612 52.2864 575.611 57.2604C575.611 58.0455 575.615 58.8306 575.618 59.6157C575.626 61.8998 575.628 64.1839 575.632 66.468C575.644 71.5804 575.655 76.6927 575.668 81.9601C589.512 81.9601 603.356 81.9601 617.62 81.9601C617.645 71.7776 617.645 71.7776 617.663 61.5951C617.67 59.6157 617.67 59.6157 617.674 58.686C617.676 58.0433 617.677 57.4007 617.677 56.7581C617.677 51.8291 617.763 47.1494 619.727 42.5273C619.766 42.4338 619.805 42.3402 619.845 42.2438C620.107 41.6661 620.35 41.3657 620.947 41.1222C621.401 41.0814 621.812 41.1431 622.249 41.2645C622.6 41.5557 622.666 41.7853 622.819 42.2072C622.83 42.7871 622.67 43.1377 622.439 43.6645C621.828 45.1023 621.367 46.5869 621.047 48.1123C621.024 48.2189 621.001 48.3256 620.977 48.4354C620.756 49.5639 620.733 50.6202 620.658 51.7941C623.761 51.7941 626.864 51.7941 630.061 51.7941C629.938 49.6824 629.938 49.6824 629.673 47.5965C629.635 47.3627 629.635 47.3627 629.596 47.1242C628.879 42.8548 627.684 38.6858 624.853 35.2882C624.702 35.1041 624.702 35.1041 624.548 34.9164C622.704 32.7851 620.276 31.6797 617.78 30.4574C617.354 30.2483 616.928 30.0377 616.502 29.8273C615.285 29.2257 614.066 28.6274 612.846 28.0313C612.381 28.4726 611.978 28.9093 611.612 29.4331C611.52 29.5646 611.427 29.6961 611.332 29.8316C611.235 29.9712 611.138 30.1108 611.038 30.2546C610.936 30.3998 610.835 30.545 610.73 30.6946C610.422 31.1343 610.115 31.5748 609.808 32.0155C609.637 32.261 609.466 32.5065 609.295 32.752C608.984 33.1976 608.674 33.6436 608.365 34.0898C607.885 34.781 607.404 35.4711 606.921 36.1595C606.578 36.6481 606.239 37.1389 605.904 37.6332C605.833 37.7379 605.761 37.8425 605.688 37.9502C605.551 38.1507 605.415 38.3519 605.281 38.5538C604.706 39.3921 604.706 39.3921 604.166 39.557C603.681 39.6305 603.326 39.6513 602.887 39.4108C602.579 39.1865 602.288 38.9482 601.997 38.7032C601.74 38.4985 601.484 38.294 601.228 38.0896C600.954 37.8674 600.679 37.645 600.405 37.4226C600.009 37.1033 599.612 36.7844 599.215 36.466C598.937 36.2414 598.661 36.0149 598.386 35.7868C598.246 35.6721 598.107 35.5575 597.964 35.4394C597.839 35.3354 597.714 35.2314 597.585 35.1242C597.086 34.7538 597.086 34.7538 596.499 34.5767C596.143 34.7818 595.876 34.9725 595.568 35.2348C595.48 35.3061 595.393 35.3773 595.302 35.4507C595.024 35.6783 594.749 35.9096 594.474 36.142C594.297 36.2904 594.12 36.4388 593.942 36.5872C593.601 36.874 593.261 37.1621 592.921 37.4509C592.296 37.9811 591.656 38.4916 591.002 38.9878C590.921 39.0524 590.84 39.1169 590.756 39.1835C590.211 39.5886 589.792 39.6303 589.121 39.557C588.653 39.3762 588.432 39.1787 588.156 38.7682C588.085 38.664 588.014 38.5598 587.941 38.4524C587.865 38.3386 587.789 38.2247 587.711 38.1074C587.544 37.8612 587.376 37.6152 587.208 37.3692C587.12 37.239 587.031 37.1088 586.94 36.9746C586.464 36.2793 585.975 35.5929 585.487 34.9058C584.824 33.9707 584.163 33.035 583.507 32.0955C583.444 32.0066 583.382 31.9176 583.318 31.8259C582.987 31.3518 582.658 30.8762 582.331 30.3991C582.224 30.2446 582.224 30.2446 582.116 30.087C581.981 29.8913 581.847 29.6953 581.713 29.4987C581.652 29.4101 581.591 29.3215 581.528 29.2302C581.475 29.1531 581.422 29.0759 581.368 28.9964C581.087 28.6458 580.766 28.3425 580.442 28.0313ZM563.082 54.7822C562.87 55.8894 562.87 55.8894 562.937 58.055C566.136 58.055 569.334 58.055 572.63 58.055C572.63 56.975 572.63 55.895 572.63 54.7822C569.479 54.7822 566.328 54.7822 563.082 54.7822ZM620.658 54.7822C620.658 55.8622 620.658 56.9422 620.658 58.055C623.857 58.055 627.055 58.055 630.351 58.055C630.418 55.8894 630.418 55.8894 630.206 54.7822C627.055 54.7822 623.904 54.7822 620.658 54.7822ZM575.668 84.9482C575.668 86.0282 575.668 87.1082 575.668 88.2209C589.512 88.2209 603.356 88.2209 617.62 88.2209C617.62 87.1409 617.62 86.0609 617.62 84.9482C603.776 84.9482 589.932 84.9482 575.668 84.9482Z" fill="#8F9EA2"/>
<path d="M597.078 47.2384C597.885 47.6878 597.885 47.6878 598.091 48.0922C598.171 48.7513 598.183 49.2279 597.819 49.7997C597.346 50.2376 597.011 50.2771 596.36 50.2655C595.875 50.2014 595.659 50.0147 595.342 49.6574C595.064 49.0529 595.021 48.7698 595.206 48.1277C595.67 47.3621 596.175 47.1115 597.078 47.2384Z" fill="#8F9EA2"/>
<path d="M597.078 39.129C597.885 39.5784 597.885 39.5784 598.091 39.9828C598.171 40.6419 598.183 41.1185 597.819 41.6903C597.346 42.1282 597.011 42.1677 596.36 42.1561C595.875 42.092 595.659 41.9053 595.342 41.548C595.064 40.9436 595.021 40.6604 595.206 40.0184C595.67 39.2527 596.175 39.0021 597.078 39.129Z" fill="#8F9EA2"/>
<path d="M562.038 15.7852L637.32 91.0672" stroke="#DE1121" stroke-width="3" stroke-linecap="round"/>
<path d="M444.769 18.7797C444.882 18.8295 444.995 18.8794 445.111 18.9308C447.096 19.9019 448.542 21.7006 449.25 23.7399C449.629 25.1121 449.584 26.4776 449.543 27.8864C449.63 27.9096 449.718 27.9329 449.807 27.9569C450.736 28.2161 451.594 28.5514 452.463 28.9624C452.595 29.0246 452.727 29.0868 452.862 29.1508C454.675 30.0268 456.263 31.1401 457.789 32.4397C457.907 32.5386 458.025 32.6374 458.147 32.7393C461.772 35.8468 464.285 39.9335 465.646 44.4545C465.679 44.5627 465.712 44.6708 465.747 44.7823C466.506 47.4556 466.525 50.1384 466.496 52.8942C466.493 53.2583 466.491 53.6224 466.49 53.9864C466.485 54.8674 466.478 55.7484 466.469 56.6294C466.636 56.6265 466.803 56.6236 466.975 56.6206C467.197 56.6183 467.42 56.616 467.642 56.6138C467.752 56.6117 467.862 56.6097 467.975 56.6075C469.463 56.5965 470.633 57.1184 471.749 58.079C472.986 59.4481 473.311 60.5864 473.31 62.3854C473.311 62.5468 473.312 62.7082 473.313 62.8745C473.315 63.4067 473.316 63.9388 473.316 64.471C473.317 64.8423 473.318 65.2136 473.319 65.5848C473.321 66.3628 473.321 67.1407 473.321 67.9187C473.321 68.8145 473.324 69.7103 473.329 70.6061C473.333 71.4715 473.334 72.3369 473.334 73.2024C473.334 73.5688 473.335 73.9353 473.338 74.3018C473.341 74.8156 473.34 75.3293 473.338 75.8432C473.34 75.993 473.341 76.1428 473.343 76.2971C473.329 77.8929 472.827 79.2475 471.676 80.3922C470.056 81.7241 468.486 81.7306 466.469 81.6728C466.472 81.8018 466.475 81.9308 466.478 82.0637C466.488 82.5506 466.495 83.0374 466.5 83.5244C466.503 83.7336 466.507 83.9428 466.512 84.152C466.559 86.1189 466.295 87.7347 464.877 89.2143C463.951 90.1523 462.735 91.0063 461.365 91.0824C461.182 91.0828 461.182 91.0828 460.995 91.0832C460.854 91.0839 460.713 91.0845 460.567 91.0851C460.412 91.0851 460.257 91.0851 460.098 91.0851C459.933 91.0856 459.768 91.0861 459.599 91.0866C459.044 91.0882 458.49 91.0888 457.936 91.0893C457.539 91.0901 457.143 91.0911 456.746 91.0921C455.555 91.0949 454.363 91.0964 453.171 91.0976C452.61 91.0983 452.048 91.099 451.487 91.0998C449.62 91.1022 447.753 91.1043 445.886 91.1053C445.401 91.1056 444.917 91.1058 444.432 91.1061C444.312 91.1062 444.192 91.1063 444.068 91.1063C442.118 91.1075 440.169 91.1111 438.22 91.1157C436.217 91.1204 434.215 91.123 432.212 91.1235C431.088 91.1238 429.965 91.125 428.841 91.1286C427.883 91.1317 426.926 91.1329 425.969 91.1315C425.481 91.1309 424.993 91.1314 424.505 91.1339C423.974 91.1364 423.444 91.1354 422.914 91.1335C422.685 91.1359 422.685 91.1359 422.452 91.1383C420.712 91.1235 419.36 90.5363 418.132 89.3416C416.961 88.1086 416.373 86.8471 416.387 85.1329C416.387 85.0332 416.387 84.9335 416.388 84.8309C416.389 84.5163 416.393 84.2018 416.397 83.8873C416.398 83.6724 416.4 83.4576 416.401 83.2428C416.404 82.7194 416.409 82.1961 416.415 81.6728C416.245 81.6794 416.076 81.686 415.901 81.6928C414.073 81.7432 412.661 81.5872 411.208 80.39C410.085 79.297 409.571 78.0249 409.555 76.4898C409.556 76.2621 409.556 76.2621 409.557 76.0299C409.556 75.8671 409.555 75.7043 409.554 75.5365C409.552 75.0005 409.552 74.4645 409.553 73.9285C409.552 73.5542 409.551 73.1799 409.551 72.8057C409.549 72.0219 409.55 71.2381 409.551 70.4543C409.553 69.5518 409.551 68.6493 409.547 67.7468C409.543 66.8746 409.543 66.0024 409.544 65.1302C409.544 64.7609 409.543 64.3917 409.541 64.0224C409.539 63.5049 409.541 62.9874 409.543 62.4699C409.542 62.319 409.54 62.168 409.539 62.0125C409.554 60.5019 409.995 59.1627 411.062 58.0523C412.135 57.0329 413.437 56.5989 414.913 56.6091C415.077 56.612 415.077 56.612 415.245 56.6149C415.414 56.6165 415.414 56.6165 415.587 56.6181C415.863 56.6208 416.139 56.6249 416.415 56.6294C416.414 56.5389 416.412 56.4485 416.411 56.3553C416.398 55.3946 416.389 54.434 416.383 53.4733C416.38 53.1171 416.376 52.7608 416.371 52.4046C416.288 46.4421 417.747 40.698 421.623 35.997C421.685 35.9213 421.747 35.8456 421.812 35.7675C423.263 34.014 424.836 32.5012 426.686 31.1591C426.768 31.0989 426.85 31.0388 426.935 30.9768C428.085 30.1453 429.298 29.4921 430.583 28.8824C430.723 28.8156 430.864 28.7489 431.009 28.6801C431.779 28.3249 432.507 28.0568 433.34 27.8864C433.334 27.7176 433.327 27.5489 433.32 27.375C433.244 24.6359 433.727 22.4242 435.709 20.3538C438.055 18.1926 441.809 17.3727 444.769 18.7797ZM437.391 23.0484C436.718 24.1069 436.354 25.0451 436.369 26.2945C436.371 26.4333 436.372 26.5722 436.373 26.7152C436.375 26.82 436.377 26.9247 436.378 27.0326C436.579 27.0043 436.579 27.0043 436.783 26.9754C440.062 26.5387 443.222 26.6036 446.505 27.0326C446.592 25.3695 446.29 24.0689 445.203 22.7638C444.232 21.7245 443.189 21.1952 441.745 21.1316C439.898 21.1066 438.609 21.6551 437.391 23.0484ZM427.12 34.7164C426.982 34.8332 426.844 34.9501 426.701 35.0704C423.641 37.7137 421.438 41.174 420.248 45.0059C420.217 45.1075 420.185 45.209 420.152 45.3136C419.463 47.7277 419.389 50.1103 419.394 52.6014C419.393 52.963 419.392 53.3246 419.391 53.6862C419.389 54.56 419.389 55.4337 419.389 56.3074C419.39 57.0177 419.39 57.7279 419.389 58.4381C419.389 58.5397 419.389 58.6413 419.389 58.746C419.389 58.9525 419.388 59.159 419.388 59.3655C419.386 61.2938 419.387 63.2222 419.389 65.1506C419.39 66.9131 419.388 68.6756 419.385 70.4381C419.381 72.2526 419.38 74.067 419.381 75.8815C419.381 76.8984 419.381 77.9152 419.378 78.9321C419.376 79.8868 419.377 80.8414 419.379 81.7961C419.38 82.1462 419.379 82.4964 419.378 82.8465C419.376 83.3246 419.378 83.8025 419.38 84.2805C419.379 84.4189 419.377 84.5572 419.376 84.6997C419.387 85.6999 419.609 86.4654 420.289 87.2256C420.371 87.289 420.453 87.3525 420.538 87.4179C420.661 87.5164 420.661 87.5164 420.786 87.6169C421.784 88.2927 422.857 88.2391 424.026 88.2373C424.181 88.2376 424.336 88.2379 424.495 88.2383C425.013 88.2392 425.532 88.2391 426.05 88.2389C426.422 88.2394 426.793 88.2398 427.165 88.2404C428.07 88.2416 428.975 88.242 429.879 88.242C430.615 88.2421 431.351 88.2424 432.086 88.2429C434.173 88.2441 436.259 88.2448 438.345 88.2447C438.458 88.2447 438.57 88.2446 438.686 88.2446C438.799 88.2446 438.911 88.2446 439.027 88.2446C440.851 88.2446 442.676 88.2459 444.5 88.2479C446.374 88.25 448.248 88.251 450.122 88.2508C451.174 88.2508 452.226 88.2512 453.278 88.2527C454.267 88.2541 455.256 88.2541 456.245 88.2531C456.608 88.2529 456.971 88.2533 457.334 88.2541C457.829 88.2552 458.325 88.2545 458.82 88.2534C459.036 88.2545 459.036 88.2545 459.255 88.2557C460.54 88.2494 461.67 88.1042 462.622 87.1628C463.434 86.2564 463.473 85.4949 463.468 84.3382C463.469 84.1896 463.469 84.041 463.47 83.8879C463.471 83.3891 463.471 82.8903 463.47 82.3914C463.471 82.034 463.472 81.6766 463.473 81.3192C463.474 80.4482 463.475 79.5773 463.474 78.7063C463.474 77.9972 463.474 77.2882 463.475 76.5791C463.475 76.4276 463.475 76.4276 463.475 76.273C463.475 76.0678 463.476 75.8625 463.476 75.6573C463.477 73.7315 463.477 71.8058 463.476 69.88C463.475 68.1235 463.477 66.367 463.48 64.6105C463.483 62.8036 463.484 60.9968 463.483 59.1899C463.483 58.1769 463.483 57.1638 463.485 56.1508C463.487 55.1961 463.487 54.2415 463.485 53.2868C463.485 52.9383 463.485 52.5897 463.486 52.2412C463.494 49.7808 463.382 47.3656 462.635 44.997C462.599 44.8827 462.564 44.7685 462.527 44.6507C461.82 42.501 460.771 40.3612 459.38 38.5583C459.29 38.4403 459.2 38.3224 459.108 38.2009C456.711 35.1618 453.825 32.8949 450.266 31.3014C450.094 31.2238 449.922 31.1462 449.745 31.0663C442.236 27.9011 433.251 29.5186 427.12 34.7164ZM413.284 60.2628C412.848 60.8237 412.636 61.1148 412.632 61.8153C412.631 61.9483 412.63 62.0814 412.629 62.2185C412.629 62.3649 412.628 62.5113 412.628 62.6622C412.627 62.8161 412.626 62.97 412.625 63.1285C412.622 63.6396 412.621 64.1506 412.619 64.6617C412.619 64.836 412.618 65.0103 412.617 65.1899C412.615 66.0175 412.613 66.8451 412.611 67.6727C412.61 68.5322 412.607 69.3916 412.602 70.2511C412.596 71.1731 412.594 72.0951 412.593 73.0171C412.592 73.3685 412.591 73.72 412.588 74.0714C412.584 74.5637 412.585 75.0557 412.586 75.548C412.584 75.693 412.582 75.838 412.58 75.9873C412.587 76.8703 412.702 77.3956 413.232 78.1155C414.247 78.9805 414.912 78.6847 416.415 78.6847C416.415 72.3925 416.415 66.1004 416.415 59.6175C414.649 59.4857 414.649 59.4857 413.284 60.2628ZM466.469 59.6175C466.469 65.9097 466.469 72.2019 466.469 78.6847C468.304 78.8326 468.304 78.8326 469.651 78.1155C470.275 77.2667 470.313 76.5865 470.305 75.557C470.306 75.4028 470.307 75.2486 470.308 75.0897C470.31 74.5818 470.309 74.074 470.307 73.5661C470.307 73.2122 470.308 72.8584 470.308 72.5045C470.309 71.7638 470.308 71.0231 470.305 70.2823C470.303 69.522 470.302 68.7617 470.305 68.0013C470.309 67.0822 470.309 66.1631 470.307 65.2439C470.307 64.8939 470.307 64.544 470.309 64.194C470.31 63.7049 470.308 63.2159 470.305 62.7268C470.306 62.5824 470.307 62.438 470.308 62.2893C470.298 61.4676 470.219 60.9761 469.651 60.329C468.581 59.3792 468.136 59.6175 466.469 59.6175Z" fill="#8F9EA2"/>
<path d="M430.933 59.724C431.187 59.7233 431.441 59.7226 431.694 59.7218C432.381 59.7199 433.068 59.7198 433.755 59.7201C434.33 59.7203 434.905 59.7196 435.479 59.7189C436.836 59.7173 438.193 59.7173 439.55 59.7181C440.947 59.719 442.343 59.7172 443.74 59.7142C444.942 59.7117 446.144 59.7108 447.346 59.7113C448.062 59.7116 448.779 59.7112 449.495 59.7092C450.17 59.7074 450.844 59.7077 451.518 59.7096C451.765 59.7099 452.011 59.7095 452.257 59.7083C454.62 59.6978 456.521 60.0023 458.322 61.6128C459.424 62.7448 460.117 64.2283 460.125 65.8001C460.126 66.0299 460.126 66.0299 460.128 66.2643C460.128 66.431 460.129 66.5976 460.129 66.7693C460.13 66.9459 460.131 67.1225 460.132 67.3044C460.135 67.8885 460.136 68.4725 460.138 69.0565C460.139 69.2579 460.139 69.4593 460.14 69.6607C460.142 70.6066 460.145 71.5524 460.146 72.4982C460.147 73.5891 460.151 74.68 460.157 75.7709C460.161 76.615 460.163 77.4591 460.164 78.3033C460.164 78.8071 460.165 79.3109 460.169 79.8147C460.173 80.3765 460.172 80.9381 460.171 81.4998C460.174 81.7498 460.174 81.7498 460.177 82.0048C460.17 83.1317 460.17 83.1317 459.828 83.6969C459.409 84.0508 459.185 84.1128 458.646 84.1141C458.522 84.1147 458.398 84.1154 458.27 84.116C458.064 84.116 458.064 84.116 457.855 84.116C457.709 84.1165 457.564 84.117 457.415 84.1175C456.926 84.1191 456.437 84.1197 455.947 84.1202C455.598 84.1211 455.248 84.122 454.899 84.123C453.848 84.1258 452.797 84.1273 451.746 84.1285C451.251 84.1292 450.756 84.1299 450.262 84.1307C448.618 84.1331 446.973 84.1352 445.329 84.1362C444.902 84.1365 444.476 84.1367 444.049 84.137C443.943 84.1371 443.837 84.1372 443.727 84.1372C442.009 84.1384 440.29 84.142 438.571 84.1466C436.807 84.1513 435.043 84.1539 433.279 84.1544C432.288 84.1547 431.297 84.1559 430.306 84.1595C429.375 84.163 428.443 84.1635 427.511 84.162C427.169 84.1619 426.826 84.1628 426.484 84.1648C426.017 84.1673 425.551 84.1663 425.084 84.1644C424.948 84.166 424.812 84.1675 424.672 84.1691C424.06 84.1632 423.735 84.1483 423.206 83.8239C422.781 83.3737 422.762 83.1254 422.76 82.5252C422.759 82.3736 422.758 82.222 422.757 82.0658C422.757 81.8988 422.757 81.7317 422.757 81.5596C422.756 81.3842 422.755 81.2088 422.755 81.0281C422.753 80.5459 422.752 80.0637 422.751 79.5814C422.751 79.2798 422.75 78.9782 422.75 78.6766C422.748 77.7319 422.746 76.7872 422.746 75.8426C422.745 74.754 422.742 73.6656 422.738 72.5771C422.735 71.7348 422.734 70.8925 422.733 70.0502C422.733 69.5477 422.733 69.0452 422.73 68.5427C422.727 67.9807 422.728 67.4188 422.729 66.8568C422.727 66.6921 422.726 66.5273 422.725 66.3576C422.735 64.433 423.347 62.9233 424.679 61.5061C426.478 59.823 428.594 59.7202 430.933 59.724ZM426.881 63.6311C426.793 63.7369 426.704 63.8427 426.614 63.9518C426.523 64.0572 426.432 64.1627 426.338 64.2714C425.754 65.1069 425.778 65.8591 425.785 66.8431C425.785 66.9997 425.785 67.1564 425.785 67.3178C425.785 67.8242 425.788 68.3306 425.79 68.837C425.79 69.1499 425.791 69.4628 425.791 69.7757C425.792 70.9352 425.796 72.0946 425.8 73.2541C425.806 75.8455 425.812 78.4369 425.818 81.1069C436.13 81.1069 446.441 81.1069 457.066 81.1069C457.077 78.5243 457.089 75.9417 457.102 73.2808C457.107 72.4666 457.112 71.6524 457.118 70.8135C457.12 70.081 457.12 70.081 457.121 69.3485C457.122 69.0233 457.124 68.6981 457.127 68.3729C457.131 67.8791 457.131 67.3854 457.131 66.8916C457.134 66.6757 457.134 66.6757 457.138 66.4556C457.131 65.4133 456.905 64.6626 456.218 63.8601C456.083 63.747 456.083 63.747 455.944 63.6316C455.856 63.5544 455.767 63.4772 455.675 63.3976C454.432 62.6083 453.149 62.6895 451.727 62.6937C451.478 62.6929 451.229 62.6919 450.981 62.6907C450.307 62.6882 449.634 62.6883 448.961 62.6892C448.398 62.6896 447.835 62.6887 447.272 62.6879C445.944 62.6859 444.615 62.6861 443.286 62.6877C441.918 62.6893 440.55 62.6873 439.181 62.6835C438.004 62.6804 436.827 62.6794 435.65 62.6803C434.948 62.6807 434.246 62.6804 433.544 62.678C432.884 62.6757 432.223 62.6763 431.563 62.679C431.321 62.6795 431.08 62.6791 430.838 62.6776C429.389 62.6693 428.053 62.6828 426.881 63.6311Z" fill="#8F9EA2"/>
<path d="M454.872 38.2465C458.124 41.4313 460.095 45.9507 460.149 50.4614C460.153 50.5799 460.157 50.6984 460.162 50.8205C460.168 51.4106 460.155 51.7144 459.83 52.2256C459.364 52.6555 459.024 52.7055 458.383 52.6998C457.839 52.6094 457.586 52.3253 457.211 51.9377C457.083 51.562 457.039 51.299 457.014 50.9105C456.749 47.305 455.735 44.262 453.449 41.4081C453.358 41.2916 453.266 41.1751 453.171 41.0551C450.691 38.1097 446.689 36.3105 442.883 35.9227C439.033 35.6017 434.918 36.6584 431.894 39.078C431.653 39.2848 431.411 39.4922 431.171 39.7006C431.083 39.7668 430.995 39.833 430.904 39.9012C428.035 42.0778 426.459 45.9588 425.963 49.3764C425.908 49.9408 425.883 50.5028 425.872 51.0695C425.799 51.674 425.556 52.0407 425.14 52.4802C424.649 52.7284 424.182 52.746 423.649 52.6492C423.242 52.3939 422.996 52.2196 422.781 51.7954C422.462 47.0036 424.29 42.4516 427.464 38.858C430.742 35.2347 435.32 33.1743 440.204 32.7638C445.779 32.4942 450.858 34.451 454.872 38.2465Z" fill="#8F9EA2"/>
<path d="M408.051 15.7852L483.333 91.0672" stroke="#DE1121" stroke-width="3" stroke-linecap="round"/>
<path d="M273.386 19.2748C273.526 19.2742 273.665 19.2737 273.808 19.2731C274.102 19.2727 274.396 19.2738 274.689 19.2762C275.139 19.2792 275.588 19.2762 276.038 19.2726C276.323 19.2729 276.609 19.2737 276.895 19.2748C277.029 19.2736 277.163 19.2725 277.302 19.2713C278.233 19.2846 278.233 19.2846 278.694 19.6203C278.912 19.9349 279.011 20.182 279.101 20.551C279.308 21.2048 279.595 21.5734 280.204 21.9116C282.071 22.8329 284.095 23.2045 286.171 23.2262C286.282 23.2276 286.393 23.2289 286.508 23.2304C292.384 23.3839 292.384 23.3839 297.563 21.0579C297.768 20.6905 297.906 20.3461 298.024 19.944C298.142 19.635 298.142 19.635 298.576 19.3504C298.866 19.3123 298.866 19.3123 299.2 19.309C299.326 19.3072 299.451 19.3054 299.581 19.3035C299.784 19.3031 299.784 19.3031 299.99 19.3026C300.13 19.3016 300.269 19.3007 300.413 19.2997C300.707 19.2983 301.002 19.2976 301.296 19.2976C301.747 19.297 302.198 19.2919 302.649 19.2865C302.935 19.2856 303.221 19.2851 303.508 19.2848C303.642 19.2827 303.777 19.2807 303.916 19.2786C304.848 19.2851 304.848 19.2851 305.316 19.6144C305.588 20.021 305.583 20.2805 305.565 20.7644C305.562 20.9095 305.558 21.0546 305.554 21.2041C305.536 21.5108 305.515 21.8175 305.486 22.1233C305.333 23.7695 305.34 25.4179 305.339 27.0697C305.339 27.2288 305.339 27.3879 305.339 27.5518C305.341 29.8224 305.363 32.0551 305.809 34.2911C305.835 34.421 305.86 34.551 305.887 34.6849C306.547 37.912 307.62 41.2131 310.438 43.2377C310.997 43.6028 311.562 43.8836 312.187 44.1203C312.507 44.2721 312.675 44.4061 312.898 44.6784C312.952 44.9903 312.952 44.9903 312.953 45.3615C312.954 45.503 312.955 45.6445 312.956 45.7903C312.956 45.9461 312.955 46.102 312.954 46.2626C312.955 46.5105 312.955 46.5105 312.956 46.7634C312.958 47.2229 312.958 47.6823 312.957 48.1418C312.956 48.6371 312.958 49.1324 312.959 49.6277C312.962 50.5984 312.962 51.5691 312.961 52.5398C312.96 53.3288 312.961 54.1179 312.961 54.9069C312.962 55.0191 312.962 55.1313 312.962 55.2469C312.962 55.4749 312.962 55.7028 312.962 55.9307C312.964 58.0699 312.964 60.209 312.962 62.3481C312.961 64.305 312.962 66.2619 312.966 68.2188C312.969 70.2276 312.971 72.2364 312.97 74.2452C312.969 75.3732 312.97 76.5011 312.972 77.6291C312.974 78.5897 312.974 79.5502 312.972 80.5108C312.971 81.0008 312.97 81.4908 312.973 81.9809C312.974 82.5124 312.973 83.0437 312.97 83.5752C312.972 83.7298 312.973 83.8844 312.974 84.0437C312.964 85.0691 312.809 85.7164 312.076 86.4818C306.959 90.1468 298.435 89.9435 292.36 89.9562C292.226 89.9566 292.093 89.957 291.955 89.9575C291.244 89.9596 290.534 89.9609 289.823 89.9615C289.251 89.9621 288.679 89.9641 288.107 89.9674C269.374 90.072 269.374 90.072 264.725 86.37C264.181 85.7653 263.984 85.35 263.982 84.5474C263.981 84.4057 263.981 84.2639 263.98 84.1178C263.98 83.8836 263.98 83.8836 263.98 83.6446C263.98 83.4791 263.979 83.3135 263.978 83.1429C263.977 82.6826 263.977 82.2223 263.976 81.762C263.976 81.2659 263.974 80.7697 263.973 80.2736C263.97 79.0753 263.969 77.8769 263.967 76.6786C263.967 76.1146 263.966 75.5506 263.965 74.9865C263.963 73.1122 263.961 71.2379 263.96 69.3636C263.959 68.8773 263.959 68.3909 263.959 67.9045C263.959 67.7232 263.959 67.7232 263.958 67.5382C263.957 65.5782 263.954 63.6183 263.949 61.6584C263.944 59.6472 263.942 57.636 263.941 55.6248C263.941 54.4951 263.939 53.3655 263.936 52.2358C263.933 51.2742 263.931 50.3125 263.933 49.3509C263.934 48.86 263.933 48.3692 263.93 47.8783C263.928 47.3467 263.929 46.8152 263.931 46.2835C263.929 46.1277 263.928 45.9718 263.926 45.8113C263.935 44.7695 263.935 44.7695 264.275 44.3026C264.599 44.0975 264.892 43.969 265.258 43.8513C267.294 43.0909 268.638 41.3504 269.521 39.4603C270.18 37.9764 270.649 36.4539 270.981 34.8691C271.003 34.766 271.025 34.6629 271.048 34.5566C271.495 32.2483 271.567 29.9354 271.554 27.5917C271.551 27.1207 271.551 26.6498 271.551 26.1787C271.548 24.701 271.523 23.2409 271.379 21.7693C271.359 21.4346 271.342 21.0996 271.334 20.7644C271.326 20.5418 271.326 20.5418 271.318 20.3147C271.379 19.9195 271.379 19.9195 271.583 19.615C272.156 19.2104 272.698 19.2689 273.386 19.2748ZM273.983 21.6271C273.985 21.8879 273.988 22.1487 273.99 22.4174C273.997 23.296 274.002 24.1745 274.006 25.0531C274.008 25.5839 274.011 26.1146 274.016 26.6454C274.046 29.9383 273.994 33.2346 273.142 36.4432C273.105 36.5891 273.068 36.735 273.029 36.8853C272.19 40.0704 270.785 43.3564 267.907 45.2476C267.792 45.2997 267.676 45.3518 267.558 45.4055C266.788 45.7658 266.788 45.7658 266.326 46.4322C266.274 46.8481 266.269 47.2442 266.279 47.6631C266.277 47.8208 266.275 47.9785 266.273 48.141C266.268 48.6698 266.273 49.198 266.278 49.7267C266.277 50.1056 266.275 50.4845 266.272 50.8634C266.266 51.7858 266.269 52.708 266.274 53.6304C266.278 54.38 266.279 55.1295 266.278 55.8791C266.278 55.9858 266.278 56.0925 266.278 56.2024C266.278 56.4192 266.277 56.6359 266.277 56.8527C266.275 58.7691 266.279 60.6854 266.288 62.6018C266.296 64.4614 266.298 66.321 266.294 68.1806C266.289 70.2058 266.288 72.2309 266.293 74.2561C266.293 74.472 266.294 74.6879 266.295 74.9038C266.295 75.0101 266.295 75.1163 266.295 75.2257C266.297 75.9745 266.296 76.7233 266.294 77.472C266.292 78.3844 266.294 79.2966 266.301 80.209C266.305 80.6746 266.306 81.1399 266.303 81.6055C266.301 82.1101 266.305 82.6142 266.312 83.1188C266.309 83.2662 266.307 83.4135 266.305 83.5654C266.31 84.3102 266.31 84.3102 266.709 84.9082C267.334 85.3042 268.016 85.5471 268.73 85.7386C268.889 85.7823 268.889 85.7823 269.051 85.827C274.18 87.1914 279.659 87.4408 284.941 87.5973C285.041 87.6003 285.14 87.6032 285.242 87.6062C298.265 88.3063 298.265 88.3063 310.294 84.8048C310.521 84.5809 310.459 84.3575 310.462 84.0464C310.463 83.9126 310.465 83.7787 310.467 83.6409C310.468 83.4921 310.468 83.3434 310.469 83.1901C310.471 83.0334 310.473 82.8767 310.474 82.7153C310.479 82.1858 310.483 81.6564 310.487 81.1269C310.489 80.8452 310.492 80.5636 310.494 80.2819C310.526 76.7327 310.542 73.1833 310.555 69.6339C310.557 69.1716 310.559 68.7093 310.561 68.247C310.561 68.0747 310.561 68.0747 310.562 67.8988C310.569 66.0386 310.585 64.1786 310.603 62.3185C310.621 60.4091 310.632 58.4998 310.635 56.5903C310.637 55.518 310.643 54.4459 310.657 53.3737C310.669 52.4602 310.675 51.5469 310.671 50.6333C310.67 50.1672 310.672 49.7018 310.682 49.2358C310.804 47.4556 310.804 47.4556 310.238 45.8299C309.698 45.3368 309.09 45.0875 308.413 44.8207C305.323 42.7445 304.137 38.4634 303.458 35.0648C303.437 34.956 303.415 34.8471 303.392 34.735C303.321 34.3508 303.262 33.9662 303.205 33.5796C303.179 33.406 303.153 33.2323 303.126 33.0534C302.827 30.8472 302.882 28.6235 302.896 26.4029C302.899 25.8629 302.9 25.3228 302.902 24.7828C302.905 23.7309 302.91 22.679 302.916 21.6271C302.057 21.6271 301.197 21.6271 300.312 21.6271C300.279 21.8677 300.245 22.1084 300.211 22.3563C299.603 26.5809 298.389 30.4464 294.959 33.295C292.524 35.0596 289.746 35.7373 286.765 35.3633C284.818 35 283.19 34.2247 281.65 33.0104C281.498 32.8989 281.346 32.7874 281.189 32.6725C278.051 29.7917 277.109 25.642 276.587 21.6271C275.728 21.6271 274.869 21.6271 273.983 21.6271ZM296.478 24.3662C295.698 24.6654 294.927 24.8898 294.11 25.0687C294.011 25.0907 293.912 25.1127 293.811 25.1353C291.92 25.5312 290.062 25.661 288.135 25.6562C287.765 25.6557 287.395 25.6591 287.026 25.6627C284.663 25.6717 282.446 25.3641 280.208 24.6135C279.801 24.4582 279.801 24.4582 279.48 24.4729C279.943 27.2009 281.359 29.938 283.676 31.5875C285.516 32.837 287.522 33.422 289.755 33.0871C292.158 32.5599 294.17 31.1786 295.538 29.1685C296.531 27.5973 297.293 25.8879 297.563 24.046C297.153 24.046 296.857 24.21 296.478 24.3662Z" fill="#8F9EA2"/>
<path d="M256.272 15.7852L331.555 91.0672" stroke="#DE1121" stroke-width="3" stroke-linecap="round"/>
<path d="M148.79 28.652C149.703 29.3213 150.21 30.0727 150.436 31.1649C150.466 31.5529 150.458 31.9134 150.436 32.3032C150.525 32.328 150.615 32.3527 150.707 32.3782C151.598 32.6293 152.461 32.9194 153.321 33.2548C153.448 33.3042 153.575 33.3537 153.706 33.4046C154.904 33.8789 156.058 34.4163 157.199 35.0068C157.287 35.0515 157.374 35.0962 157.464 35.1422C163.342 38.1689 168.085 43.3622 170.138 49.5206C171.747 54.737 172.904 62.5907 170.478 67.7429C169.755 68.9184 168.784 69.6932 167.418 70.0646C165.66 70.3668 163.874 70.1424 162.113 69.9691C161.431 69.9021 160.749 69.8379 160.067 69.7742C159.752 69.7449 159.438 69.7146 159.124 69.6829C157.822 69.541 157.822 69.541 156.646 70.0046C156.298 70.3674 156.014 70.7389 155.729 71.149C155.567 71.3385 155.402 71.5255 155.233 71.7093C155.15 71.8003 155.068 71.8912 154.983 71.985C153.898 73.1418 152.735 74.1689 151.465 75.1332C151.325 75.244 151.185 75.3548 151.042 75.4689C146.357 79.1047 140.231 81.5089 134.19 81.5703C134.076 81.5716 133.961 81.573 133.844 81.5745C129.175 81.6195 125.829 80.9167 121.892 78.3615C118.646 76.2946 115.468 75.0289 111.618 74.4217C111.519 74.4051 111.42 74.3884 111.318 74.3712C107.878 73.8062 104.143 73.7983 100.909 75.1326C100.072 75.4701 99.4048 75.6089 98.5384 75.3227C97.9746 75.0597 97.5909 74.7071 97.3053 74.1555C97.0709 73.4197 97.0789 72.6253 97.3558 71.9049C97.4529 71.7964 97.5499 71.6878 97.6499 71.5759C97.7187 71.4985 97.7875 71.4211 97.8584 71.3413C100.061 69.0357 103.166 67.364 105.829 65.6065C107.194 64.7049 108.555 63.7976 109.903 62.8717C110.167 62.6967 110.437 62.5302 110.712 62.3723C111.44 61.9548 111.44 61.9548 111.911 61.3005C111.99 60.93 112.028 60.5695 112.059 60.1925C112.106 59.9053 112.156 59.6185 112.208 59.3321C112.234 59.1789 112.26 59.0257 112.287 58.8679C113.399 52.4711 115.528 45.688 119.999 40.6985C120.112 40.5703 120.225 40.4421 120.342 40.31C121.181 39.3839 122.073 38.5959 123.087 37.8526C123.164 37.7956 123.242 37.7386 123.321 37.6798C124.645 36.7108 126.029 35.8939 127.498 35.1491C127.589 35.1018 127.681 35.0546 127.775 35.0059C131.613 33.0415 136.025 32.0491 140.29 31.4495C140.326 31.341 140.362 31.2325 140.399 31.1208C140.825 29.8648 141.375 28.85 142.593 28.1812C144.691 27.2848 146.862 27.4333 148.79 28.652ZM143.819 30.5957C143.666 30.781 143.518 30.9702 143.378 31.1649C143.46 31.1685 143.542 31.172 143.627 31.1757C144.006 31.1924 144.386 31.2098 144.766 31.2272C144.959 31.2355 144.959 31.2355 145.157 31.2441C145.991 31.2828 146.813 31.3524 147.642 31.4495C147.359 30.848 147.086 30.6166 146.466 30.3111C145.476 30.0978 144.694 30.0838 143.819 30.5957ZM135.732 38.5641C135.636 38.6468 135.539 38.7295 135.44 38.8148C129.489 44.2587 126.854 53.2953 125.881 60.904C125.881 61.0918 125.881 61.2796 125.881 61.4731C126.197 61.5466 126.513 61.6201 126.829 61.6935C127.116 61.7602 127.403 61.8269 127.69 61.8936C128.506 62.0834 129.323 62.273 130.14 62.4624C131.625 62.8067 133.109 63.1511 134.593 63.5006C139.496 64.6561 144.407 65.7599 149.406 66.4534C150.289 63.203 151.082 59.9582 151.612 56.6352C151.651 56.3915 151.651 56.3915 151.691 56.1429C152.029 53.9414 152.097 51.7511 152.108 49.5295C152.109 49.4025 152.11 49.2756 152.112 49.1448C152.146 44.2428 151.147 39.0289 147.493 35.402C143.828 31.9719 138.836 35.8925 135.732 38.5641ZM123.528 40.9831C123.337 41.1636 123.337 41.1636 123.142 41.3477C123.027 41.4621 122.912 41.5766 122.793 41.6945C122.713 41.7624 122.633 41.8303 122.55 41.9002C117.781 46.1096 115.608 54.1124 114.853 60.0502C114.849 60.3348 114.847 60.6194 114.853 60.904C114.997 60.9032 115.141 60.9025 115.29 60.9017C115.962 60.8985 116.634 60.8966 117.307 60.8951C117.427 60.8948 117.547 60.8945 117.672 60.8942C119.248 60.8917 120.818 60.9081 122.392 61.0082C122.672 61.0255 122.953 61.0367 123.234 61.0463C123.494 60.7946 123.472 60.4232 123.525 60.0813C123.567 59.8205 123.567 59.8205 123.611 59.5544C123.625 59.4613 123.64 59.3682 123.656 59.2723C124.154 56.1992 124.881 53.19 125.881 50.2321C125.92 50.1133 125.96 49.9945 126.001 49.8722C127.819 44.5102 130.706 39.8797 134.893 35.9537C135.226 35.6414 135.553 35.3246 135.879 35.0068C131.766 35.0068 126.33 38.2888 123.528 40.9831ZM150.877 35.1491C151.065 35.6378 151.286 36.0614 151.575 36.5009C152.776 38.4147 153.531 40.4876 153.992 42.6728C154.015 42.7799 154.038 42.887 154.061 42.9974C154.49 45.1575 154.613 47.299 154.608 49.4939C154.608 49.6296 154.607 49.7652 154.607 49.905C154.59 55.4378 153.606 60.8555 152.118 66.1889C152.042 66.4542 152.042 66.4542 152.053 66.738C154.132 66.9483 156.209 67.0735 158.296 67.1727C160.084 67.2591 161.857 67.3966 163.636 67.5967C165.624 67.8649 165.624 67.8649 167.492 67.3071C169.166 65.7224 168.958 62.0459 168.997 59.9284C169.028 54.0824 167.757 48.3498 163.963 43.6866C163.9 43.6086 163.837 43.5305 163.772 43.4501C160.604 39.5739 155.805 36.4723 150.877 35.1491ZM115.549 63.1794C113.778 63.1802 112.748 64.0228 111.418 65.0304C110.691 65.5637 109.931 66.0499 109.174 66.5423C108.858 66.7492 108.542 66.9561 108.226 67.1632C108.002 67.31 108.002 67.31 107.773 67.4598C106.399 68.3599 105.035 69.2731 103.678 70.1974C103.528 70.2999 103.528 70.2999 103.374 70.4044C102.682 70.8778 102.002 71.3651 101.326 71.8605C101.917 72.0289 102.285 71.9365 102.888 71.7982C108.857 70.6319 116.53 71.8935 121.634 75.1055C122.223 75.486 122.807 75.8733 123.389 76.2629C125.403 77.603 127.398 78.6233 129.851 78.9751C129.991 78.9953 130.13 79.0154 130.275 79.0362C137.302 79.7798 144.517 77.2392 149.983 73.0675C150.953 72.3052 151.871 71.491 152.761 70.6421C152.836 70.5708 152.911 70.4996 152.988 70.4262C153.324 70.0984 153.517 69.8859 153.67 69.4415C153.528 69.4245 153.386 69.4074 153.239 69.3899C148.027 68.7645 142.939 67.9032 137.835 66.699C137.718 66.6715 137.601 66.644 137.481 66.6156C136.296 66.3358 135.11 66.0542 133.926 65.7684C131.546 65.1943 129.166 64.6491 126.76 64.185C126.654 64.1645 126.548 64.1439 126.438 64.1228C124.692 63.7869 122.945 63.5134 121.176 63.3229C120.946 63.2952 120.946 63.2952 120.712 63.2668C119.249 63.1145 117.762 63.1435 116.293 63.173C116.045 63.1776 115.797 63.1803 115.549 63.1794Z" fill="#8F9EA2"/>
<path d="M104.494 15.7852L179.776 91.0672" stroke="#DE1121" stroke-width="3" stroke-linecap="round"/>
<rect x="0.5" y="0.5" width="1190.16" height="111.923" rx="19.5" stroke="#E12039"/>
</svg>
