<svg width="352" height="137" viewBox="0 0 352 137" fill="none" xmlns="http://www.w3.org/2000/svg">
<path d="M1.00024 75.5332C29.3336 66.3666 92.6002 49.9332 119 57.5332C82.0002 64.0332 8.50024 89.0334 10.5002 92.0334C11.3739 93.3439 58.8126 85.2079 112.132 75.1702M112.132 75.1702C180.867 62.2305 259.374 46.1307 260.5 43.0334C261.972 38.9871 189.023 36.2939 112.132 75.1702ZM112.132 75.1702C84.5075 89.1373 56.3741 108.47 31.0002 135.033M223.002 50.0334C211.002 52.2001 186.402 59.5334 184.002 71.5334C181.602 83.5334 205.669 67.5334 218.002 58.0334C212.835 64.2001 209.501 72.2334 237.501 55.0334C236.001 61.0334 241.001 66.0334 264.501 50.0334C260.501 56.4334 272.834 52.7001 279.501 50.0334C276.834 53.0334 275.801 57.4334 293.001 51.0334C288.568 57.9288 330.711 42.9918 342.964 17.2144M342.964 17.2144C343.15 16.8232 343.329 16.4296 343.501 16.0334C353.891 -7.90735 342.651 -0.0172462 342.964 17.2144ZM342.964 17.2144C342.998 19.0565 343.163 21.0053 343.501 23.0334C347.001 44.0334 366.501 49.5332 320.001 57.0332C273.501 64.5332 71.5011 126.533 163.001 96.5332C254.501 66.5332 328 51.5332 333 44.0332" stroke="white" stroke-width="2" stroke-linecap="round" stroke-linejoin="round"/>
</svg>
