<svg width="73" height="73" viewBox="0 0 73 73" fill="none" xmlns="http://www.w3.org/2000/svg">
<mask id="path-1-inside-1_5052_3534" fill="white">
<path d="M6.11467 0.0706504C6.22091 0.0702732 6.32715 0.0698959 6.43661 0.0695072C6.7946 0.0684127 7.15259 0.0683332 7.51059 0.0682482C7.76906 0.0676771 8.02754 0.0670457 8.28601 0.066359C8.9979 0.0646558 9.70979 0.0638529 10.4217 0.0632034C11.1889 0.0623564 11.9561 0.0607046 12.7233 0.0591787C14.577 0.0556889 16.4308 0.0536087 18.2845 0.0517724C18.8081 0.0512444 19.3316 0.0506791 19.8552 0.0501004C23.1062 0.04651 26.3573 0.0433725 29.6083 0.0416032C30.3614 0.0411864 31.1146 0.0407651 31.8678 0.0403363C32.055 0.0402302 32.2421 0.040124 32.435 0.0400147C35.4669 0.0382148 38.4988 0.0334888 41.5308 0.0275607C44.6434 0.0215247 47.756 0.0181729 50.8687 0.0174296C52.6163 0.016944 54.364 0.0152732 56.1117 0.0105863C57.6003 0.00660089 59.0888 0.0050389 60.5774 0.00663073C61.3366 0.00736811 62.0958 0.00696104 62.8551 0.00343469C63.5509 0.000229793 64.2467 0.000343989 64.9426 0.0030369C65.1935 0.00343453 65.4445 0.0026427 65.6955 0.000502756C67.9396 -0.0174539 69.6286 0.441599 71.2987 2.02238C72.2965 3.07957 72.9261 4.46327 72.9293 5.91187C72.93 6.08531 72.9308 6.25875 72.9315 6.43745C72.9316 6.63019 72.9317 6.82294 72.9317 7.01569C72.9323 7.22025 72.9329 7.42481 72.9336 7.62936C72.9353 8.19222 72.9361 8.75507 72.9368 9.31793C72.9376 9.92474 72.9393 10.5316 72.9408 11.1384C72.9443 12.6044 72.9464 14.0704 72.9482 15.5364C72.9487 15.9505 72.9493 16.3647 72.9499 16.7789C72.9535 19.3515 72.9566 21.9241 72.9584 24.4967C72.9588 25.0926 72.9592 25.6885 72.9596 26.2844C72.9597 26.4325 72.9598 26.5806 72.96 26.7332C72.9618 29.1311 72.9665 31.5291 72.9724 33.927C72.9784 36.3898 72.9818 38.8525 72.9825 41.3152C72.983 42.6976 72.9847 44.08 72.9894 45.4624C72.9934 46.64 72.9949 47.8176 72.9933 48.9952C72.9926 49.5956 72.993 50.1959 72.9965 50.7963C72.9997 51.3471 72.9996 51.8977 72.9969 52.4485C72.9965 52.6466 72.9973 52.8448 72.9995 53.043C73.0207 55.1373 72.4118 56.714 70.9781 58.2295C69.9369 59.2127 68.5534 59.8695 67.121 59.8473C66.9556 59.8452 66.7901 59.8431 66.6197 59.841C66.4386 59.838 66.2576 59.835 66.0711 59.8319C65.7778 59.828 65.4844 59.8243 65.191 59.8207C64.9829 59.8181 64.7748 59.8155 64.5667 59.8127C63.2285 59.7955 61.8901 59.7902 60.5518 59.7846C59.2498 59.7791 57.9482 59.7698 56.6464 59.748C55.6114 59.7306 54.5766 59.722 53.5414 59.7233C52.9943 59.7237 52.4479 59.72 51.901 59.7057C49.453 59.5484 49.453 59.5484 47.323 60.5067C46.8758 60.9985 46.5244 61.5246 46.2009 62.1041C45.9438 62.5498 45.6307 62.9343 45.3091 63.3355C45.1414 63.5561 45.1414 63.5561 44.9702 63.7812C44.5548 64.3232 44.1232 64.8517 43.6913 65.3805C42.9107 66.3365 42.1439 67.3021 41.3844 68.2748C41.1911 68.5222 40.9974 68.7692 40.8034 69.016C40.7387 69.0985 40.6739 69.1809 40.6072 69.2659C40.4774 69.4309 40.3475 69.5958 40.2175 69.7607C39.8773 70.1924 39.5404 70.6262 39.2078 71.0639C39.1385 71.1544 39.0691 71.2449 38.9976 71.3381C38.8653 71.5107 38.7339 71.6841 38.6037 71.8583C38.1259 72.4787 37.7293 72.8733 36.9406 72.9911C36.7981 72.9913 36.6557 72.9915 36.5089 72.9917C36.3668 72.9944 36.2247 72.9972 36.0783 73C35.1368 72.8461 34.6151 72.2027 34.0733 71.4712C33.9372 71.2927 33.8009 71.1143 33.6644 70.9361C33.5936 70.8432 33.5228 70.7503 33.4499 70.6546C33.0746 70.1692 32.6845 69.6961 32.2954 69.2217C31.623 68.3984 30.9705 67.5635 30.3259 66.7181C29.9082 66.175 29.4754 65.6445 29.042 65.1138C28.4579 64.3984 27.8781 63.6803 27.3086 62.9531C27.2529 62.8857 27.1971 62.8183 27.1397 62.7489C26.8012 62.332 26.5134 61.9374 26.2835 61.4509C25.9565 60.8257 25.5988 60.3414 24.9797 59.9834C23.6554 59.6335 22.2212 59.7426 20.8612 59.7761C20.3132 59.7873 19.7651 59.7865 19.217 59.7868C18.1789 59.7892 17.1412 59.801 16.1033 59.8168C14.2474 59.8448 12.3914 59.8574 10.5353 59.8653C9.88543 59.8685 9.23582 59.876 8.58606 59.8873C8.17978 59.8938 7.77351 59.8973 7.3672 59.9003C7.09288 59.9032 6.8186 59.9098 6.54435 59.9165C4.58935 59.9247 3.10458 59.2371 1.70131 57.9089C0.703542 56.8517 0.0738673 55.468 0.0706669 54.0194C0.0699452 53.8459 0.0692235 53.6725 0.0684799 53.4938C0.0683943 53.3011 0.068323 53.1083 0.0682651 52.9156C0.0676939 52.711 0.0670628 52.5064 0.0663765 52.3019C0.0646753 51.739 0.0638713 51.1762 0.0632215 50.6133C0.0623741 50.0065 0.0607231 49.3997 0.059198 48.7929C0.0557105 47.3269 0.0536297 45.8609 0.0517938 44.3949C0.0512658 43.9807 0.0507007 43.5666 0.0501222 43.1524C0.0465325 40.5798 0.0433966 38.0072 0.0416275 35.4346C0.0412109 34.8387 0.0407894 34.2428 0.0403607 33.6469C0.0402546 33.4988 0.0401488 33.3507 0.0400395 33.1981C0.0382407 30.8001 0.0335163 28.4022 0.0275885 26.0042C0.0215506 23.5415 0.0182029 21.0788 0.0174602 18.6161C0.0169752 17.2337 0.0153092 15.8513 0.0106187 14.4689C0.00662957 13.2913 0.00507474 12.1137 0.00666406 10.9361C0.00740005 10.3357 0.00700229 9.73531 0.00346899 9.13491C0.00025518 8.58417 0.000386506 8.03354 0.0030713 7.4828C0.00346748 7.28461 0.00268509 7.08641 0.000538139 6.88823C-0.0207444 4.79397 0.58815 3.21728 2.02187 1.70173C3.16004 0.626962 4.57201 0.0679907 6.11467 0.0706504ZM5.09473 4.98937C4.44236 5.75378 4.33933 6.32683 4.33864 7.30997C4.33818 7.47431 4.33772 7.63864 4.33725 7.80796C4.33747 7.98788 4.33769 8.1678 4.33791 8.35317C4.33765 8.54672 4.33732 8.74027 4.33694 8.93382C4.33607 9.46557 4.33609 9.99731 4.33626 10.529C4.33628 11.1026 4.3355 11.6761 4.33482 12.2496C4.33364 13.3732 4.33325 14.4968 4.33317 15.6204C4.33311 16.5336 4.33281 17.4468 4.33236 18.36C4.33111 20.9487 4.33045 23.5374 4.33056 26.1261C4.33057 26.2656 4.33057 26.4052 4.33058 26.549C4.33058 26.6887 4.33059 26.8285 4.3306 26.9724C4.33065 29.2376 4.32929 31.5027 4.32729 33.7678C4.32524 36.0933 4.32426 38.4187 4.32438 40.7441C4.32443 42.0498 4.32404 43.3555 4.32251 44.6612C4.32122 45.7729 4.32091 46.8845 4.32187 47.9961C4.32234 48.5632 4.32234 49.1304 4.32111 49.6975C4.31999 50.2169 4.32019 50.7362 4.32143 51.2555C4.32176 51.5321 4.32068 51.8087 4.31955 52.0852C4.30223 53.5703 4.30223 53.5703 4.98806 54.8352C5.76563 55.4991 6.34577 55.5915 7.3457 55.589C7.60319 55.5889 7.60319 55.5889 7.86588 55.5888C8.14663 55.5877 8.14663 55.5877 8.43305 55.5866C8.63308 55.5863 8.83312 55.5861 9.03315 55.586C9.46332 55.5857 9.89348 55.585 10.3236 55.5841C11.0045 55.5829 11.6853 55.5837 12.3662 55.585C12.4812 55.5852 12.5963 55.5854 12.7148 55.5856C12.95 55.5861 13.1852 55.5865 13.4204 55.587C15.0049 55.59 16.5894 55.5919 18.1739 55.5874C19.2435 55.5843 20.3131 55.5847 21.3828 55.5893C21.9484 55.5915 22.5138 55.592 23.0794 55.5882C23.6117 55.5846 24.1437 55.5857 24.676 55.5903C24.9632 55.5915 25.2503 55.5879 25.5375 55.5841C26.3938 55.5958 26.9743 55.6218 27.6404 56.1928C27.8021 56.3604 27.9588 56.533 28.1087 56.7113C28.1788 56.792 28.249 56.8728 28.3212 56.956C28.5052 57.1739 28.6762 57.3983 28.8465 57.6271C28.98 57.8018 29.1137 57.9763 29.2476 58.1506C29.3166 58.2408 29.3855 58.331 29.4566 58.4239C29.831 58.9065 30.2194 59.3776 30.6065 59.85C31.279 60.6732 31.9315 61.5082 32.576 62.3535C33.069 62.9945 33.5827 63.6185 34.0942 64.2446C34.8617 65.1852 35.6115 66.1392 36.3578 67.0966C36.9645 66.8769 37.2728 66.4205 37.6467 65.9229C37.7865 65.741 37.9263 65.5591 38.0662 65.3772C38.137 65.2843 38.2078 65.1913 38.2808 65.0956C38.6022 64.675 38.9286 64.2585 39.2556 63.8423C39.3196 63.7607 39.3835 63.6791 39.4493 63.595C39.9461 62.9628 40.4533 62.3395 40.9623 61.7172C41.6051 60.9307 42.2318 60.1338 42.8468 59.3254C42.923 59.2255 42.9991 59.1255 43.0776 59.0226C43.3773 58.629 43.6768 58.2354 43.9751 57.8408C44.1845 57.5642 44.3955 57.2888 44.6069 57.0136C44.6684 56.9315 44.7299 56.8494 44.7933 56.7649C45.2544 56.1684 45.6677 55.7636 46.4337 55.6615C46.5828 55.6612 46.7319 55.6609 46.8855 55.6606C47.0573 55.6593 47.2292 55.6579 47.4063 55.6565C47.5937 55.6571 47.7811 55.6578 47.9741 55.6585C48.1744 55.6576 48.3747 55.6566 48.5749 55.6554C49.0056 55.6533 49.4362 55.6525 49.8668 55.6527C50.5482 55.653 51.2296 55.6502 51.911 55.647C53.2349 55.6411 54.5588 55.6385 55.8827 55.6361C57.5668 55.6329 59.2509 55.6282 60.935 55.6209C61.6119 55.618 62.2887 55.6167 62.9656 55.6165C63.3874 55.6161 63.8091 55.6145 64.2309 55.6127C64.5186 55.6118 64.8063 55.6123 65.094 55.6129C66.6116 55.6348 66.6116 55.6348 67.9053 54.9419C68.5576 54.1775 68.6607 53.6044 68.6614 52.6213C68.6618 52.4569 68.6623 52.2926 68.6628 52.1233C68.6625 51.9434 68.6623 51.7635 68.6621 51.5781C68.6623 51.3845 68.6627 51.191 68.6631 50.9974C68.6639 50.4657 68.6639 49.9339 68.6637 49.4022C68.6637 48.8287 68.6645 48.2551 68.6652 47.6816C68.6664 46.558 68.6667 45.4345 68.6668 44.3109C68.6669 43.3977 68.6672 42.4845 68.6676 41.5713C68.6689 38.9826 68.6695 36.3939 68.6694 33.8052C68.6694 33.6656 68.6694 33.5261 68.6694 33.3823C68.6694 33.2425 68.6694 33.1028 68.6694 32.9588C68.6693 30.6937 68.6707 28.4285 68.6727 26.1634C68.6748 23.838 68.6757 21.5126 68.6756 19.1871C68.6756 17.8814 68.676 16.5757 68.6775 15.27C68.6788 14.1584 68.6791 13.0468 68.6781 11.9352C68.6777 11.368 68.6777 10.8009 68.6789 10.2337C68.68 9.7144 68.6798 9.19508 68.6786 8.67575C68.6782 8.39917 68.6793 8.12259 68.6805 7.84602C68.6978 6.36099 68.6978 6.36099 68.0119 5.09606C67.1802 4.38585 66.5576 4.34036 65.4876 4.33977C65.3857 4.33952 65.2839 4.33927 65.1789 4.33901C64.8367 4.33835 64.4945 4.3387 64.1523 4.33905C63.9048 4.33878 63.6573 4.33845 63.4099 4.33807C62.7291 4.3372 62.0483 4.33722 61.3675 4.33739C60.6336 4.33741 59.8997 4.33663 59.1657 4.33596C57.7276 4.33477 56.2895 4.33438 54.8513 4.3343C53.6826 4.33424 52.5139 4.33394 51.3452 4.33349C48.0331 4.33224 44.721 4.33158 41.4089 4.33169C41.141 4.3317 41.141 4.3317 40.8677 4.33171C40.6889 4.33171 40.51 4.33172 40.3258 4.33172C37.4266 4.33178 34.5275 4.33042 31.6284 4.32842C28.653 4.32637 25.6776 4.32539 22.7023 4.32551C21.0312 4.32556 19.3602 4.32517 17.6892 4.32364C16.2666 4.32234 14.844 4.32203 13.4215 4.323C12.6955 4.32346 11.9695 4.32347 11.2435 4.32224C10.579 4.32112 9.91453 4.32132 9.25007 4.32256C9.00955 4.32278 8.76904 4.32252 8.52852 4.32173C8.20173 4.32073 7.87498 4.32148 7.54818 4.32266C7.27584 4.32261 7.27584 4.32261 6.998 4.32257C6.24001 4.37557 5.67434 4.4869 5.09473 4.98937Z"/>
<path d="M11.6573 11.0215C11.7765 11.0208 11.8956 11.0201 12.0184 11.0193C12.4123 11.0173 12.8061 11.0163 13.1999 11.0155C13.4742 11.0147 13.7484 11.0139 14.0226 11.013C14.5976 11.0115 15.1725 11.0107 15.7475 11.0102C16.483 11.0094 17.2185 11.006 17.954 11.002C18.5206 10.9993 19.0871 10.9986 19.6536 10.9984C19.9247 10.9979 20.1958 10.9968 20.4669 10.9949C20.8468 10.9925 21.2266 10.9928 21.6065 10.9937C21.7177 10.9924 21.8289 10.9911 21.9435 10.9897C22.8772 10.9968 23.537 11.1993 24.2508 11.8357C24.7767 12.4391 24.7206 12.9523 24.7272 13.7219C24.7296 13.917 24.7296 13.917 24.7321 14.116C24.7478 15.4773 24.7546 16.8388 24.7607 18.2003C24.7638 18.8461 24.7698 19.4918 24.7782 20.1376C24.7883 20.9174 24.7935 21.6971 24.7952 22.477C24.7967 22.7738 24.7999 23.0707 24.8049 23.3676C24.8114 23.7841 24.8117 24.2002 24.8105 24.6168C24.8156 24.7996 24.8156 24.7996 24.8207 24.986C24.8089 25.8489 24.5432 26.2815 23.9551 26.9054C23.3911 27.3799 22.7181 27.2845 22.0216 27.2854C21.8937 27.2861 21.7658 27.2869 21.634 27.2876C21.2103 27.2897 20.7866 27.2906 20.3629 27.2914C20.0687 27.2922 19.7744 27.2931 19.4802 27.2939C18.863 27.2954 18.2459 27.2962 17.6287 27.2967C16.8378 27.2975 16.0469 27.3009 15.256 27.3049C14.6482 27.3076 14.0403 27.3083 13.4324 27.3086C13.1409 27.309 12.8493 27.3101 12.5577 27.312C12.1498 27.3144 11.742 27.3142 11.3341 27.3132C11.2137 27.3145 11.0932 27.3158 10.9691 27.3172C10.0483 27.3107 9.62049 27.1042 8.94045 26.465C8.50031 25.9032 8.52455 25.3484 8.53396 24.6581C8.53294 24.5276 8.53192 24.397 8.53087 24.2625C8.52848 23.8324 8.53123 23.4025 8.53427 22.9724C8.53415 22.6726 8.5338 22.3729 8.53323 22.0731C8.53282 21.4455 8.53491 20.818 8.53882 20.1904C8.54367 19.3867 8.54281 18.5831 8.54015 17.7794C8.53864 17.1606 8.53992 16.5418 8.54205 15.9231C8.54279 15.6268 8.54272 15.3304 8.54183 15.0341C8.54105 14.6197 8.54396 14.2055 8.54785 13.791C8.54692 13.6691 8.54599 13.5471 8.54504 13.4214C8.55719 12.6578 8.68495 12.219 9.19262 11.6135C9.98313 11.0402 10.7061 11.0228 11.6573 11.0215ZM12.8905 15.4546C12.8905 17.8958 12.8905 20.3371 12.8905 22.8523C15.378 22.8523 17.8656 22.8523 20.4285 22.8523C20.4285 20.4111 20.4285 17.9698 20.4285 15.4546C17.9409 15.4546 15.4534 15.4546 12.8905 15.4546Z"/>
<path d="M31.6492 43.0329C31.8482 43.0321 31.8482 43.0321 32.0511 43.0313C32.4984 43.0298 32.9456 43.0292 33.3928 43.0287C33.7124 43.0278 34.0319 43.0268 34.3514 43.0258C35.2215 43.0233 36.0917 43.0219 36.9618 43.0207C37.505 43.0199 38.0483 43.0191 38.5915 43.0182C40.0954 43.0158 41.5993 43.0137 43.1031 43.0127C43.4935 43.0124 43.8838 43.0121 44.2741 43.0119C44.4197 43.0117 44.4197 43.0118 44.5681 43.0116C46.1398 43.0105 47.7114 43.0069 49.2831 43.0022C50.8964 42.9975 52.5097 42.995 54.123 42.9945C55.0289 42.9942 55.9348 42.9929 56.8407 42.9893C57.6929 42.986 58.545 42.9854 59.3972 42.9869C59.7102 42.9869 60.0231 42.986 60.336 42.9841C60.763 42.9816 61.1898 42.9826 61.6168 42.9845C61.7409 42.9829 61.8649 42.9813 61.9927 42.9797C62.8955 42.9893 63.3765 43.2514 64.0652 43.8452C64.49 44.3596 64.4238 45.0222 64.4146 45.6535C64.359 46.2166 64.2013 46.4911 63.8074 46.895C62.9983 47.4343 62.2811 47.5464 61.3255 47.5363C61.1947 47.5372 61.0638 47.5381 60.929 47.539C60.4929 47.5412 60.057 47.5395 59.6209 47.5377C59.3073 47.5384 58.9937 47.5395 58.6801 47.5407C57.83 47.5433 56.9799 47.5423 56.1298 47.5405C55.2395 47.539 54.3492 47.5404 53.4589 47.5413C51.8682 47.5424 50.2775 47.5406 48.6868 47.5377C47.246 47.5352 45.8051 47.5356 44.3643 47.5382C42.6891 47.5413 41.014 47.5424 39.3388 47.5407C38.4527 47.5398 37.5667 47.5397 36.6807 47.5416C35.8476 47.5432 35.0146 47.5421 34.1815 47.5388C33.8761 47.5381 33.5706 47.5383 33.2651 47.5395C32.8476 47.5411 32.4303 47.5391 32.0128 47.5363C31.8923 47.5376 31.7719 47.5388 31.6478 47.5401C30.6466 47.527 29.8815 47.2545 29.1753 46.5304C28.8731 45.8376 28.8686 45.2214 28.962 44.4765C29.4684 43.2236 30.4345 43.0327 31.6492 43.0329Z"/>
<path d="M31.6673 21.5523C31.8002 21.5518 31.933 21.5514 32.0699 21.551C32.517 21.5497 32.9641 21.5495 33.4112 21.5493C33.731 21.5487 34.0508 21.5479 34.3706 21.5472C35.2407 21.5453 36.1108 21.5444 36.9809 21.5438C37.5241 21.5433 38.0674 21.5428 38.6106 21.5421C40.1145 21.5404 41.6183 21.5389 43.1222 21.5384C43.2666 21.5384 43.2666 21.5384 43.4138 21.5384C43.5103 21.5383 43.6068 21.5383 43.7062 21.5383C43.9017 21.5382 44.0972 21.5381 44.2927 21.5381C44.3897 21.538 44.4867 21.538 44.5866 21.538C46.1583 21.5374 47.73 21.5349 49.3018 21.5316C50.9152 21.5282 52.5287 21.5265 54.1421 21.5263C55.0481 21.5262 55.9541 21.5253 56.8601 21.5228C57.7121 21.5204 58.564 21.5201 59.4159 21.5214C59.7289 21.5215 60.0419 21.5209 60.3549 21.5195C60.7816 21.5177 61.2082 21.5185 61.6349 21.52C61.7593 21.5188 61.8836 21.5177 62.0118 21.5165C62.9235 21.5239 63.3704 21.7435 64.0652 22.3458C64.4984 22.893 64.4663 23.4817 64.4363 24.1547C64.33 24.8723 64.0303 25.2476 63.4607 25.6712C62.6968 26.0254 61.9386 26.003 61.113 26.0015C60.9848 26.0018 60.8565 26.0021 60.7244 26.0024C60.2945 26.0033 59.8647 26.0032 59.4348 26.0031C59.1267 26.0035 58.8185 26.004 58.5104 26.0045C57.6732 26.0058 56.836 26.0061 55.9988 26.0062C55.3 26.0064 54.6013 26.0069 53.9025 26.0074C52.254 26.0086 50.6055 26.0089 48.957 26.0088C47.2561 26.0087 45.5553 26.0102 43.8544 26.0125C42.3943 26.0143 40.9343 26.0151 39.4742 26.015C38.602 26.015 37.7299 26.0154 36.8578 26.0169C36.0376 26.0182 35.2174 26.0183 34.3972 26.0172C34.0963 26.0171 33.7953 26.0174 33.4944 26.0183C33.0834 26.0194 32.6724 26.0187 32.2614 26.0176C32.1425 26.0183 32.0236 26.0191 31.9011 26.0198C31.017 26.0146 30.2504 25.9517 29.5576 25.3511C28.9539 24.6437 28.8765 24.2044 28.8876 23.2928C29.0076 22.5835 29.4008 22.1498 29.9576 21.7145C30.5269 21.5247 31.0737 21.5517 31.6673 21.5523Z"/>
<path d="M23.273 34.5182C23.8426 34.8031 24.22 35.1129 24.553 35.6564C24.7825 36.3449 24.8102 36.9478 24.5306 37.6131C24.233 38.1375 23.8694 38.532 23.4436 38.9508C23.3196 39.0752 23.3196 39.0752 23.1932 39.2021C22.9216 39.4742 22.6484 39.7448 22.3752 40.0154C22.1854 40.2048 21.9957 40.3943 21.8061 40.5838C21.4094 40.9801 21.0119 41.3756 20.6139 41.7705C20.1036 42.277 19.5945 42.7846 19.0859 43.2927C18.6945 43.6836 18.3028 44.0741 17.9109 44.4644C17.723 44.6515 17.5352 44.8387 17.3475 45.0259C17.0854 45.2871 16.8228 45.5478 16.56 45.8084C16.4824 45.8858 16.4049 45.9633 16.3249 46.0431C15.6818 46.6791 15.2524 46.9638 14.36 47.0403C12.7937 47.0271 11.4427 45.1884 10.4282 44.1744C10.3013 44.0492 10.1743 43.9239 10.0435 43.7949C9.92165 43.6733 9.79982 43.5517 9.6743 43.4264C9.56461 43.3173 9.45492 43.2081 9.3419 43.0957C8.663 42.3361 8.53573 41.7715 8.5665 40.7706C8.65213 40.1427 8.83871 39.7532 9.33485 39.3552C9.9597 38.9974 10.5508 38.8722 11.2638 38.9818C12.0172 39.1973 12.492 39.6618 13.0327 40.2088C13.1501 40.3243 13.2674 40.4399 13.3883 40.5589C13.6989 40.8667 14.0068 41.1768 14.3128 41.4892C15.1445 40.7999 15.9029 40.055 16.6612 39.2863C16.921 39.0246 17.181 38.7628 17.4409 38.5011C17.8476 38.0909 18.254 37.6803 18.66 37.2694C19.0537 36.871 19.4486 36.4738 19.8435 36.0765C19.965 35.953 20.0864 35.8296 20.2116 35.7024C20.3251 35.5884 20.4386 35.4744 20.5555 35.357C20.6549 35.2565 20.7542 35.1561 20.8565 35.0527C21.5837 34.4107 22.3387 34.4072 23.273 34.5182Z"/>
<path d="M32.1921 12.3959C32.3405 12.3951 32.4889 12.3943 32.6418 12.3935C33.1296 12.3918 33.6172 12.3941 34.1049 12.3967C34.4453 12.3966 34.7857 12.3964 35.1261 12.396C35.8382 12.3958 36.5504 12.3976 37.2626 12.4009C38.1744 12.4049 39.0862 12.4045 39.9981 12.4027C40.7005 12.4017 41.4029 12.4028 42.1054 12.4046C42.4416 12.4052 42.7778 12.4053 43.114 12.4047C43.5841 12.4043 44.0541 12.4067 44.5241 12.4098C44.6624 12.4091 44.8007 12.4085 44.9431 12.4078C45.8312 12.4175 46.5732 12.5052 47.2725 13.1074C47.8057 13.8137 47.9506 14.2848 47.8781 15.1703C47.6405 15.9374 47.3417 16.3583 46.6234 16.7553C46.0188 16.9936 45.3935 16.9562 44.7519 16.9511C44.5977 16.9521 44.4436 16.9531 44.2848 16.9541C43.7771 16.9566 43.2695 16.9549 42.7618 16.953C42.4082 16.9534 42.0545 16.954 41.7008 16.9547C40.9604 16.9555 40.22 16.9543 39.4796 16.9516C38.7196 16.949 37.9597 16.9489 37.1997 16.9516C36.281 16.9549 35.3623 16.9554 34.4436 16.9536C34.0938 16.9532 33.7439 16.9537 33.3941 16.955C32.9052 16.9564 32.4165 16.9542 31.9276 16.9511C31.7111 16.9528 31.7111 16.9528 31.4903 16.9546C30.6687 16.9447 30.1782 16.8661 29.5309 16.3084C29.0432 15.782 28.9194 15.3724 28.8909 14.6723C28.9214 13.9705 29.0264 13.5535 29.5309 13.0363C30.3873 12.4498 31.1774 12.3858 32.1921 12.3959Z"/>
<path d="M31.4441 33.929C31.6331 33.9277 31.6331 33.9277 31.8259 33.9265C31.963 33.9263 32.1002 33.9262 32.2415 33.926C32.3868 33.9253 32.5321 33.9246 32.6818 33.9239C33.1626 33.9218 33.6435 33.9208 34.1244 33.92C34.4589 33.9192 34.7934 33.9184 35.1278 33.9176C35.8294 33.9161 36.531 33.9153 37.2326 33.9148C38.1304 33.914 39.0282 33.9106 39.926 33.9065C40.6171 33.9039 41.3082 33.9031 41.9993 33.9029C42.3302 33.9025 42.6611 33.9013 42.992 33.8995C43.4557 33.897 43.9192 33.8973 44.3829 33.8982C44.5189 33.8969 44.6549 33.8956 44.795 33.8943C45.8263 33.9007 46.6401 34.0401 47.4425 34.7403C47.8631 35.317 47.932 35.9532 47.8781 36.652C47.6805 37.3647 47.3629 37.8296 46.7342 38.2366C46.153 38.4924 45.5192 38.4364 44.895 38.4305C44.7392 38.4313 44.5835 38.432 44.423 38.4328C43.9093 38.4346 43.3956 38.4323 42.8819 38.4297C42.5245 38.4297 42.1671 38.4299 41.8097 38.4303C41.0611 38.4305 40.3126 38.4288 39.564 38.4255C38.6996 38.4217 37.8352 38.4215 36.9707 38.4231C36.1376 38.4247 35.3046 38.4238 34.4715 38.4218C34.1176 38.4211 33.7637 38.4211 33.4098 38.4216C32.9155 38.4221 32.4212 38.4197 31.9268 38.4166C31.7804 38.4172 31.6341 38.4179 31.4832 38.4185C30.4962 38.4082 30.0259 38.2381 29.2732 37.5856C28.8399 37.0384 28.8721 36.4497 28.9021 35.7767C28.9832 35.2285 29.1506 34.919 29.531 34.518C30.1493 34.0696 30.6903 33.9319 31.4441 33.929Z"/>
</mask>
<path d="M6.11467 0.0706504C6.22091 0.0702732 6.32715 0.0698959 6.43661 0.0695072C6.7946 0.0684127 7.15259 0.0683332 7.51059 0.0682482C7.76906 0.0676771 8.02754 0.0670457 8.28601 0.066359C8.9979 0.0646558 9.70979 0.0638529 10.4217 0.0632034C11.1889 0.0623564 11.9561 0.0607046 12.7233 0.0591787C14.577 0.0556889 16.4308 0.0536087 18.2845 0.0517724C18.8081 0.0512444 19.3316 0.0506791 19.8552 0.0501004C23.1062 0.04651 26.3573 0.0433725 29.6083 0.0416032C30.3614 0.0411864 31.1146 0.0407651 31.8678 0.0403363C32.055 0.0402302 32.2421 0.040124 32.435 0.0400147C35.4669 0.0382148 38.4988 0.0334888 41.5308 0.0275607C44.6434 0.0215247 47.756 0.0181729 50.8687 0.0174296C52.6163 0.016944 54.364 0.0152732 56.1117 0.0105863C57.6003 0.00660089 59.0888 0.0050389 60.5774 0.00663073C61.3366 0.00736811 62.0958 0.00696104 62.8551 0.00343469C63.5509 0.000229793 64.2467 0.000343989 64.9426 0.0030369C65.1935 0.00343453 65.4445 0.0026427 65.6955 0.000502756C67.9396 -0.0174539 69.6286 0.441599 71.2987 2.02238C72.2965 3.07957 72.9261 4.46327 72.9293 5.91187C72.93 6.08531 72.9308 6.25875 72.9315 6.43745C72.9316 6.63019 72.9317 6.82294 72.9317 7.01569C72.9323 7.22025 72.9329 7.42481 72.9336 7.62936C72.9353 8.19222 72.9361 8.75507 72.9368 9.31793C72.9376 9.92474 72.9393 10.5316 72.9408 11.1384C72.9443 12.6044 72.9464 14.0704 72.9482 15.5364C72.9487 15.9505 72.9493 16.3647 72.9499 16.7789C72.9535 19.3515 72.9566 21.9241 72.9584 24.4967C72.9588 25.0926 72.9592 25.6885 72.9596 26.2844C72.9597 26.4325 72.9598 26.5806 72.96 26.7332C72.9618 29.1311 72.9665 31.5291 72.9724 33.927C72.9784 36.3898 72.9818 38.8525 72.9825 41.3152C72.983 42.6976 72.9847 44.08 72.9894 45.4624C72.9934 46.64 72.9949 47.8176 72.9933 48.9952C72.9926 49.5956 72.993 50.1959 72.9965 50.7963C72.9997 51.3471 72.9996 51.8977 72.9969 52.4485C72.9965 52.6466 72.9973 52.8448 72.9995 53.043C73.0207 55.1373 72.4118 56.714 70.9781 58.2295C69.9369 59.2127 68.5534 59.8695 67.121 59.8473C66.9556 59.8452 66.7901 59.8431 66.6197 59.841C66.4386 59.838 66.2576 59.835 66.0711 59.8319C65.7778 59.828 65.4844 59.8243 65.191 59.8207C64.9829 59.8181 64.7748 59.8155 64.5667 59.8127C63.2285 59.7955 61.8901 59.7902 60.5518 59.7846C59.2498 59.7791 57.9482 59.7698 56.6464 59.748C55.6114 59.7306 54.5766 59.722 53.5414 59.7233C52.9943 59.7237 52.4479 59.72 51.901 59.7057C49.453 59.5484 49.453 59.5484 47.323 60.5067C46.8758 60.9985 46.5244 61.5246 46.2009 62.1041C45.9438 62.5498 45.6307 62.9343 45.3091 63.3355C45.1414 63.5561 45.1414 63.5561 44.9702 63.7812C44.5548 64.3232 44.1232 64.8517 43.6913 65.3805C42.9107 66.3365 42.1439 67.3021 41.3844 68.2748C41.1911 68.5222 40.9974 68.7692 40.8034 69.016C40.7387 69.0985 40.6739 69.1809 40.6072 69.2659C40.4774 69.4309 40.3475 69.5958 40.2175 69.7607C39.8773 70.1924 39.5404 70.6262 39.2078 71.0639C39.1385 71.1544 39.0691 71.2449 38.9976 71.3381C38.8653 71.5107 38.7339 71.6841 38.6037 71.8583C38.1259 72.4787 37.7293 72.8733 36.9406 72.9911C36.7981 72.9913 36.6557 72.9915 36.5089 72.9917C36.3668 72.9944 36.2247 72.9972 36.0783 73C35.1368 72.8461 34.6151 72.2027 34.0733 71.4712C33.9372 71.2927 33.8009 71.1143 33.6644 70.9361C33.5936 70.8432 33.5228 70.7503 33.4499 70.6546C33.0746 70.1692 32.6845 69.6961 32.2954 69.2217C31.623 68.3984 30.9705 67.5635 30.3259 66.7181C29.9082 66.175 29.4754 65.6445 29.042 65.1138C28.4579 64.3984 27.8781 63.6803 27.3086 62.9531C27.2529 62.8857 27.1971 62.8183 27.1397 62.7489C26.8012 62.332 26.5134 61.9374 26.2835 61.4509C25.9565 60.8257 25.5988 60.3414 24.9797 59.9834C23.6554 59.6335 22.2212 59.7426 20.8612 59.7761C20.3132 59.7873 19.7651 59.7865 19.217 59.7868C18.1789 59.7892 17.1412 59.801 16.1033 59.8168C14.2474 59.8448 12.3914 59.8574 10.5353 59.8653C9.88543 59.8685 9.23582 59.876 8.58606 59.8873C8.17978 59.8938 7.77351 59.8973 7.3672 59.9003C7.09288 59.9032 6.8186 59.9098 6.54435 59.9165C4.58935 59.9247 3.10458 59.2371 1.70131 57.9089C0.703542 56.8517 0.0738673 55.468 0.0706669 54.0194C0.0699452 53.8459 0.0692235 53.6725 0.0684799 53.4938C0.0683943 53.3011 0.068323 53.1083 0.0682651 52.9156C0.0676939 52.711 0.0670628 52.5064 0.0663765 52.3019C0.0646753 51.739 0.0638713 51.1762 0.0632215 50.6133C0.0623741 50.0065 0.0607231 49.3997 0.059198 48.7929C0.0557105 47.3269 0.0536297 45.8609 0.0517938 44.3949C0.0512658 43.9807 0.0507007 43.5666 0.0501222 43.1524C0.0465325 40.5798 0.0433966 38.0072 0.0416275 35.4346C0.0412109 34.8387 0.0407894 34.2428 0.0403607 33.6469C0.0402546 33.4988 0.0401488 33.3507 0.0400395 33.1981C0.0382407 30.8001 0.0335163 28.4022 0.0275885 26.0042C0.0215506 23.5415 0.0182029 21.0788 0.0174602 18.6161C0.0169752 17.2337 0.0153092 15.8513 0.0106187 14.4689C0.00662957 13.2913 0.00507474 12.1137 0.00666406 10.9361C0.00740005 10.3357 0.00700229 9.73531 0.00346899 9.13491C0.00025518 8.58417 0.000386506 8.03354 0.0030713 7.4828C0.00346748 7.28461 0.00268509 7.08641 0.000538139 6.88823C-0.0207444 4.79397 0.58815 3.21728 2.02187 1.70173C3.16004 0.626962 4.57201 0.0679907 6.11467 0.0706504ZM5.09473 4.98937C4.44236 5.75378 4.33933 6.32683 4.33864 7.30997C4.33818 7.47431 4.33772 7.63864 4.33725 7.80796C4.33747 7.98788 4.33769 8.1678 4.33791 8.35317C4.33765 8.54672 4.33732 8.74027 4.33694 8.93382C4.33607 9.46557 4.33609 9.99731 4.33626 10.529C4.33628 11.1026 4.3355 11.6761 4.33482 12.2496C4.33364 13.3732 4.33325 14.4968 4.33317 15.6204C4.33311 16.5336 4.33281 17.4468 4.33236 18.36C4.33111 20.9487 4.33045 23.5374 4.33056 26.1261C4.33057 26.2656 4.33057 26.4052 4.33058 26.549C4.33058 26.6887 4.33059 26.8285 4.3306 26.9724C4.33065 29.2376 4.32929 31.5027 4.32729 33.7678C4.32524 36.0933 4.32426 38.4187 4.32438 40.7441C4.32443 42.0498 4.32404 43.3555 4.32251 44.6612C4.32122 45.7729 4.32091 46.8845 4.32187 47.9961C4.32234 48.5632 4.32234 49.1304 4.32111 49.6975C4.31999 50.2169 4.32019 50.7362 4.32143 51.2555C4.32176 51.5321 4.32068 51.8087 4.31955 52.0852C4.30223 53.5703 4.30223 53.5703 4.98806 54.8352C5.76563 55.4991 6.34577 55.5915 7.3457 55.589C7.60319 55.5889 7.60319 55.5889 7.86588 55.5888C8.14663 55.5877 8.14663 55.5877 8.43305 55.5866C8.63308 55.5863 8.83312 55.5861 9.03315 55.586C9.46332 55.5857 9.89348 55.585 10.3236 55.5841C11.0045 55.5829 11.6853 55.5837 12.3662 55.585C12.4812 55.5852 12.5963 55.5854 12.7148 55.5856C12.95 55.5861 13.1852 55.5865 13.4204 55.587C15.0049 55.59 16.5894 55.5919 18.1739 55.5874C19.2435 55.5843 20.3131 55.5847 21.3828 55.5893C21.9484 55.5915 22.5138 55.592 23.0794 55.5882C23.6117 55.5846 24.1437 55.5857 24.676 55.5903C24.9632 55.5915 25.2503 55.5879 25.5375 55.5841C26.3938 55.5958 26.9743 55.6218 27.6404 56.1928C27.8021 56.3604 27.9588 56.533 28.1087 56.7113C28.1788 56.792 28.249 56.8728 28.3212 56.956C28.5052 57.1739 28.6762 57.3983 28.8465 57.6271C28.98 57.8018 29.1137 57.9763 29.2476 58.1506C29.3166 58.2408 29.3855 58.331 29.4566 58.4239C29.831 58.9065 30.2194 59.3776 30.6065 59.85C31.279 60.6732 31.9315 61.5082 32.576 62.3535C33.069 62.9945 33.5827 63.6185 34.0942 64.2446C34.8617 65.1852 35.6115 66.1392 36.3578 67.0966C36.9645 66.8769 37.2728 66.4205 37.6467 65.9229C37.7865 65.741 37.9263 65.5591 38.0662 65.3772C38.137 65.2843 38.2078 65.1913 38.2808 65.0956C38.6022 64.675 38.9286 64.2585 39.2556 63.8423C39.3196 63.7607 39.3835 63.6791 39.4493 63.595C39.9461 62.9628 40.4533 62.3395 40.9623 61.7172C41.6051 60.9307 42.2318 60.1338 42.8468 59.3254C42.923 59.2255 42.9991 59.1255 43.0776 59.0226C43.3773 58.629 43.6768 58.2354 43.9751 57.8408C44.1845 57.5642 44.3955 57.2888 44.6069 57.0136C44.6684 56.9315 44.7299 56.8494 44.7933 56.7649C45.2544 56.1684 45.6677 55.7636 46.4337 55.6615C46.5828 55.6612 46.7319 55.6609 46.8855 55.6606C47.0573 55.6593 47.2292 55.6579 47.4063 55.6565C47.5937 55.6571 47.7811 55.6578 47.9741 55.6585C48.1744 55.6576 48.3747 55.6566 48.5749 55.6554C49.0056 55.6533 49.4362 55.6525 49.8668 55.6527C50.5482 55.653 51.2296 55.6502 51.911 55.647C53.2349 55.6411 54.5588 55.6385 55.8827 55.6361C57.5668 55.6329 59.2509 55.6282 60.935 55.6209C61.6119 55.618 62.2887 55.6167 62.9656 55.6165C63.3874 55.6161 63.8091 55.6145 64.2309 55.6127C64.5186 55.6118 64.8063 55.6123 65.094 55.6129C66.6116 55.6348 66.6116 55.6348 67.9053 54.9419C68.5576 54.1775 68.6607 53.6044 68.6614 52.6213C68.6618 52.4569 68.6623 52.2926 68.6628 52.1233C68.6625 51.9434 68.6623 51.7635 68.6621 51.5781C68.6623 51.3845 68.6627 51.191 68.6631 50.9974C68.6639 50.4657 68.6639 49.9339 68.6637 49.4022C68.6637 48.8287 68.6645 48.2551 68.6652 47.6816C68.6664 46.558 68.6667 45.4345 68.6668 44.3109C68.6669 43.3977 68.6672 42.4845 68.6676 41.5713C68.6689 38.9826 68.6695 36.3939 68.6694 33.8052C68.6694 33.6656 68.6694 33.5261 68.6694 33.3823C68.6694 33.2425 68.6694 33.1028 68.6694 32.9588C68.6693 30.6937 68.6707 28.4285 68.6727 26.1634C68.6748 23.838 68.6757 21.5126 68.6756 19.1871C68.6756 17.8814 68.676 16.5757 68.6775 15.27C68.6788 14.1584 68.6791 13.0468 68.6781 11.9352C68.6777 11.368 68.6777 10.8009 68.6789 10.2337C68.68 9.7144 68.6798 9.19508 68.6786 8.67575C68.6782 8.39917 68.6793 8.12259 68.6805 7.84602C68.6978 6.36099 68.6978 6.36099 68.0119 5.09606C67.1802 4.38585 66.5576 4.34036 65.4876 4.33977C65.3857 4.33952 65.2839 4.33927 65.1789 4.33901C64.8367 4.33835 64.4945 4.3387 64.1523 4.33905C63.9048 4.33878 63.6573 4.33845 63.4099 4.33807C62.7291 4.3372 62.0483 4.33722 61.3675 4.33739C60.6336 4.33741 59.8997 4.33663 59.1657 4.33596C57.7276 4.33477 56.2895 4.33438 54.8513 4.3343C53.6826 4.33424 52.5139 4.33394 51.3452 4.33349C48.0331 4.33224 44.721 4.33158 41.4089 4.33169C41.141 4.3317 41.141 4.3317 40.8677 4.33171C40.6889 4.33171 40.51 4.33172 40.3258 4.33172C37.4266 4.33178 34.5275 4.33042 31.6284 4.32842C28.653 4.32637 25.6776 4.32539 22.7023 4.32551C21.0312 4.32556 19.3602 4.32517 17.6892 4.32364C16.2666 4.32234 14.844 4.32203 13.4215 4.323C12.6955 4.32346 11.9695 4.32347 11.2435 4.32224C10.579 4.32112 9.91453 4.32132 9.25007 4.32256C9.00955 4.32278 8.76904 4.32252 8.52852 4.32173C8.20173 4.32073 7.87498 4.32148 7.54818 4.32266C7.27584 4.32261 7.27584 4.32261 6.998 4.32257C6.24001 4.37557 5.67434 4.4869 5.09473 4.98937Z" fill="#00CEFF"/>
<path d="M11.6573 11.0215C11.7765 11.0208 11.8956 11.0201 12.0184 11.0193C12.4123 11.0173 12.8061 11.0163 13.1999 11.0155C13.4742 11.0147 13.7484 11.0139 14.0226 11.013C14.5976 11.0115 15.1725 11.0107 15.7475 11.0102C16.483 11.0094 17.2185 11.006 17.954 11.002C18.5206 10.9993 19.0871 10.9986 19.6536 10.9984C19.9247 10.9979 20.1958 10.9968 20.4669 10.9949C20.8468 10.9925 21.2266 10.9928 21.6065 10.9937C21.7177 10.9924 21.8289 10.9911 21.9435 10.9897C22.8772 10.9968 23.537 11.1993 24.2508 11.8357C24.7767 12.4391 24.7206 12.9523 24.7272 13.7219C24.7296 13.917 24.7296 13.917 24.7321 14.116C24.7478 15.4773 24.7546 16.8388 24.7607 18.2003C24.7638 18.8461 24.7698 19.4918 24.7782 20.1376C24.7883 20.9174 24.7935 21.6971 24.7952 22.477C24.7967 22.7738 24.7999 23.0707 24.8049 23.3676C24.8114 23.7841 24.8117 24.2002 24.8105 24.6168C24.8156 24.7996 24.8156 24.7996 24.8207 24.986C24.8089 25.8489 24.5432 26.2815 23.9551 26.9054C23.3911 27.3799 22.7181 27.2845 22.0216 27.2854C21.8937 27.2861 21.7658 27.2869 21.634 27.2876C21.2103 27.2897 20.7866 27.2906 20.3629 27.2914C20.0687 27.2922 19.7744 27.2931 19.4802 27.2939C18.863 27.2954 18.2459 27.2962 17.6287 27.2967C16.8378 27.2975 16.0469 27.3009 15.256 27.3049C14.6482 27.3076 14.0403 27.3083 13.4324 27.3086C13.1409 27.309 12.8493 27.3101 12.5577 27.312C12.1498 27.3144 11.742 27.3142 11.3341 27.3132C11.2137 27.3145 11.0932 27.3158 10.9691 27.3172C10.0483 27.3107 9.62049 27.1042 8.94045 26.465C8.50031 25.9032 8.52455 25.3484 8.53396 24.6581C8.53294 24.5276 8.53192 24.397 8.53087 24.2625C8.52848 23.8324 8.53123 23.4025 8.53427 22.9724C8.53415 22.6726 8.5338 22.3729 8.53323 22.0731C8.53282 21.4455 8.53491 20.818 8.53882 20.1904C8.54367 19.3867 8.54281 18.5831 8.54015 17.7794C8.53864 17.1606 8.53992 16.5418 8.54205 15.9231C8.54279 15.6268 8.54272 15.3304 8.54183 15.0341C8.54105 14.6197 8.54396 14.2055 8.54785 13.791C8.54692 13.6691 8.54599 13.5471 8.54504 13.4214C8.55719 12.6578 8.68495 12.219 9.19262 11.6135C9.98313 11.0402 10.7061 11.0228 11.6573 11.0215ZM12.8905 15.4546C12.8905 17.8958 12.8905 20.3371 12.8905 22.8523C15.378 22.8523 17.8656 22.8523 20.4285 22.8523C20.4285 20.4111 20.4285 17.9698 20.4285 15.4546C17.9409 15.4546 15.4534 15.4546 12.8905 15.4546Z" fill="#00CEFF"/>
<path d="M31.6492 43.0329C31.8482 43.0321 31.8482 43.0321 32.0511 43.0313C32.4984 43.0298 32.9456 43.0292 33.3928 43.0287C33.7124 43.0278 34.0319 43.0268 34.3514 43.0258C35.2215 43.0233 36.0917 43.0219 36.9618 43.0207C37.505 43.0199 38.0483 43.0191 38.5915 43.0182C40.0954 43.0158 41.5993 43.0137 43.1031 43.0127C43.4935 43.0124 43.8838 43.0121 44.2741 43.0119C44.4197 43.0117 44.4197 43.0118 44.5681 43.0116C46.1398 43.0105 47.7114 43.0069 49.2831 43.0022C50.8964 42.9975 52.5097 42.995 54.123 42.9945C55.0289 42.9942 55.9348 42.9929 56.8407 42.9893C57.6929 42.986 58.545 42.9854 59.3972 42.9869C59.7102 42.9869 60.0231 42.986 60.336 42.9841C60.763 42.9816 61.1898 42.9826 61.6168 42.9845C61.7409 42.9829 61.8649 42.9813 61.9927 42.9797C62.8955 42.9893 63.3765 43.2514 64.0652 43.8452C64.49 44.3596 64.4238 45.0222 64.4146 45.6535C64.359 46.2166 64.2013 46.4911 63.8074 46.895C62.9983 47.4343 62.2811 47.5464 61.3255 47.5363C61.1947 47.5372 61.0638 47.5381 60.929 47.539C60.4929 47.5412 60.057 47.5395 59.6209 47.5377C59.3073 47.5384 58.9937 47.5395 58.6801 47.5407C57.83 47.5433 56.9799 47.5423 56.1298 47.5405C55.2395 47.539 54.3492 47.5404 53.4589 47.5413C51.8682 47.5424 50.2775 47.5406 48.6868 47.5377C47.246 47.5352 45.8051 47.5356 44.3643 47.5382C42.6891 47.5413 41.014 47.5424 39.3388 47.5407C38.4527 47.5398 37.5667 47.5397 36.6807 47.5416C35.8476 47.5432 35.0146 47.5421 34.1815 47.5388C33.8761 47.5381 33.5706 47.5383 33.2651 47.5395C32.8476 47.5411 32.4303 47.5391 32.0128 47.5363C31.8923 47.5376 31.7719 47.5388 31.6478 47.5401C30.6466 47.527 29.8815 47.2545 29.1753 46.5304C28.8731 45.8376 28.8686 45.2214 28.962 44.4765C29.4684 43.2236 30.4345 43.0327 31.6492 43.0329Z" fill="#00CEFF"/>
<path d="M31.6673 21.5523C31.8002 21.5518 31.933 21.5514 32.0699 21.551C32.517 21.5497 32.9641 21.5495 33.4112 21.5493C33.731 21.5487 34.0508 21.5479 34.3706 21.5472C35.2407 21.5453 36.1108 21.5444 36.9809 21.5438C37.5241 21.5433 38.0674 21.5428 38.6106 21.5421C40.1145 21.5404 41.6183 21.5389 43.1222 21.5384C43.2666 21.5384 43.2666 21.5384 43.4138 21.5384C43.5103 21.5383 43.6068 21.5383 43.7062 21.5383C43.9017 21.5382 44.0972 21.5381 44.2927 21.5381C44.3897 21.538 44.4867 21.538 44.5866 21.538C46.1583 21.5374 47.73 21.5349 49.3018 21.5316C50.9152 21.5282 52.5287 21.5265 54.1421 21.5263C55.0481 21.5262 55.9541 21.5253 56.8601 21.5228C57.7121 21.5204 58.564 21.5201 59.4159 21.5214C59.7289 21.5215 60.0419 21.5209 60.3549 21.5195C60.7816 21.5177 61.2082 21.5185 61.6349 21.52C61.7593 21.5188 61.8836 21.5177 62.0118 21.5165C62.9235 21.5239 63.3704 21.7435 64.0652 22.3458C64.4984 22.893 64.4663 23.4817 64.4363 24.1547C64.33 24.8723 64.0303 25.2476 63.4607 25.6712C62.6968 26.0254 61.9386 26.003 61.113 26.0015C60.9848 26.0018 60.8565 26.0021 60.7244 26.0024C60.2945 26.0033 59.8647 26.0032 59.4348 26.0031C59.1267 26.0035 58.8185 26.004 58.5104 26.0045C57.6732 26.0058 56.836 26.0061 55.9988 26.0062C55.3 26.0064 54.6013 26.0069 53.9025 26.0074C52.254 26.0086 50.6055 26.0089 48.957 26.0088C47.2561 26.0087 45.5553 26.0102 43.8544 26.0125C42.3943 26.0143 40.9343 26.0151 39.4742 26.015C38.602 26.015 37.7299 26.0154 36.8578 26.0169C36.0376 26.0182 35.2174 26.0183 34.3972 26.0172C34.0963 26.0171 33.7953 26.0174 33.4944 26.0183C33.0834 26.0194 32.6724 26.0187 32.2614 26.0176C32.1425 26.0183 32.0236 26.0191 31.9011 26.0198C31.017 26.0146 30.2504 25.9517 29.5576 25.3511C28.9539 24.6437 28.8765 24.2044 28.8876 23.2928C29.0076 22.5835 29.4008 22.1498 29.9576 21.7145C30.5269 21.5247 31.0737 21.5517 31.6673 21.5523Z" fill="#00CEFF"/>
<path d="M23.273 34.5182C23.8426 34.8031 24.22 35.1129 24.553 35.6564C24.7825 36.3449 24.8102 36.9478 24.5306 37.6131C24.233 38.1375 23.8694 38.532 23.4436 38.9508C23.3196 39.0752 23.3196 39.0752 23.1932 39.2021C22.9216 39.4742 22.6484 39.7448 22.3752 40.0154C22.1854 40.2048 21.9957 40.3943 21.8061 40.5838C21.4094 40.9801 21.0119 41.3756 20.6139 41.7705C20.1036 42.277 19.5945 42.7846 19.0859 43.2927C18.6945 43.6836 18.3028 44.0741 17.9109 44.4644C17.723 44.6515 17.5352 44.8387 17.3475 45.0259C17.0854 45.2871 16.8228 45.5478 16.56 45.8084C16.4824 45.8858 16.4049 45.9633 16.3249 46.0431C15.6818 46.6791 15.2524 46.9638 14.36 47.0403C12.7937 47.0271 11.4427 45.1884 10.4282 44.1744C10.3013 44.0492 10.1743 43.9239 10.0435 43.7949C9.92165 43.6733 9.79982 43.5517 9.6743 43.4264C9.56461 43.3173 9.45492 43.2081 9.3419 43.0957C8.663 42.3361 8.53573 41.7715 8.5665 40.7706C8.65213 40.1427 8.83871 39.7532 9.33485 39.3552C9.9597 38.9974 10.5508 38.8722 11.2638 38.9818C12.0172 39.1973 12.492 39.6618 13.0327 40.2088C13.1501 40.3243 13.2674 40.4399 13.3883 40.5589C13.6989 40.8667 14.0068 41.1768 14.3128 41.4892C15.1445 40.7999 15.9029 40.055 16.6612 39.2863C16.921 39.0246 17.181 38.7628 17.4409 38.5011C17.8476 38.0909 18.254 37.6803 18.66 37.2694C19.0537 36.871 19.4486 36.4738 19.8435 36.0765C19.965 35.953 20.0864 35.8296 20.2116 35.7024C20.3251 35.5884 20.4386 35.4744 20.5555 35.357C20.6549 35.2565 20.7542 35.1561 20.8565 35.0527C21.5837 34.4107 22.3387 34.4072 23.273 34.5182Z" fill="#00CEFF"/>
<path d="M32.1921 12.3959C32.3405 12.3951 32.4889 12.3943 32.6418 12.3935C33.1296 12.3918 33.6172 12.3941 34.1049 12.3967C34.4453 12.3966 34.7857 12.3964 35.1261 12.396C35.8382 12.3958 36.5504 12.3976 37.2626 12.4009C38.1744 12.4049 39.0862 12.4045 39.9981 12.4027C40.7005 12.4017 41.4029 12.4028 42.1054 12.4046C42.4416 12.4052 42.7778 12.4053 43.114 12.4047C43.5841 12.4043 44.0541 12.4067 44.5241 12.4098C44.6624 12.4091 44.8007 12.4085 44.9431 12.4078C45.8312 12.4175 46.5732 12.5052 47.2725 13.1074C47.8057 13.8137 47.9506 14.2848 47.8781 15.1703C47.6405 15.9374 47.3417 16.3583 46.6234 16.7553C46.0188 16.9936 45.3935 16.9562 44.7519 16.9511C44.5977 16.9521 44.4436 16.9531 44.2848 16.9541C43.7771 16.9566 43.2695 16.9549 42.7618 16.953C42.4082 16.9534 42.0545 16.954 41.7008 16.9547C40.9604 16.9555 40.22 16.9543 39.4796 16.9516C38.7196 16.949 37.9597 16.9489 37.1997 16.9516C36.281 16.9549 35.3623 16.9554 34.4436 16.9536C34.0938 16.9532 33.7439 16.9537 33.3941 16.955C32.9052 16.9564 32.4165 16.9542 31.9276 16.9511C31.7111 16.9528 31.7111 16.9528 31.4903 16.9546C30.6687 16.9447 30.1782 16.8661 29.5309 16.3084C29.0432 15.782 28.9194 15.3724 28.8909 14.6723C28.9214 13.9705 29.0264 13.5535 29.5309 13.0363C30.3873 12.4498 31.1774 12.3858 32.1921 12.3959Z" fill="#00CEFF"/>
<path d="M31.4441 33.929C31.6331 33.9277 31.6331 33.9277 31.8259 33.9265C31.963 33.9263 32.1002 33.9262 32.2415 33.926C32.3868 33.9253 32.5321 33.9246 32.6818 33.9239C33.1626 33.9218 33.6435 33.9208 34.1244 33.92C34.4589 33.9192 34.7934 33.9184 35.1278 33.9176C35.8294 33.9161 36.531 33.9153 37.2326 33.9148C38.1304 33.914 39.0282 33.9106 39.926 33.9065C40.6171 33.9039 41.3082 33.9031 41.9993 33.9029C42.3302 33.9025 42.6611 33.9013 42.992 33.8995C43.4557 33.897 43.9192 33.8973 44.3829 33.8982C44.5189 33.8969 44.6549 33.8956 44.795 33.8943C45.8263 33.9007 46.6401 34.0401 47.4425 34.7403C47.8631 35.317 47.932 35.9532 47.8781 36.652C47.6805 37.3647 47.3629 37.8296 46.7342 38.2366C46.153 38.4924 45.5192 38.4364 44.895 38.4305C44.7392 38.4313 44.5835 38.432 44.423 38.4328C43.9093 38.4346 43.3956 38.4323 42.8819 38.4297C42.5245 38.4297 42.1671 38.4299 41.8097 38.4303C41.0611 38.4305 40.3126 38.4288 39.564 38.4255C38.6996 38.4217 37.8352 38.4215 36.9707 38.4231C36.1376 38.4247 35.3046 38.4238 34.4715 38.4218C34.1176 38.4211 33.7637 38.4211 33.4098 38.4216C32.9155 38.4221 32.4212 38.4197 31.9268 38.4166C31.7804 38.4172 31.6341 38.4179 31.4832 38.4185C30.4962 38.4082 30.0259 38.2381 29.2732 37.5856C28.8399 37.0384 28.8721 36.4497 28.9021 35.7767C28.9832 35.2285 29.1506 34.919 29.531 34.518C30.1493 34.0696 30.6903 33.9319 31.4441 33.929Z" fill="#00CEFF"/>
<path d="M6.11467 0.0706504C6.22091 0.0702732 6.32715 0.0698959 6.43661 0.0695072C6.7946 0.0684127 7.15259 0.0683332 7.51059 0.0682482C7.76906 0.0676771 8.02754 0.0670457 8.28601 0.066359C8.9979 0.0646558 9.70979 0.0638529 10.4217 0.0632034C11.1889 0.0623564 11.9561 0.0607046 12.7233 0.0591787C14.577 0.0556889 16.4308 0.0536087 18.2845 0.0517724C18.8081 0.0512444 19.3316 0.0506791 19.8552 0.0501004C23.1062 0.04651 26.3573 0.0433725 29.6083 0.0416032C30.3614 0.0411864 31.1146 0.0407651 31.8678 0.0403363C32.055 0.0402302 32.2421 0.040124 32.435 0.0400147C35.4669 0.0382148 38.4988 0.0334888 41.5308 0.0275607C44.6434 0.0215247 47.756 0.0181729 50.8687 0.0174296C52.6163 0.016944 54.364 0.0152732 56.1117 0.0105863C57.6003 0.00660089 59.0888 0.0050389 60.5774 0.00663073C61.3366 0.00736811 62.0958 0.00696104 62.8551 0.00343469C63.5509 0.000229793 64.2467 0.000343989 64.9426 0.0030369C65.1935 0.00343453 65.4445 0.0026427 65.6955 0.000502756C67.9396 -0.0174539 69.6286 0.441599 71.2987 2.02238C72.2965 3.07957 72.9261 4.46327 72.9293 5.91187C72.93 6.08531 72.9308 6.25875 72.9315 6.43745C72.9316 6.63019 72.9317 6.82294 72.9317 7.01569C72.9323 7.22025 72.9329 7.42481 72.9336 7.62936C72.9353 8.19222 72.9361 8.75507 72.9368 9.31793C72.9376 9.92474 72.9393 10.5316 72.9408 11.1384C72.9443 12.6044 72.9464 14.0704 72.9482 15.5364C72.9487 15.9505 72.9493 16.3647 72.9499 16.7789C72.9535 19.3515 72.9566 21.9241 72.9584 24.4967C72.9588 25.0926 72.9592 25.6885 72.9596 26.2844C72.9597 26.4325 72.9598 26.5806 72.96 26.7332C72.9618 29.1311 72.9665 31.5291 72.9724 33.927C72.9784 36.3898 72.9818 38.8525 72.9825 41.3152C72.983 42.6976 72.9847 44.08 72.9894 45.4624C72.9934 46.64 72.9949 47.8176 72.9933 48.9952C72.9926 49.5956 72.993 50.1959 72.9965 50.7963C72.9997 51.3471 72.9996 51.8977 72.9969 52.4485C72.9965 52.6466 72.9973 52.8448 72.9995 53.043C73.0207 55.1373 72.4118 56.714 70.9781 58.2295C69.9369 59.2127 68.5534 59.8695 67.121 59.8473C66.9556 59.8452 66.7901 59.8431 66.6197 59.841C66.4386 59.838 66.2576 59.835 66.0711 59.8319C65.7778 59.828 65.4844 59.8243 65.191 59.8207C64.9829 59.8181 64.7748 59.8155 64.5667 59.8127C63.2285 59.7955 61.8901 59.7902 60.5518 59.7846C59.2498 59.7791 57.9482 59.7698 56.6464 59.748C55.6114 59.7306 54.5766 59.722 53.5414 59.7233C52.9943 59.7237 52.4479 59.72 51.901 59.7057C49.453 59.5484 49.453 59.5484 47.323 60.5067C46.8758 60.9985 46.5244 61.5246 46.2009 62.1041C45.9438 62.5498 45.6307 62.9343 45.3091 63.3355C45.1414 63.5561 45.1414 63.5561 44.9702 63.7812C44.5548 64.3232 44.1232 64.8517 43.6913 65.3805C42.9107 66.3365 42.1439 67.3021 41.3844 68.2748C41.1911 68.5222 40.9974 68.7692 40.8034 69.016C40.7387 69.0985 40.6739 69.1809 40.6072 69.2659C40.4774 69.4309 40.3475 69.5958 40.2175 69.7607C39.8773 70.1924 39.5404 70.6262 39.2078 71.0639C39.1385 71.1544 39.0691 71.2449 38.9976 71.3381C38.8653 71.5107 38.7339 71.6841 38.6037 71.8583C38.1259 72.4787 37.7293 72.8733 36.9406 72.9911C36.7981 72.9913 36.6557 72.9915 36.5089 72.9917C36.3668 72.9944 36.2247 72.9972 36.0783 73C35.1368 72.8461 34.6151 72.2027 34.0733 71.4712C33.9372 71.2927 33.8009 71.1143 33.6644 70.9361C33.5936 70.8432 33.5228 70.7503 33.4499 70.6546C33.0746 70.1692 32.6845 69.6961 32.2954 69.2217C31.623 68.3984 30.9705 67.5635 30.3259 66.7181C29.9082 66.175 29.4754 65.6445 29.042 65.1138C28.4579 64.3984 27.8781 63.6803 27.3086 62.9531C27.2529 62.8857 27.1971 62.8183 27.1397 62.7489C26.8012 62.332 26.5134 61.9374 26.2835 61.4509C25.9565 60.8257 25.5988 60.3414 24.9797 59.9834C23.6554 59.6335 22.2212 59.7426 20.8612 59.7761C20.3132 59.7873 19.7651 59.7865 19.217 59.7868C18.1789 59.7892 17.1412 59.801 16.1033 59.8168C14.2474 59.8448 12.3914 59.8574 10.5353 59.8653C9.88543 59.8685 9.23582 59.876 8.58606 59.8873C8.17978 59.8938 7.77351 59.8973 7.3672 59.9003C7.09288 59.9032 6.8186 59.9098 6.54435 59.9165C4.58935 59.9247 3.10458 59.2371 1.70131 57.9089C0.703542 56.8517 0.0738673 55.468 0.0706669 54.0194C0.0699452 53.8459 0.0692235 53.6725 0.0684799 53.4938C0.0683943 53.3011 0.068323 53.1083 0.0682651 52.9156C0.0676939 52.711 0.0670628 52.5064 0.0663765 52.3019C0.0646753 51.739 0.0638713 51.1762 0.0632215 50.6133C0.0623741 50.0065 0.0607231 49.3997 0.059198 48.7929C0.0557105 47.3269 0.0536297 45.8609 0.0517938 44.3949C0.0512658 43.9807 0.0507007 43.5666 0.0501222 43.1524C0.0465325 40.5798 0.0433966 38.0072 0.0416275 35.4346C0.0412109 34.8387 0.0407894 34.2428 0.0403607 33.6469C0.0402546 33.4988 0.0401488 33.3507 0.0400395 33.1981C0.0382407 30.8001 0.0335163 28.4022 0.0275885 26.0042C0.0215506 23.5415 0.0182029 21.0788 0.0174602 18.6161C0.0169752 17.2337 0.0153092 15.8513 0.0106187 14.4689C0.00662957 13.2913 0.00507474 12.1137 0.00666406 10.9361C0.00740005 10.3357 0.00700229 9.73531 0.00346899 9.13491C0.00025518 8.58417 0.000386506 8.03354 0.0030713 7.4828C0.00346748 7.28461 0.00268509 7.08641 0.000538139 6.88823C-0.0207444 4.79397 0.58815 3.21728 2.02187 1.70173C3.16004 0.626962 4.57201 0.0679907 6.11467 0.0706504ZM5.09473 4.98937C4.44236 5.75378 4.33933 6.32683 4.33864 7.30997C4.33818 7.47431 4.33772 7.63864 4.33725 7.80796C4.33747 7.98788 4.33769 8.1678 4.33791 8.35317C4.33765 8.54672 4.33732 8.74027 4.33694 8.93382C4.33607 9.46557 4.33609 9.99731 4.33626 10.529C4.33628 11.1026 4.3355 11.6761 4.33482 12.2496C4.33364 13.3732 4.33325 14.4968 4.33317 15.6204C4.33311 16.5336 4.33281 17.4468 4.33236 18.36C4.33111 20.9487 4.33045 23.5374 4.33056 26.1261C4.33057 26.2656 4.33057 26.4052 4.33058 26.549C4.33058 26.6887 4.33059 26.8285 4.3306 26.9724C4.33065 29.2376 4.32929 31.5027 4.32729 33.7678C4.32524 36.0933 4.32426 38.4187 4.32438 40.7441C4.32443 42.0498 4.32404 43.3555 4.32251 44.6612C4.32122 45.7729 4.32091 46.8845 4.32187 47.9961C4.32234 48.5632 4.32234 49.1304 4.32111 49.6975C4.31999 50.2169 4.32019 50.7362 4.32143 51.2555C4.32176 51.5321 4.32068 51.8087 4.31955 52.0852C4.30223 53.5703 4.30223 53.5703 4.98806 54.8352C5.76563 55.4991 6.34577 55.5915 7.3457 55.589C7.60319 55.5889 7.60319 55.5889 7.86588 55.5888C8.14663 55.5877 8.14663 55.5877 8.43305 55.5866C8.63308 55.5863 8.83312 55.5861 9.03315 55.586C9.46332 55.5857 9.89348 55.585 10.3236 55.5841C11.0045 55.5829 11.6853 55.5837 12.3662 55.585C12.4812 55.5852 12.5963 55.5854 12.7148 55.5856C12.95 55.5861 13.1852 55.5865 13.4204 55.587C15.0049 55.59 16.5894 55.5919 18.1739 55.5874C19.2435 55.5843 20.3131 55.5847 21.3828 55.5893C21.9484 55.5915 22.5138 55.592 23.0794 55.5882C23.6117 55.5846 24.1437 55.5857 24.676 55.5903C24.9632 55.5915 25.2503 55.5879 25.5375 55.5841C26.3938 55.5958 26.9743 55.6218 27.6404 56.1928C27.8021 56.3604 27.9588 56.533 28.1087 56.7113C28.1788 56.792 28.249 56.8728 28.3212 56.956C28.5052 57.1739 28.6762 57.3983 28.8465 57.6271C28.98 57.8018 29.1137 57.9763 29.2476 58.1506C29.3166 58.2408 29.3855 58.331 29.4566 58.4239C29.831 58.9065 30.2194 59.3776 30.6065 59.85C31.279 60.6732 31.9315 61.5082 32.576 62.3535C33.069 62.9945 33.5827 63.6185 34.0942 64.2446C34.8617 65.1852 35.6115 66.1392 36.3578 67.0966C36.9645 66.8769 37.2728 66.4205 37.6467 65.9229C37.7865 65.741 37.9263 65.5591 38.0662 65.3772C38.137 65.2843 38.2078 65.1913 38.2808 65.0956C38.6022 64.675 38.9286 64.2585 39.2556 63.8423C39.3196 63.7607 39.3835 63.6791 39.4493 63.595C39.9461 62.9628 40.4533 62.3395 40.9623 61.7172C41.6051 60.9307 42.2318 60.1338 42.8468 59.3254C42.923 59.2255 42.9991 59.1255 43.0776 59.0226C43.3773 58.629 43.6768 58.2354 43.9751 57.8408C44.1845 57.5642 44.3955 57.2888 44.6069 57.0136C44.6684 56.9315 44.7299 56.8494 44.7933 56.7649C45.2544 56.1684 45.6677 55.7636 46.4337 55.6615C46.5828 55.6612 46.7319 55.6609 46.8855 55.6606C47.0573 55.6593 47.2292 55.6579 47.4063 55.6565C47.5937 55.6571 47.7811 55.6578 47.9741 55.6585C48.1744 55.6576 48.3747 55.6566 48.5749 55.6554C49.0056 55.6533 49.4362 55.6525 49.8668 55.6527C50.5482 55.653 51.2296 55.6502 51.911 55.647C53.2349 55.6411 54.5588 55.6385 55.8827 55.6361C57.5668 55.6329 59.2509 55.6282 60.935 55.6209C61.6119 55.618 62.2887 55.6167 62.9656 55.6165C63.3874 55.6161 63.8091 55.6145 64.2309 55.6127C64.5186 55.6118 64.8063 55.6123 65.094 55.6129C66.6116 55.6348 66.6116 55.6348 67.9053 54.9419C68.5576 54.1775 68.6607 53.6044 68.6614 52.6213C68.6618 52.4569 68.6623 52.2926 68.6628 52.1233C68.6625 51.9434 68.6623 51.7635 68.6621 51.5781C68.6623 51.3845 68.6627 51.191 68.6631 50.9974C68.6639 50.4657 68.6639 49.9339 68.6637 49.4022C68.6637 48.8287 68.6645 48.2551 68.6652 47.6816C68.6664 46.558 68.6667 45.4345 68.6668 44.3109C68.6669 43.3977 68.6672 42.4845 68.6676 41.5713C68.6689 38.9826 68.6695 36.3939 68.6694 33.8052C68.6694 33.6656 68.6694 33.5261 68.6694 33.3823C68.6694 33.2425 68.6694 33.1028 68.6694 32.9588C68.6693 30.6937 68.6707 28.4285 68.6727 26.1634C68.6748 23.838 68.6757 21.5126 68.6756 19.1871C68.6756 17.8814 68.676 16.5757 68.6775 15.27C68.6788 14.1584 68.6791 13.0468 68.6781 11.9352C68.6777 11.368 68.6777 10.8009 68.6789 10.2337C68.68 9.7144 68.6798 9.19508 68.6786 8.67575C68.6782 8.39917 68.6793 8.12259 68.6805 7.84602C68.6978 6.36099 68.6978 6.36099 68.0119 5.09606C67.1802 4.38585 66.5576 4.34036 65.4876 4.33977C65.3857 4.33952 65.2839 4.33927 65.1789 4.33901C64.8367 4.33835 64.4945 4.3387 64.1523 4.33905C63.9048 4.33878 63.6573 4.33845 63.4099 4.33807C62.7291 4.3372 62.0483 4.33722 61.3675 4.33739C60.6336 4.33741 59.8997 4.33663 59.1657 4.33596C57.7276 4.33477 56.2895 4.33438 54.8513 4.3343C53.6826 4.33424 52.5139 4.33394 51.3452 4.33349C48.0331 4.33224 44.721 4.33158 41.4089 4.33169C41.141 4.3317 41.141 4.3317 40.8677 4.33171C40.6889 4.33171 40.51 4.33172 40.3258 4.33172C37.4266 4.33178 34.5275 4.33042 31.6284 4.32842C28.653 4.32637 25.6776 4.32539 22.7023 4.32551C21.0312 4.32556 19.3602 4.32517 17.6892 4.32364C16.2666 4.32234 14.844 4.32203 13.4215 4.323C12.6955 4.32346 11.9695 4.32347 11.2435 4.32224C10.579 4.32112 9.91453 4.32132 9.25007 4.32256C9.00955 4.32278 8.76904 4.32252 8.52852 4.32173C8.20173 4.32073 7.87498 4.32148 7.54818 4.32266C7.27584 4.32261 7.27584 4.32261 6.998 4.32257C6.24001 4.37557 5.67434 4.4869 5.09473 4.98937Z" stroke="#05313B" stroke-width="2" mask="url(#path-1-inside-1_5052_3534)"/>
<path d="M11.6573 11.0215C11.7765 11.0208 11.8956 11.0201 12.0184 11.0193C12.4123 11.0173 12.8061 11.0163 13.1999 11.0155C13.4742 11.0147 13.7484 11.0139 14.0226 11.013C14.5976 11.0115 15.1725 11.0107 15.7475 11.0102C16.483 11.0094 17.2185 11.006 17.954 11.002C18.5206 10.9993 19.0871 10.9986 19.6536 10.9984C19.9247 10.9979 20.1958 10.9968 20.4669 10.9949C20.8468 10.9925 21.2266 10.9928 21.6065 10.9937C21.7177 10.9924 21.8289 10.9911 21.9435 10.9897C22.8772 10.9968 23.537 11.1993 24.2508 11.8357C24.7767 12.4391 24.7206 12.9523 24.7272 13.7219C24.7296 13.917 24.7296 13.917 24.7321 14.116C24.7478 15.4773 24.7546 16.8388 24.7607 18.2003C24.7638 18.8461 24.7698 19.4918 24.7782 20.1376C24.7883 20.9174 24.7935 21.6971 24.7952 22.477C24.7967 22.7738 24.7999 23.0707 24.8049 23.3676C24.8114 23.7841 24.8117 24.2002 24.8105 24.6168C24.8156 24.7996 24.8156 24.7996 24.8207 24.986C24.8089 25.8489 24.5432 26.2815 23.9551 26.9054C23.3911 27.3799 22.7181 27.2845 22.0216 27.2854C21.8937 27.2861 21.7658 27.2869 21.634 27.2876C21.2103 27.2897 20.7866 27.2906 20.3629 27.2914C20.0687 27.2922 19.7744 27.2931 19.4802 27.2939C18.863 27.2954 18.2459 27.2962 17.6287 27.2967C16.8378 27.2975 16.0469 27.3009 15.256 27.3049C14.6482 27.3076 14.0403 27.3083 13.4324 27.3086C13.1409 27.309 12.8493 27.3101 12.5577 27.312C12.1498 27.3144 11.742 27.3142 11.3341 27.3132C11.2137 27.3145 11.0932 27.3158 10.9691 27.3172C10.0483 27.3107 9.62049 27.1042 8.94045 26.465C8.50031 25.9032 8.52455 25.3484 8.53396 24.6581C8.53294 24.5276 8.53192 24.397 8.53087 24.2625C8.52848 23.8324 8.53123 23.4025 8.53427 22.9724C8.53415 22.6726 8.5338 22.3729 8.53323 22.0731C8.53282 21.4455 8.53491 20.818 8.53882 20.1904C8.54367 19.3867 8.54281 18.5831 8.54015 17.7794C8.53864 17.1606 8.53992 16.5418 8.54205 15.9231C8.54279 15.6268 8.54272 15.3304 8.54183 15.0341C8.54105 14.6197 8.54396 14.2055 8.54785 13.791C8.54692 13.6691 8.54599 13.5471 8.54504 13.4214C8.55719 12.6578 8.68495 12.219 9.19262 11.6135C9.98313 11.0402 10.7061 11.0228 11.6573 11.0215ZM12.8905 15.4546C12.8905 17.8958 12.8905 20.3371 12.8905 22.8523C15.378 22.8523 17.8656 22.8523 20.4285 22.8523C20.4285 20.4111 20.4285 17.9698 20.4285 15.4546C17.9409 15.4546 15.4534 15.4546 12.8905 15.4546Z" stroke="#05313B" stroke-width="2" mask="url(#path-1-inside-1_5052_3534)"/>
<path d="M31.6492 43.0329C31.8482 43.0321 31.8482 43.0321 32.0511 43.0313C32.4984 43.0298 32.9456 43.0292 33.3928 43.0287C33.7124 43.0278 34.0319 43.0268 34.3514 43.0258C35.2215 43.0233 36.0917 43.0219 36.9618 43.0207C37.505 43.0199 38.0483 43.0191 38.5915 43.0182C40.0954 43.0158 41.5993 43.0137 43.1031 43.0127C43.4935 43.0124 43.8838 43.0121 44.2741 43.0119C44.4197 43.0117 44.4197 43.0118 44.5681 43.0116C46.1398 43.0105 47.7114 43.0069 49.2831 43.0022C50.8964 42.9975 52.5097 42.995 54.123 42.9945C55.0289 42.9942 55.9348 42.9929 56.8407 42.9893C57.6929 42.986 58.545 42.9854 59.3972 42.9869C59.7102 42.9869 60.0231 42.986 60.336 42.9841C60.763 42.9816 61.1898 42.9826 61.6168 42.9845C61.7409 42.9829 61.8649 42.9813 61.9927 42.9797C62.8955 42.9893 63.3765 43.2514 64.0652 43.8452C64.49 44.3596 64.4238 45.0222 64.4146 45.6535C64.359 46.2166 64.2013 46.4911 63.8074 46.895C62.9983 47.4343 62.2811 47.5464 61.3255 47.5363C61.1947 47.5372 61.0638 47.5381 60.929 47.539C60.4929 47.5412 60.057 47.5395 59.6209 47.5377C59.3073 47.5384 58.9937 47.5395 58.6801 47.5407C57.83 47.5433 56.9799 47.5423 56.1298 47.5405C55.2395 47.539 54.3492 47.5404 53.4589 47.5413C51.8682 47.5424 50.2775 47.5406 48.6868 47.5377C47.246 47.5352 45.8051 47.5356 44.3643 47.5382C42.6891 47.5413 41.014 47.5424 39.3388 47.5407C38.4527 47.5398 37.5667 47.5397 36.6807 47.5416C35.8476 47.5432 35.0146 47.5421 34.1815 47.5388C33.8761 47.5381 33.5706 47.5383 33.2651 47.5395C32.8476 47.5411 32.4303 47.5391 32.0128 47.5363C31.8923 47.5376 31.7719 47.5388 31.6478 47.5401C30.6466 47.527 29.8815 47.2545 29.1753 46.5304C28.8731 45.8376 28.8686 45.2214 28.962 44.4765C29.4684 43.2236 30.4345 43.0327 31.6492 43.0329Z" stroke="#05313B" stroke-width="2" mask="url(#path-1-inside-1_5052_3534)"/>
<path d="M31.6673 21.5523C31.8002 21.5518 31.933 21.5514 32.0699 21.551C32.517 21.5497 32.9641 21.5495 33.4112 21.5493C33.731 21.5487 34.0508 21.5479 34.3706 21.5472C35.2407 21.5453 36.1108 21.5444 36.9809 21.5438C37.5241 21.5433 38.0674 21.5428 38.6106 21.5421C40.1145 21.5404 41.6183 21.5389 43.1222 21.5384C43.2666 21.5384 43.2666 21.5384 43.4138 21.5384C43.5103 21.5383 43.6068 21.5383 43.7062 21.5383C43.9017 21.5382 44.0972 21.5381 44.2927 21.5381C44.3897 21.538 44.4867 21.538 44.5866 21.538C46.1583 21.5374 47.73 21.5349 49.3018 21.5316C50.9152 21.5282 52.5287 21.5265 54.1421 21.5263C55.0481 21.5262 55.9541 21.5253 56.8601 21.5228C57.7121 21.5204 58.564 21.5201 59.4159 21.5214C59.7289 21.5215 60.0419 21.5209 60.3549 21.5195C60.7816 21.5177 61.2082 21.5185 61.6349 21.52C61.7593 21.5188 61.8836 21.5177 62.0118 21.5165C62.9235 21.5239 63.3704 21.7435 64.0652 22.3458C64.4984 22.893 64.4663 23.4817 64.4363 24.1547C64.33 24.8723 64.0303 25.2476 63.4607 25.6712C62.6968 26.0254 61.9386 26.003 61.113 26.0015C60.9848 26.0018 60.8565 26.0021 60.7244 26.0024C60.2945 26.0033 59.8647 26.0032 59.4348 26.0031C59.1267 26.0035 58.8185 26.004 58.5104 26.0045C57.6732 26.0058 56.836 26.0061 55.9988 26.0062C55.3 26.0064 54.6013 26.0069 53.9025 26.0074C52.254 26.0086 50.6055 26.0089 48.957 26.0088C47.2561 26.0087 45.5553 26.0102 43.8544 26.0125C42.3943 26.0143 40.9343 26.0151 39.4742 26.015C38.602 26.015 37.7299 26.0154 36.8578 26.0169C36.0376 26.0182 35.2174 26.0183 34.3972 26.0172C34.0963 26.0171 33.7953 26.0174 33.4944 26.0183C33.0834 26.0194 32.6724 26.0187 32.2614 26.0176C32.1425 26.0183 32.0236 26.0191 31.9011 26.0198C31.017 26.0146 30.2504 25.9517 29.5576 25.3511C28.9539 24.6437 28.8765 24.2044 28.8876 23.2928C29.0076 22.5835 29.4008 22.1498 29.9576 21.7145C30.5269 21.5247 31.0737 21.5517 31.6673 21.5523Z" stroke="#05313B" stroke-width="2" mask="url(#path-1-inside-1_5052_3534)"/>
<path d="M23.273 34.5182C23.8426 34.8031 24.22 35.1129 24.553 35.6564C24.7825 36.3449 24.8102 36.9478 24.5306 37.6131C24.233 38.1375 23.8694 38.532 23.4436 38.9508C23.3196 39.0752 23.3196 39.0752 23.1932 39.2021C22.9216 39.4742 22.6484 39.7448 22.3752 40.0154C22.1854 40.2048 21.9957 40.3943 21.8061 40.5838C21.4094 40.9801 21.0119 41.3756 20.6139 41.7705C20.1036 42.277 19.5945 42.7846 19.0859 43.2927C18.6945 43.6836 18.3028 44.0741 17.9109 44.4644C17.723 44.6515 17.5352 44.8387 17.3475 45.0259C17.0854 45.2871 16.8228 45.5478 16.56 45.8084C16.4824 45.8858 16.4049 45.9633 16.3249 46.0431C15.6818 46.6791 15.2524 46.9638 14.36 47.0403C12.7937 47.0271 11.4427 45.1884 10.4282 44.1744C10.3013 44.0492 10.1743 43.9239 10.0435 43.7949C9.92165 43.6733 9.79982 43.5517 9.6743 43.4264C9.56461 43.3173 9.45492 43.2081 9.3419 43.0957C8.663 42.3361 8.53573 41.7715 8.5665 40.7706C8.65213 40.1427 8.83871 39.7532 9.33485 39.3552C9.9597 38.9974 10.5508 38.8722 11.2638 38.9818C12.0172 39.1973 12.492 39.6618 13.0327 40.2088C13.1501 40.3243 13.2674 40.4399 13.3883 40.5589C13.6989 40.8667 14.0068 41.1768 14.3128 41.4892C15.1445 40.7999 15.9029 40.055 16.6612 39.2863C16.921 39.0246 17.181 38.7628 17.4409 38.5011C17.8476 38.0909 18.254 37.6803 18.66 37.2694C19.0537 36.871 19.4486 36.4738 19.8435 36.0765C19.965 35.953 20.0864 35.8296 20.2116 35.7024C20.3251 35.5884 20.4386 35.4744 20.5555 35.357C20.6549 35.2565 20.7542 35.1561 20.8565 35.0527C21.5837 34.4107 22.3387 34.4072 23.273 34.5182Z" stroke="#05313B" stroke-width="2" mask="url(#path-1-inside-1_5052_3534)"/>
<path d="M32.1921 12.3959C32.3405 12.3951 32.4889 12.3943 32.6418 12.3935C33.1296 12.3918 33.6172 12.3941 34.1049 12.3967C34.4453 12.3966 34.7857 12.3964 35.1261 12.396C35.8382 12.3958 36.5504 12.3976 37.2626 12.4009C38.1744 12.4049 39.0862 12.4045 39.9981 12.4027C40.7005 12.4017 41.4029 12.4028 42.1054 12.4046C42.4416 12.4052 42.7778 12.4053 43.114 12.4047C43.5841 12.4043 44.0541 12.4067 44.5241 12.4098C44.6624 12.4091 44.8007 12.4085 44.9431 12.4078C45.8312 12.4175 46.5732 12.5052 47.2725 13.1074C47.8057 13.8137 47.9506 14.2848 47.8781 15.1703C47.6405 15.9374 47.3417 16.3583 46.6234 16.7553C46.0188 16.9936 45.3935 16.9562 44.7519 16.9511C44.5977 16.9521 44.4436 16.9531 44.2848 16.9541C43.7771 16.9566 43.2695 16.9549 42.7618 16.953C42.4082 16.9534 42.0545 16.954 41.7008 16.9547C40.9604 16.9555 40.22 16.9543 39.4796 16.9516C38.7196 16.949 37.9597 16.9489 37.1997 16.9516C36.281 16.9549 35.3623 16.9554 34.4436 16.9536C34.0938 16.9532 33.7439 16.9537 33.3941 16.955C32.9052 16.9564 32.4165 16.9542 31.9276 16.9511C31.7111 16.9528 31.7111 16.9528 31.4903 16.9546C30.6687 16.9447 30.1782 16.8661 29.5309 16.3084C29.0432 15.782 28.9194 15.3724 28.8909 14.6723C28.9214 13.9705 29.0264 13.5535 29.5309 13.0363C30.3873 12.4498 31.1774 12.3858 32.1921 12.3959Z" stroke="#05313B" stroke-width="2" mask="url(#path-1-inside-1_5052_3534)"/>
<path d="M31.4441 33.929C31.6331 33.9277 31.6331 33.9277 31.8259 33.9265C31.963 33.9263 32.1002 33.9262 32.2415 33.926C32.3868 33.9253 32.5321 33.9246 32.6818 33.9239C33.1626 33.9218 33.6435 33.9208 34.1244 33.92C34.4589 33.9192 34.7934 33.9184 35.1278 33.9176C35.8294 33.9161 36.531 33.9153 37.2326 33.9148C38.1304 33.914 39.0282 33.9106 39.926 33.9065C40.6171 33.9039 41.3082 33.9031 41.9993 33.9029C42.3302 33.9025 42.6611 33.9013 42.992 33.8995C43.4557 33.897 43.9192 33.8973 44.3829 33.8982C44.5189 33.8969 44.6549 33.8956 44.795 33.8943C45.8263 33.9007 46.6401 34.0401 47.4425 34.7403C47.8631 35.317 47.932 35.9532 47.8781 36.652C47.6805 37.3647 47.3629 37.8296 46.7342 38.2366C46.153 38.4924 45.5192 38.4364 44.895 38.4305C44.7392 38.4313 44.5835 38.432 44.423 38.4328C43.9093 38.4346 43.3956 38.4323 42.8819 38.4297C42.5245 38.4297 42.1671 38.4299 41.8097 38.4303C41.0611 38.4305 40.3126 38.4288 39.564 38.4255C38.6996 38.4217 37.8352 38.4215 36.9707 38.4231C36.1376 38.4247 35.3046 38.4238 34.4715 38.4218C34.1176 38.4211 33.7637 38.4211 33.4098 38.4216C32.9155 38.4221 32.4212 38.4197 31.9268 38.4166C31.7804 38.4172 31.6341 38.4179 31.4832 38.4185C30.4962 38.4082 30.0259 38.2381 29.2732 37.5856C28.8399 37.0384 28.8721 36.4497 28.9021 35.7767C28.9832 35.2285 29.1506 34.919 29.531 34.518C30.1493 34.0696 30.6903 33.9319 31.4441 33.929Z" stroke="#05313B" stroke-width="2" mask="url(#path-1-inside-1_5052_3534)"/>
</svg>
