<svg width="75" height="21" viewBox="0 0 75 21" fill="none" xmlns="http://www.w3.org/2000/svg">
<rect x="21.5" y="0.5" width="32" height="20" rx="4" fill="#00B8EB"/>
<path d="M35.4738 5.29199L31.8337 16H29.3581L25.7253 5.29199H28.0178L30.0319 11.6641C30.0661 11.7715 30.1223 11.9741 30.2004 12.272C30.2785 12.5649 30.3566 12.8774 30.4348 13.2095C30.5178 13.5366 30.5739 13.8076 30.6032 14.0225C30.6325 13.8076 30.6838 13.5366 30.757 13.2095C30.8351 12.8823 30.9108 12.5723 30.9841 12.2793C31.0622 11.9814 31.1183 11.7764 31.1525 11.6641L33.1813 5.29199H35.4738ZM36.8288 16V5.29199H39.0993V16H36.8288ZM45.215 5.29199C46.5969 5.29199 47.6052 5.58984 48.2399 6.18555C48.8747 6.77637 49.1921 7.5918 49.1921 8.63184C49.1921 9.10059 49.1213 9.5498 48.9797 9.97949C48.8381 10.4043 48.6061 10.7827 48.2839 11.1147C47.9665 11.4468 47.5417 11.7104 47.0095 11.9058C46.4772 12.0962 45.8205 12.1914 45.0392 12.1914H44.0651V16H41.7946V5.29199H45.215ZM45.0978 7.15234H44.0651V10.3311H44.8122C45.237 10.3311 45.6057 10.2749 45.9182 10.1626C46.2307 10.0503 46.4724 9.87451 46.6432 9.63525C46.8141 9.396 46.8996 9.08838 46.8996 8.7124C46.8996 8.18506 46.7531 7.79443 46.4601 7.54053C46.1672 7.28174 45.7131 7.15234 45.0978 7.15234Z" fill="white"/>
</svg>
